<?xml version="1.0" encoding="UTF-8" standalone="no"?>
<!DOCTYPE svg PUBLIC "-//W3C//DTD SVG 1.1//EN"
 "http://www.w3.org/Graphics/SVG/1.1/DTD/svg11.dtd">
<!-- Generated by graphviz version 2.36.0 (20140111.2315)
 -->
<!-- Title: G Pages: 1 -->
<svg width="366pt" height="2043pt"
 viewBox="0.00 0.00 366.00 2043.00" xmlns="http://www.w3.org/2000/svg" xmlns:xlink="http://www.w3.org/1999/xlink">
<g id="graph0" class="graph" transform="scale(1 1) rotate(0) translate(4 2039)">
<title>G</title>
<polygon fill="white" stroke="none" points="-4,4 -4,-2039 362,-2039 362,4 -4,4"/>
<g id="clust1" class="cluster"><title>cluster_Global</title>
<path fill="none" stroke="gray" d="M20,-44C20,-44 338,-44 338,-44 344,-44 350,-50 350,-56 350,-56 350,-2015 350,-2015 350,-2021 344,-2027 338,-2027 338,-2027 20,-2027 20,-2027 14,-2027 8,-2021 8,-2015 8,-2015 8,-56 8,-56 8,-50 14,-44 20,-44"/>
<text text-anchor="middle" x="179" y="-2014.2" font-family="Times,serif" font-size="11.00" fill="gray">Global</text>
</g>
<g id="clust2" class="cluster"><title>cluster_\Core</title>
<path fill="none" stroke="gray" d="M190,-52C190,-52 330,-52 330,-52 336,-52 342,-58 342,-64 342,-64 342,-1569 342,-1569 342,-1575 336,-1581 330,-1581 330,-1581 190,-1581 190,-1581 184,-1581 178,-1575 178,-1569 178,-1569 178,-64 178,-64 178,-58 184,-52 190,-52"/>
<text text-anchor="middle" x="260" y="-1568.2" font-family="Times,serif" font-size="11.00" fill="gray">Core</text>
</g>
<g id="clust3" class="cluster"><title>cluster_\Drivers</title>
<path fill="none" stroke="gray" d="M28,-1589C28,-1589 313,-1589 313,-1589 319,-1589 325,-1595 325,-1601 325,-1601 325,-1988 325,-1988 325,-1994 319,-2000 313,-2000 313,-2000 28,-2000 28,-2000 22,-2000 16,-1994 16,-1988 16,-1988 16,-1601 16,-1601 16,-1595 22,-1589 28,-1589"/>
<text text-anchor="middle" x="170.5" y="-1987.2" font-family="Times,serif" font-size="11.00" fill="gray">Drivers</text>
</g>
<g id="clust4" class="cluster"><title>cluster_\Drivers\Database</title>
<path fill="none" stroke="gray" d="M36,-1597C36,-1597 305,-1597 305,-1597 311,-1597 317,-1603 317,-1609 317,-1609 317,-1961 317,-1961 317,-1967 311,-1973 305,-1973 305,-1973 36,-1973 36,-1973 30,-1973 24,-1967 24,-1961 24,-1961 24,-1609 24,-1609 24,-1603 30,-1597 36,-1597"/>
<text text-anchor="middle" x="170.5" y="-1960.2" font-family="Times,serif" font-size="11.00" fill="gray">Database</text>
</g>
<g id="clust5" class="cluster"><title>cluster_\Drivers\Database\PDO</title>
<path fill="none" stroke="gray" d="M223,-1605C223,-1605 297,-1605 297,-1605 303,-1605 309,-1611 309,-1617 309,-1617 309,-1934 309,-1934 309,-1940 303,-1946 297,-1946 297,-1946 223,-1946 223,-1946 217,-1946 211,-1940 211,-1934 211,-1934 211,-1617 211,-1617 211,-1611 217,-1605 223,-1605"/>
<text text-anchor="middle" x="260" y="-1933.2" font-family="Times,serif" font-size="11.00" fill="gray">PDO</text>
</g>
<!-- \\Core\\Conf -->
<g id="node1" class="node"><title>\\Core\\Conf</title>
<polygon fill="none" stroke="black" points="287,-1554 233,-1554 233,-1518 287,-1518 287,-1554"/>
<text text-anchor="middle" x="260" y="-1532.7" font-family="Courier,monospace" font-size="11.00">Conf</text>
</g>
<!-- \\Core\\Http -->
<g id="node2" class="node"><title>\\Core\\Http</title>
<polygon fill="none" stroke="black" points="287,-1500 233,-1500 233,-1464 287,-1464 287,-1500"/>
<text text-anchor="middle" x="260" y="-1478.7" font-family="Courier,monospace" font-size="11.00">Http</text>
</g>
<!-- \\Core\\Dir -->
<g id="node3" class="node"><title>\\Core\\Dir</title>
<polygon fill="none" stroke="black" points="287,-1446 233,-1446 233,-1410 287,-1410 287,-1446"/>
<text text-anchor="middle" x="260" y="-1424.7" font-family="Courier,monospace" font-size="11.00">Dir</text>
</g>
<!-- \\Core\\Cli -->
<g id="node4" class="node"><title>\\Core\\Cli</title>
<polygon fill="none" stroke="black" points="287,-1392 233,-1392 233,-1356 287,-1356 287,-1392"/>
<text text-anchor="middle" x="260" y="-1370.7" font-family="Courier,monospace" font-size="11.00">Cli</text>
</g>
<!-- \\Core\\Hash -->
<g id="node5" class="node"><title>\\Core\\Hash</title>
<polygon fill="none" stroke="black" points="287,-1338 233,-1338 233,-1302 287,-1302 287,-1338"/>
<text text-anchor="middle" x="260" y="-1316.7" font-family="Courier,monospace" font-size="11.00">Hash</text>
</g>
<!-- \\Core\\Ini -->
<g id="node6" class="node"><title>\\Core\\Ini</title>
<polygon fill="none" stroke="black" points="287,-1284 233,-1284 233,-1248 287,-1248 287,-1284"/>
<text text-anchor="middle" x="260" y="-1262.7" font-family="Courier,monospace" font-size="11.00">Ini</text>
</g>
<!-- \\Core\\Phone -->
<g id="node7" class="node"><title>\\Core\\Phone</title>
<polygon fill="none" stroke="black" points="287,-1230 233,-1230 233,-1194 287,-1194 287,-1230"/>
<text text-anchor="middle" x="260" y="-1208.7" font-family="Courier,monospace" font-size="11.00">Phone</text>
</g>
<!-- \\Core\\Session -->
<g id="node8" class="node"><title>\\Core\\Session</title>
<polygon fill="none" stroke="black" points="291.208,-1176 228.792,-1176 228.792,-1140 291.208,-1140 291.208,-1176"/>
<text text-anchor="middle" x="260" y="-1154.7" font-family="Courier,monospace" font-size="11.00">Session</text>
</g>
<!-- \\Core\\Argv -->
<g id="node9" class="node"><title>\\Core\\Argv</title>
<polygon fill="none" stroke="black" points="287,-1122 233,-1122 233,-1086 287,-1086 287,-1122"/>
<text text-anchor="middle" x="260" y="-1100.7" font-family="Courier,monospace" font-size="11.00">Argv</text>
</g>
<!-- \\Core\\View -->
<g id="node10" class="node"><title>\\Core\\View</title>
<polygon fill="none" stroke="black" points="287,-1068 233,-1068 233,-1032 287,-1032 287,-1068"/>
<text text-anchor="middle" x="260" y="-1046.7" font-family="Courier,monospace" font-size="11.00">View</text>
</g>
<!-- \\Core\\Redirect -->
<g id="node11" class="node"><title>\\Core\\Redirect</title>
<polygon fill="none" stroke="black" points="294.309,-1014 225.691,-1014 225.691,-978 294.309,-978 294.309,-1014"/>
<text text-anchor="middle" x="260" y="-992.7" font-family="Courier,monospace" font-size="11.00">Redirect</text>
</g>
<!-- \\Core\\Money -->
<g id="node12" class="node"><title>\\Core\\Money</title>
<polygon fill="none" stroke="black" points="287,-960 233,-960 233,-924 287,-924 287,-960"/>
<text text-anchor="middle" x="260" y="-938.7" font-family="Courier,monospace" font-size="11.00">Money</text>
</g>
<!-- \\Core\\ArrayTools -->
<g id="node13" class="node"><title>\\Core\\ArrayTools</title>
<polygon fill="none" stroke="black" points="301.011,-906 218.989,-906 218.989,-870 301.011,-870 301.011,-906"/>
<text text-anchor="middle" x="260" y="-884.7" font-family="Courier,monospace" font-size="11.00">ArrayTools</text>
</g>
<!-- \\Core\\Text -->
<g id="node14" class="node"><title>\\Core\\Text</title>
<polygon fill="none" stroke="black" points="287,-852 233,-852 233,-816 287,-816 287,-852"/>
<text text-anchor="middle" x="260" y="-830.7" font-family="Courier,monospace" font-size="11.00">Text</text>
</g>
<!-- \\Core\\Upload -->
<g id="node15" class="node"><title>\\Core\\Upload</title>
<polygon fill="none" stroke="black" points="287.608,-798 232.392,-798 232.392,-762 287.608,-762 287.608,-798"/>
<text text-anchor="middle" x="260" y="-776.7" font-family="Courier,monospace" font-size="11.00">Upload</text>
</g>
<!-- \\Core\\Number -->
<g id="node16" class="node"><title>\\Core\\Number</title>
<polygon fill="none" stroke="black" points="287.608,-744 232.392,-744 232.392,-708 287.608,-708 287.608,-744"/>
<text text-anchor="middle" x="260" y="-722.7" font-family="Courier,monospace" font-size="11.00">Number</text>
</g>
<!-- \\Core\\IP -->
<g id="node17" class="node"><title>\\Core\\IP</title>
<polygon fill="none" stroke="black" points="287,-690 233,-690 233,-654 287,-654 287,-690"/>
<text text-anchor="middle" x="260" y="-668.7" font-family="Courier,monospace" font-size="11.00">IP</text>
</g>
<!-- \\Core\\JSON -->
<g id="node18" class="node"><title>\\Core\\JSON</title>
<polygon fill="none" stroke="black" points="287,-636 233,-636 233,-600 287,-600 287,-636"/>
<text text-anchor="middle" x="260" y="-614.7" font-family="Courier,monospace" font-size="11.00">JSON</text>
</g>
<!-- \\Core\\Date -->
<g id="node19" class="node"><title>\\Core\\Date</title>
<polygon fill="none" stroke="black" points="287,-582 233,-582 233,-546 287,-546 287,-582"/>
<text text-anchor="middle" x="260" y="-560.7" font-family="Courier,monospace" font-size="11.00">Date</text>
</g>
<!-- \\Core\\Controller -->
<g id="node20" class="node"><title>\\Core\\Controller</title>
<polygon fill="none" stroke="black" points="301.011,-528 218.989,-528 218.989,-492 301.011,-492 301.011,-528"/>
<text text-anchor="middle" x="260" y="-506.7" font-family="Courier,monospace" font-size="11.00">Controller</text>
</g>
<!-- \\Core\\i18n -->
<g id="node21" class="node"><title>\\Core\\i18n</title>
<polygon fill="none" stroke="black" points="287,-474 233,-474 233,-438 287,-438 287,-474"/>
<text text-anchor="middle" x="260" y="-452.7" font-family="Courier,monospace" font-size="11.00">i18n</text>
</g>
<!-- \\Core\\Db -->
<g id="node22" class="node"><title>\\Core\\Db</title>
<polygon fill="none" stroke="black" points="287,-420 233,-420 233,-384 287,-384 287,-420"/>
<text text-anchor="middle" x="260" y="-398.7" font-family="Courier,monospace" font-size="11.00">Db</text>
</g>
<!-- \\Core\\Auth -->
<g id="node23" class="node"><title>\\Core\\Auth</title>
<polygon fill="none" stroke="black" points="287,-366 233,-366 233,-330 287,-330 287,-366"/>
<text text-anchor="middle" x="260" y="-344.7" font-family="Courier,monospace" font-size="11.00">Auth</text>
</g>
<!-- \\Core\\Countries -->
<g id="node24" class="node"><title>\\Core\\Countries</title>
<polygon fill="none" stroke="black" points="297.911,-312 222.089,-312 222.089,-276 297.911,-276 297.911,-312"/>
<text text-anchor="middle" x="260" y="-290.7" font-family="Courier,monospace" font-size="11.00">Countries</text>
</g>
<!-- \\Core\\ModelIterator -->
<g id="node25" class="node"><title>\\Core\\ModelIterator</title>
<polygon fill="none" stroke="black" points="310.814,-258 209.186,-258 209.186,-222 310.814,-222 310.814,-258"/>
<text text-anchor="middle" x="260" y="-236.7" font-family="Courier,monospace" font-size="11.00">ModelIterator</text>
</g>
<!-- \\Iterator -->
<g id="node40" class="node"><title>\\Iterator</title>
<ellipse fill="none" stroke="black" cx="73" cy="-18" rx="38.6695" ry="18"/>
<text text-anchor="middle" x="73" y="-13.8" font-family="Times,serif" font-size="14.00" fill="gray">\Iterator</text>
</g>
<!-- \\Core\\ModelIterator&#45;&gt;\\Iterator -->
<g id="edge6" class="edge"><title>\\Core\\ModelIterator&#45;&gt;\\Iterator</title>
<path fill="none" stroke="black" stroke-dasharray="1,5" d="M208.788,-229.812C197.804,-225.881 186.834,-220.46 178,-213 124.494,-167.814 94.4165,-87.9287 81.5598,-45.7984"/>
<polygon fill="none" stroke="black" points="84.8406,-44.549 78.6584,-35.9448 78.1256,-46.5263 84.8406,-44.549"/>
</g>
<!-- \\Core\\Model -->
<g id="node26" class="node"><title>\\Core\\Model</title>
<polygon fill="none" stroke="black" points="287,-204 233,-204 233,-168 287,-168 287,-204"/>
<text text-anchor="middle" x="260" y="-182.7" font-family="Courier,monospace" font-size="11.00">Model</text>
</g>
<!-- \\Core\\ConfData -->
<g id="node27" class="node"><title>\\Core\\ConfData</title>
<polygon fill="none" stroke="black" points="294.309,-150 225.691,-150 225.691,-114 294.309,-114 294.309,-150"/>
<text text-anchor="middle" x="260" y="-128.7" font-family="Courier,monospace" font-size="11.00">ConfData</text>
</g>
<!-- \\Core\\InstantiatedConfData -->
<g id="node28" class="node"><title>\\Core\\InstantiatedConfData</title>
<polygon fill="none" stroke="black" points="334.021,-96 185.979,-96 185.979,-60 334.021,-60 334.021,-96"/>
<text text-anchor="middle" x="260" y="-74.7" font-family="Courier,monospace" font-size="11.00">InstantiatedConfData</text>
</g>
<!-- \\Drivers\\Database\\PDO\\MongoToSQL -->
<g id="node29" class="node"><title>\\Drivers\\Database\\PDO\\MongoToSQL</title>
<polygon fill="none" stroke="black" points="301.011,-1919 218.989,-1919 218.989,-1883 301.011,-1883 301.011,-1919"/>
<text text-anchor="middle" x="260" y="-1897.7" font-family="Courier,monospace" font-size="11.00">MongoToSQL</text>
</g>
<!-- \\Drivers\\Database\\PDO\\Regex -->
<g id="node30" class="node"><title>\\Drivers\\Database\\PDO\\Regex</title>
<polygon fill="none" stroke="black" points="287,-1649 233,-1649 233,-1613 287,-1613 287,-1649"/>
<text text-anchor="middle" x="260" y="-1627.7" font-family="Courier,monospace" font-size="11.00">Regex</text>
</g>
<!-- \\Drivers\\Database\\Regex -->
<g id="node37" class="node"><title>\\Drivers\\Database\\Regex</title>
<polygon fill="none" stroke="black" points="100,-1649 46,-1649 46,-1613 100,-1613 100,-1649"/>
<text text-anchor="middle" x="73" y="-1627.7" font-family="Courier,monospace" font-size="11.00">Regex</text>
</g>
<!-- \\Drivers\\Database\\PDO\\Regex&#45;&gt;\\Drivers\\Database\\Regex -->
<g id="edge1" class="edge"><title>\\Drivers\\Database\\PDO\\Regex&#45;&gt;\\Drivers\\Database\\Regex</title>
<path fill="none" stroke="black" stroke-dasharray="1,5" d="M232.886,-1631C200.886,-1631 146.482,-1631 110.393,-1631"/>
<polygon fill="none" stroke="black" points="110.28,-1627.5 100.28,-1631 110.28,-1634.5 110.28,-1627.5"/>
</g>
<!-- \\Drivers\\Database\\PDO\\Id -->
<g id="node31" class="node"><title>\\Drivers\\Database\\PDO\\Id</title>
<polygon fill="none" stroke="black" points="287,-1703 233,-1703 233,-1667 287,-1667 287,-1703"/>
<text text-anchor="middle" x="260" y="-1681.7" font-family="Courier,monospace" font-size="11.00">Id</text>
</g>
<!-- \\Drivers\\Database\\Id -->
<g id="node39" class="node"><title>\\Drivers\\Database\\Id</title>
<polygon fill="none" stroke="black" points="100,-1703 46,-1703 46,-1667 100,-1667 100,-1703"/>
<text text-anchor="middle" x="73" y="-1681.7" font-family="Courier,monospace" font-size="11.00">Id</text>
</g>
<!-- \\Drivers\\Database\\PDO\\Id&#45;&gt;\\Drivers\\Database\\Id -->
<g id="edge2" class="edge"><title>\\Drivers\\Database\\PDO\\Id&#45;&gt;\\Drivers\\Database\\Id</title>
<path fill="none" stroke="black" stroke-dasharray="1,5" d="M232.886,-1685C200.886,-1685 146.482,-1685 110.393,-1685"/>
<polygon fill="none" stroke="black" points="110.28,-1681.5 100.28,-1685 110.28,-1688.5 110.28,-1681.5"/>
</g>
<!-- \\Drivers\\Database\\PDO\\Date -->
<g id="node32" class="node"><title>\\Drivers\\Database\\PDO\\Date</title>
<polygon fill="none" stroke="black" points="287,-1757 233,-1757 233,-1721 287,-1721 287,-1757"/>
<text text-anchor="middle" x="260" y="-1735.7" font-family="Courier,monospace" font-size="11.00">Date</text>
</g>
<!-- \\Drivers\\Database\\Date -->
<g id="node36" class="node"><title>\\Drivers\\Database\\Date</title>
<polygon fill="none" stroke="black" points="100,-1757 46,-1757 46,-1721 100,-1721 100,-1757"/>
<text text-anchor="middle" x="73" y="-1735.7" font-family="Courier,monospace" font-size="11.00">Date</text>
</g>
<!-- \\Drivers\\Database\\PDO\\Date&#45;&gt;\\Drivers\\Database\\Date -->
<g id="edge3" class="edge"><title>\\Drivers\\Database\\PDO\\Date&#45;&gt;\\Drivers\\Database\\Date</title>
<path fill="none" stroke="black" stroke-dasharray="1,5" d="M232.886,-1739C200.886,-1739 146.482,-1739 110.393,-1739"/>
<polygon fill="none" stroke="black" points="110.28,-1735.5 100.28,-1739 110.28,-1742.5 110.28,-1735.5"/>
</g>
<!-- \\Drivers\\Database\\PDO\\Collection -->
<g id="node33" class="node"><title>\\Drivers\\Database\\PDO\\Collection</title>
<polygon fill="none" stroke="black" points="301.011,-1811 218.989,-1811 218.989,-1775 301.011,-1775 301.011,-1811"/>
<text text-anchor="middle" x="260" y="-1789.7" font-family="Courier,monospace" font-size="11.00">Collection</text>
</g>
<!-- \\Drivers\\Database\\Collection -->
<g id="node38" class="node"><title>\\Drivers\\Database\\Collection</title>
<polygon fill="none" stroke="black" points="114.011,-1811 31.9893,-1811 31.9893,-1775 114.011,-1775 114.011,-1811"/>
<text text-anchor="middle" x="73" y="-1789.7" font-family="Courier,monospace" font-size="11.00">Collection</text>
</g>
<!-- \\Drivers\\Database\\PDO\\Collection&#45;&gt;\\Drivers\\Database\\Collection -->
<g id="edge4" class="edge"><title>\\Drivers\\Database\\PDO\\Collection&#45;&gt;\\Drivers\\Database\\Collection</title>
<path fill="none" stroke="black" stroke-dasharray="1,5" d="M218.858,-1793C191.1,-1793 153.963,-1793 124.24,-1793"/>
<polygon fill="none" stroke="black" points="124.064,-1789.5 114.064,-1793 124.064,-1796.5 124.064,-1789.5"/>
</g>
<!-- \\Drivers\\Database\\PDO\\Factory -->
<g id="node34" class="node"><title>\\Drivers\\Database\\PDO\\Factory</title>
<polygon fill="none" stroke="black" points="291.208,-1865 228.792,-1865 228.792,-1829 291.208,-1829 291.208,-1865"/>
<text text-anchor="middle" x="260" y="-1843.7" font-family="Courier,monospace" font-size="11.00">Factory</text>
</g>
<!-- \\Drivers\\Database\\Factory -->
<g id="node35" class="node"><title>\\Drivers\\Database\\Factory</title>
<polygon fill="none" stroke="black" points="104.208,-1865 41.7921,-1865 41.7921,-1829 104.208,-1829 104.208,-1865"/>
<text text-anchor="middle" x="73" y="-1843.7" font-family="Courier,monospace" font-size="11.00">Factory</text>
</g>
<!-- \\Drivers\\Database\\PDO\\Factory&#45;&gt;\\Drivers\\Database\\Factory -->
<g id="edge5" class="edge"><title>\\Drivers\\Database\\PDO\\Factory&#45;&gt;\\Drivers\\Database\\Factory</title>
<path fill="none" stroke="black" stroke-dasharray="1,5" d="M228.865,-1847C197.688,-1847 148.819,-1847 114.329,-1847"/>
<polygon fill="none" stroke="black" points="114.122,-1843.5 104.122,-1847 114.122,-1850.5 114.122,-1843.5"/>
</g>
</g>
</svg>
