<?xml version="1.0" encoding="UTF-8" standalone="no"?>
<!DOCTYPE svg PUBLIC "-//W3C//DTD SVG 1.1//EN"
 "http://www.w3.org/Graphics/SVG/1.1/DTD/svg11.dtd">
<!-- Generated by graphviz version 2.36.0 (20140111.2315)
 -->
<!-- Title: G Pages: 1 -->
<svg width="372pt" height="2594pt"
 viewBox="0.00 0.00 372.00 2594.00" xmlns="http://www.w3.org/2000/svg" xmlns:xlink="http://www.w3.org/1999/xlink">
<g id="graph0" class="graph" transform="scale(1 1) rotate(0) translate(4 2590)">
<title>G</title>
<polygon fill="white" stroke="none" points="-4,4 -4,-2590 368,-2590 368,4 -4,4"/>
<g id="clust1" class="cluster"><title>cluster_Global</title>
<path fill="none" stroke="gray" d="M20,-44C20,-44 344,-44 344,-44 350,-44 356,-50 356,-56 356,-56 356,-2566 356,-2566 356,-2572 350,-2578 344,-2578 344,-2578 20,-2578 20,-2578 14,-2578 8,-2572 8,-2566 8,-2566 8,-56 8,-56 8,-50 14,-44 20,-44"/>
<text text-anchor="middle" x="182" y="-2565.2" font-family="Times,serif" font-size="11.00" fill="gray">Global</text>
</g>
<g id="clust2" class="cluster"><title>cluster_\Core</title>
<path fill="none" stroke="gray" d="M192,-52C192,-52 336,-52 336,-52 342,-52 348,-58 348,-64 348,-64 348,-1678 348,-1678 348,-1684 342,-1690 336,-1690 336,-1690 192,-1690 192,-1690 186,-1690 180,-1684 180,-1678 180,-1678 180,-64 180,-64 180,-58 186,-52 192,-52"/>
<text text-anchor="middle" x="264" y="-1677.2" font-family="Times,serif" font-size="11.00" fill="gray">Core</text>
</g>
<g id="clust3" class="cluster"><title>cluster_\Drivers</title>
<path fill="none" stroke="gray" d="M28,-1860C28,-1860 318,-1860 318,-1860 324,-1860 330,-1866 330,-1872 330,-1872 330,-2538 330,-2538 330,-2544 324,-2550 318,-2550 318,-2550 28,-2550 28,-2550 22,-2550 16,-2544 16,-2538 16,-2538 16,-1872 16,-1872 16,-1866 22,-1860 28,-1860"/>
<text text-anchor="middle" x="173" y="-2537.2" font-family="Times,serif" font-size="11.00" fill="gray">Drivers</text>
</g>
<g id="clust4" class="cluster"><title>cluster_\Drivers\Mail</title>
<path fill="none" stroke="gray" d="M46,-2414C46,-2414 300,-2414 300,-2414 306,-2414 312,-2420 312,-2426 312,-2426 312,-2510 312,-2510 312,-2516 306,-2522 300,-2522 300,-2522 46,-2522 46,-2522 40,-2522 34,-2516 34,-2510 34,-2510 34,-2426 34,-2426 34,-2420 40,-2414 46,-2414"/>
<text text-anchor="middle" x="173" y="-2509.2" font-family="Times,serif" font-size="11.00" fill="gray">Mail</text>
</g>
<g id="clust5" class="cluster"><title>cluster_\Drivers\Mail\System</title>
<path fill="none" stroke="gray" d="M236,-2422C236,-2422 292,-2422 292,-2422 298,-2422 304,-2428 304,-2434 304,-2434 304,-2482 304,-2482 304,-2488 298,-2494 292,-2494 292,-2494 236,-2494 236,-2494 230,-2494 224,-2488 224,-2482 224,-2482 224,-2434 224,-2434 224,-2428 230,-2422 236,-2422"/>
<text text-anchor="middle" x="264" y="-2481.2" font-family="Times,serif" font-size="11.00" fill="gray">System</text>
</g>
<g id="clust6" class="cluster"><title>cluster_\Drivers\Database</title>
<path fill="none" stroke="gray" d="M36,-2028C36,-2028 310,-2028 310,-2028 316,-2028 322,-2034 322,-2040 322,-2040 322,-2394 322,-2394 322,-2400 316,-2406 310,-2406 310,-2406 36,-2406 36,-2406 30,-2406 24,-2400 24,-2394 24,-2394 24,-2040 24,-2040 24,-2034 30,-2028 36,-2028"/>
<text text-anchor="middle" x="173" y="-2393.2" font-family="Times,serif" font-size="11.00" fill="gray">Database</text>
</g>
<g id="clust7" class="cluster"><title>cluster_\Drivers\Database\PDO</title>
<path fill="none" stroke="gray" d="M226,-2036C226,-2036 302,-2036 302,-2036 308,-2036 314,-2042 314,-2048 314,-2048 314,-2366 314,-2366 314,-2372 308,-2378 302,-2378 302,-2378 226,-2378 226,-2378 220,-2378 214,-2372 214,-2366 214,-2366 214,-2048 214,-2048 214,-2042 220,-2036 226,-2036"/>
<text text-anchor="middle" x="264" y="-2365.2" font-family="Times,serif" font-size="11.00" fill="gray">PDO</text>
</g>
<g id="clust8" class="cluster"><title>cluster_\Drivers\Payment</title>
<path fill="none" stroke="gray" d="M236,-1948C236,-1948 292,-1948 292,-1948 298,-1948 304,-1954 304,-1960 304,-1960 304,-2008 304,-2008 304,-2014 298,-2020 292,-2020 292,-2020 236,-2020 236,-2020 230,-2020 224,-2014 224,-2008 224,-2008 224,-1960 224,-1960 224,-1954 230,-1948 236,-1948"/>
<text text-anchor="middle" x="264" y="-2007.2" font-family="Times,serif" font-size="11.00" fill="gray">Payment</text>
</g>
<g id="clust9" class="cluster"><title>cluster_\Drivers\SocialLogin</title>
<path fill="none" stroke="gray" d="M236,-1868C236,-1868 292,-1868 292,-1868 298,-1868 304,-1874 304,-1880 304,-1880 304,-1928 304,-1928 304,-1934 298,-1940 292,-1940 292,-1940 236,-1940 236,-1940 230,-1940 224,-1934 224,-1928 224,-1928 224,-1880 224,-1880 224,-1874 230,-1868 236,-1868"/>
<text text-anchor="middle" x="264" y="-1927.2" font-family="Times,serif" font-size="11.00" fill="gray">SocialLogin</text>
</g>
<g id="clust10" class="cluster"><title>cluster_\Plugins</title>
<path fill="none" stroke="gray" d="M46,-1698C46,-1698 300,-1698 300,-1698 306,-1698 312,-1704 312,-1710 312,-1710 312,-1840 312,-1840 312,-1846 306,-1852 300,-1852 300,-1852 46,-1852 46,-1852 40,-1852 34,-1846 34,-1840 34,-1840 34,-1710 34,-1710 34,-1704 40,-1698 46,-1698"/>
<text text-anchor="middle" x="173" y="-1839.2" font-family="Times,serif" font-size="11.00" fill="gray">Plugins</text>
</g>
<g id="clust11" class="cluster"><title>cluster_\Plugins\Admin</title>
<path fill="none" stroke="gray" d="M236,-1752C236,-1752 292,-1752 292,-1752 298,-1752 304,-1758 304,-1764 304,-1764 304,-1812 304,-1812 304,-1818 298,-1824 292,-1824 292,-1824 236,-1824 236,-1824 230,-1824 224,-1818 224,-1812 224,-1812 224,-1764 224,-1764 224,-1758 230,-1752 236,-1752"/>
<text text-anchor="middle" x="264" y="-1811.2" font-family="Times,serif" font-size="11.00" fill="gray">Admin</text>
</g>
<!-- \\Core\\Conf -->
<g id="node1" class="node"><title>\\Core\\Conf</title>
<polygon fill="none" stroke="black" points="291,-1662 237,-1662 237,-1626 291,-1626 291,-1662"/>
<text text-anchor="middle" x="264" y="-1641.2" font-family="Courier,monospace" font-size="11.00">Conf</text>
</g>
<!-- \\Core\\Http -->
<g id="node2" class="node"><title>\\Core\\Http</title>
<polygon fill="none" stroke="black" points="291,-1608 237,-1608 237,-1572 291,-1572 291,-1608"/>
<text text-anchor="middle" x="264" y="-1587.2" font-family="Courier,monospace" font-size="11.00">Http</text>
</g>
<!-- \\Core\\Dir -->
<g id="node3" class="node"><title>\\Core\\Dir</title>
<polygon fill="none" stroke="black" points="291,-1554 237,-1554 237,-1518 291,-1518 291,-1554"/>
<text text-anchor="middle" x="264" y="-1533.2" font-family="Courier,monospace" font-size="11.00">Dir</text>
</g>
<!-- \\Core\\Cli -->
<g id="node4" class="node"><title>\\Core\\Cli</title>
<polygon fill="none" stroke="black" points="291,-1500 237,-1500 237,-1464 291,-1464 291,-1500"/>
<text text-anchor="middle" x="264" y="-1479.2" font-family="Courier,monospace" font-size="11.00">Cli</text>
</g>
<!-- \\Core\\Hash -->
<g id="node5" class="node"><title>\\Core\\Hash</title>
<polygon fill="none" stroke="black" points="291,-1446 237,-1446 237,-1410 291,-1410 291,-1446"/>
<text text-anchor="middle" x="264" y="-1425.2" font-family="Courier,monospace" font-size="11.00">Hash</text>
</g>
<!-- \\Core\\Ini -->
<g id="node6" class="node"><title>\\Core\\Ini</title>
<polygon fill="none" stroke="black" points="291,-1392 237,-1392 237,-1356 291,-1356 291,-1392"/>
<text text-anchor="middle" x="264" y="-1371.2" font-family="Courier,monospace" font-size="11.00">Ini</text>
</g>
<!-- \\Core\\Phone -->
<g id="node7" class="node"><title>\\Core\\Phone</title>
<polygon fill="none" stroke="black" points="291,-1338 237,-1338 237,-1302 291,-1302 291,-1338"/>
<text text-anchor="middle" x="264" y="-1317.2" font-family="Courier,monospace" font-size="11.00">Phone</text>
</g>
<!-- \\Core\\Session -->
<g id="node8" class="node"><title>\\Core\\Session</title>
<polygon fill="none" stroke="black" points="296,-1284 232,-1284 232,-1248 296,-1248 296,-1284"/>
<text text-anchor="middle" x="264" y="-1263.2" font-family="Courier,monospace" font-size="11.00">Session</text>
</g>
<!-- \\Core\\Argv -->
<g id="node9" class="node"><title>\\Core\\Argv</title>
<polygon fill="none" stroke="black" points="291,-1230 237,-1230 237,-1194 291,-1194 291,-1230"/>
<text text-anchor="middle" x="264" y="-1209.2" font-family="Courier,monospace" font-size="11.00">Argv</text>
</g>
<!-- \\Core\\View -->
<g id="node10" class="node"><title>\\Core\\View</title>
<polygon fill="none" stroke="black" points="291,-1176 237,-1176 237,-1140 291,-1140 291,-1176"/>
<text text-anchor="middle" x="264" y="-1155.2" font-family="Courier,monospace" font-size="11.00">View</text>
</g>
<!-- \\Core\\Redirect -->
<g id="node11" class="node"><title>\\Core\\Redirect</title>
<polygon fill="none" stroke="black" points="299.5,-1122 228.5,-1122 228.5,-1086 299.5,-1086 299.5,-1122"/>
<text text-anchor="middle" x="264" y="-1101.2" font-family="Courier,monospace" font-size="11.00">Redirect</text>
</g>
<!-- \\Core\\Debug -->
<g id="node12" class="node"><title>\\Core\\Debug</title>
<polygon fill="none" stroke="black" points="291,-1068 237,-1068 237,-1032 291,-1032 291,-1068"/>
<text text-anchor="middle" x="264" y="-1047.2" font-family="Courier,monospace" font-size="11.00">Debug</text>
</g>
<!-- \\Core\\Money -->
<g id="node13" class="node"><title>\\Core\\Money</title>
<polygon fill="none" stroke="black" points="291,-1014 237,-1014 237,-978 291,-978 291,-1014"/>
<text text-anchor="middle" x="264" y="-993.2" font-family="Courier,monospace" font-size="11.00">Money</text>
</g>
<!-- \\Core\\ArrayTools -->
<g id="node14" class="node"><title>\\Core\\ArrayTools</title>
<polygon fill="none" stroke="black" points="306,-960 222,-960 222,-924 306,-924 306,-960"/>
<text text-anchor="middle" x="264" y="-939.2" font-family="Courier,monospace" font-size="11.00">ArrayTools</text>
</g>
<!-- \\Core\\Mail -->
<g id="node15" class="node"><title>\\Core\\Mail</title>
<polygon fill="none" stroke="black" points="291,-906 237,-906 237,-870 291,-870 291,-906"/>
<text text-anchor="middle" x="264" y="-885.2" font-family="Courier,monospace" font-size="11.00">Mail</text>
</g>
<!-- \\Core\\Text -->
<g id="node16" class="node"><title>\\Core\\Text</title>
<polygon fill="none" stroke="black" points="291,-852 237,-852 237,-816 291,-816 291,-852"/>
<text text-anchor="middle" x="264" y="-831.2" font-family="Courier,monospace" font-size="11.00">Text</text>
</g>
<!-- \\Core\\Upload -->
<g id="node17" class="node"><title>\\Core\\Upload</title>
<polygon fill="none" stroke="black" points="292.5,-798 235.5,-798 235.5,-762 292.5,-762 292.5,-798"/>
<text text-anchor="middle" x="264" y="-777.2" font-family="Courier,monospace" font-size="11.00">Upload</text>
</g>
<!-- \\Core\\Number -->
<g id="node18" class="node"><title>\\Core\\Number</title>
<polygon fill="none" stroke="black" points="292.5,-744 235.5,-744 235.5,-708 292.5,-708 292.5,-744"/>
<text text-anchor="middle" x="264" y="-723.2" font-family="Courier,monospace" font-size="11.00">Number</text>
</g>
<!-- \\Core\\IP -->
<g id="node19" class="node"><title>\\Core\\IP</title>
<polygon fill="none" stroke="black" points="291,-690 237,-690 237,-654 291,-654 291,-690"/>
<text text-anchor="middle" x="264" y="-669.2" font-family="Courier,monospace" font-size="11.00">IP</text>
</g>
<!-- \\Core\\JSON -->
<g id="node20" class="node"><title>\\Core\\JSON</title>
<polygon fill="none" stroke="black" points="291,-636 237,-636 237,-600 291,-600 291,-636"/>
<text text-anchor="middle" x="264" y="-615.2" font-family="Courier,monospace" font-size="11.00">JSON</text>
</g>
<!-- \\Core\\Date -->
<g id="node21" class="node"><title>\\Core\\Date</title>
<polygon fill="none" stroke="black" points="291,-582 237,-582 237,-546 291,-546 291,-582"/>
<text text-anchor="middle" x="264" y="-561.2" font-family="Courier,monospace" font-size="11.00">Date</text>
</g>
<!-- \\Core\\Controller -->
<g id="node22" class="node"><title>\\Core\\Controller</title>
<polygon fill="none" stroke="black" points="306,-528 222,-528 222,-492 306,-492 306,-528"/>
<text text-anchor="middle" x="264" y="-507.2" font-family="Courier,monospace" font-size="11.00">Controller</text>
</g>
<!-- \\Core\\i18n -->
<g id="node23" class="node"><title>\\Core\\i18n</title>
<polygon fill="none" stroke="black" points="291,-474 237,-474 237,-438 291,-438 291,-474"/>
<text text-anchor="middle" x="264" y="-453.2" font-family="Courier,monospace" font-size="11.00">i18n</text>
</g>
<!-- \\Core\\Db -->
<g id="node24" class="node"><title>\\Core\\Db</title>
<polygon fill="none" stroke="black" points="291,-420 237,-420 237,-384 291,-384 291,-420"/>
<text text-anchor="middle" x="264" y="-399.2" font-family="Courier,monospace" font-size="11.00">Db</text>
</g>
<!-- \\Core\\Auth -->
<g id="node25" class="node"><title>\\Core\\Auth</title>
<polygon fill="none" stroke="black" points="291,-366 237,-366 237,-330 291,-330 291,-366"/>
<text text-anchor="middle" x="264" y="-345.2" font-family="Courier,monospace" font-size="11.00">Auth</text>
</g>
<!-- \\Core\\Countries -->
<g id="node26" class="node"><title>\\Core\\Countries</title>
<polygon fill="none" stroke="black" points="302.5,-312 225.5,-312 225.5,-276 302.5,-276 302.5,-312"/>
<text text-anchor="middle" x="264" y="-291.2" font-family="Courier,monospace" font-size="11.00">Countries</text>
</g>
<!-- \\Core\\ModelIterator -->
<g id="node27" class="node"><title>\\Core\\ModelIterator</title>
<polygon fill="none" stroke="black" points="316,-258 212,-258 212,-222 316,-222 316,-258"/>
<text text-anchor="middle" x="264" y="-237.2" font-family="Courier,monospace" font-size="11.00">ModelIterator</text>
</g>
<!-- \\Iterator -->
<g id="node49" class="node"><title>\\Iterator</title>
<ellipse fill="none" stroke="black" cx="74" cy="-18" rx="38.9931" ry="18"/>
<text text-anchor="middle" x="74" y="-14.3" font-family="Times,serif" font-size="14.00" fill="gray">\Iterator</text>
</g>
<!-- \\Core\\ModelIterator&#45;&gt;\\Iterator -->
<g id="edge8" class="edge"><title>\\Core\\ModelIterator&#45;&gt;\\Iterator</title>
<path fill="none" stroke="black" stroke-dasharray="1,5" d="M211.579,-229.979C200.322,-226.041 189.073,-220.575 180,-213 126.012,-167.924 95.5682,-87.7075 82.5862,-45.5814"/>
<polygon fill="none" stroke="black" points="85.9354,-44.5649 79.7277,-35.9791 79.2264,-46.5621 85.9354,-44.5649"/>
</g>
<!-- \\Core\\Model -->
<g id="node28" class="node"><title>\\Core\\Model</title>
<polygon fill="none" stroke="black" points="291,-204 237,-204 237,-168 291,-168 291,-204"/>
<text text-anchor="middle" x="264" y="-183.2" font-family="Courier,monospace" font-size="11.00">Model</text>
</g>
<!-- \\Core\\ConfData -->
<g id="node29" class="node"><title>\\Core\\ConfData</title>
<polygon fill="none" stroke="black" points="299.5,-150 228.5,-150 228.5,-114 299.5,-114 299.5,-150"/>
<text text-anchor="middle" x="264" y="-129.2" font-family="Courier,monospace" font-size="11.00">ConfData</text>
</g>
<!-- \\Core\\InstantiatedConfData -->
<g id="node30" class="node"><title>\\Core\\InstantiatedConfData</title>
<polygon fill="none" stroke="black" points="340,-96 188,-96 188,-60 340,-60 340,-96"/>
<text text-anchor="middle" x="264" y="-75.2" font-family="Courier,monospace" font-size="11.00">InstantiatedConfData</text>
</g>
<!-- \\Drivers\\Mail\\System\\Factory -->
<g id="node31" class="node"><title>\\Drivers\\Mail\\System\\Factory</title>
<polygon fill="none" stroke="black" points="296,-2466 232,-2466 232,-2430 296,-2430 296,-2466"/>
<text text-anchor="middle" x="264" y="-2445.2" font-family="Courier,monospace" font-size="11.00">Factory</text>
</g>
<!-- \\Drivers\\Mail\\Factory -->
<g id="node32" class="node"><title>\\Drivers\\Mail\\Factory</title>
<polygon fill="none" stroke="black" points="106,-2466 42,-2466 42,-2430 106,-2430 106,-2466"/>
<text text-anchor="middle" x="74" y="-2445.2" font-family="Courier,monospace" font-size="11.00">Factory</text>
</g>
<!-- \\Drivers\\Mail\\System\\Factory&#45;&gt;\\Drivers\\Mail\\Factory -->
<g id="edge1" class="edge"><title>\\Drivers\\Mail\\System\\Factory&#45;&gt;\\Drivers\\Mail\\Factory</title>
<path fill="none" stroke="black" stroke-dasharray="1,5" d="M231.956,-2448C200.388,-2448 151.289,-2448 116.42,-2448"/>
<polygon fill="none" stroke="black" points="116.091,-2444.5 106.09,-2448 116.09,-2451.5 116.091,-2444.5"/>
</g>
<!-- \\Drivers\\Database\\PDO\\MongoToSQL -->
<g id="node33" class="node"><title>\\Drivers\\Database\\PDO\\MongoToSQL</title>
<polygon fill="none" stroke="black" points="306,-2350 222,-2350 222,-2314 306,-2314 306,-2350"/>
<text text-anchor="middle" x="264" y="-2329.2" font-family="Courier,monospace" font-size="11.00">MongoToSQL</text>
</g>
<!-- \\Drivers\\Database\\PDO\\Regex -->
<g id="node34" class="node"><title>\\Drivers\\Database\\PDO\\Regex</title>
<polygon fill="none" stroke="black" points="291,-2080 237,-2080 237,-2044 291,-2044 291,-2080"/>
<text text-anchor="middle" x="264" y="-2059.2" font-family="Courier,monospace" font-size="11.00">Regex</text>
</g>
<!-- \\Drivers\\Database\\Regex -->
<g id="node41" class="node"><title>\\Drivers\\Database\\Regex</title>
<polygon fill="none" stroke="black" points="101,-2080 47,-2080 47,-2044 101,-2044 101,-2080"/>
<text text-anchor="middle" x="74" y="-2059.2" font-family="Courier,monospace" font-size="11.00">Regex</text>
</g>
<!-- \\Drivers\\Database\\PDO\\Regex&#45;&gt;\\Drivers\\Database\\Regex -->
<g id="edge2" class="edge"><title>\\Drivers\\Database\\PDO\\Regex&#45;&gt;\\Drivers\\Database\\Regex</title>
<path fill="none" stroke="black" stroke-dasharray="1,5" d="M236.859,-2062C204.26,-2062 148.346,-2062 111.526,-2062"/>
<polygon fill="none" stroke="black" points="111.221,-2058.5 101.221,-2062 111.221,-2065.5 111.221,-2058.5"/>
</g>
<!-- \\Drivers\\Database\\PDO\\Id -->
<g id="node35" class="node"><title>\\Drivers\\Database\\PDO\\Id</title>
<polygon fill="none" stroke="black" points="291,-2134 237,-2134 237,-2098 291,-2098 291,-2134"/>
<text text-anchor="middle" x="264" y="-2113.2" font-family="Courier,monospace" font-size="11.00">Id</text>
</g>
<!-- \\Drivers\\Database\\Id -->
<g id="node43" class="node"><title>\\Drivers\\Database\\Id</title>
<polygon fill="none" stroke="black" points="101,-2134 47,-2134 47,-2098 101,-2098 101,-2134"/>
<text text-anchor="middle" x="74" y="-2113.2" font-family="Courier,monospace" font-size="11.00">Id</text>
</g>
<!-- \\Drivers\\Database\\PDO\\Id&#45;&gt;\\Drivers\\Database\\Id -->
<g id="edge3" class="edge"><title>\\Drivers\\Database\\PDO\\Id&#45;&gt;\\Drivers\\Database\\Id</title>
<path fill="none" stroke="black" stroke-dasharray="1,5" d="M236.859,-2116C204.26,-2116 148.346,-2116 111.526,-2116"/>
<polygon fill="none" stroke="black" points="111.221,-2112.5 101.221,-2116 111.221,-2119.5 111.221,-2112.5"/>
</g>
<!-- \\Drivers\\Database\\PDO\\Date -->
<g id="node36" class="node"><title>\\Drivers\\Database\\PDO\\Date</title>
<polygon fill="none" stroke="black" points="291,-2188 237,-2188 237,-2152 291,-2152 291,-2188"/>
<text text-anchor="middle" x="264" y="-2167.2" font-family="Courier,monospace" font-size="11.00">Date</text>
</g>
<!-- \\Drivers\\Database\\Date -->
<g id="node40" class="node"><title>\\Drivers\\Database\\Date</title>
<polygon fill="none" stroke="black" points="101,-2188 47,-2188 47,-2152 101,-2152 101,-2188"/>
<text text-anchor="middle" x="74" y="-2167.2" font-family="Courier,monospace" font-size="11.00">Date</text>
</g>
<!-- \\Drivers\\Database\\PDO\\Date&#45;&gt;\\Drivers\\Database\\Date -->
<g id="edge4" class="edge"><title>\\Drivers\\Database\\PDO\\Date&#45;&gt;\\Drivers\\Database\\Date</title>
<path fill="none" stroke="black" stroke-dasharray="1,5" d="M236.859,-2170C204.26,-2170 148.346,-2170 111.526,-2170"/>
<polygon fill="none" stroke="black" points="111.221,-2166.5 101.221,-2170 111.221,-2173.5 111.221,-2166.5"/>
</g>
<!-- \\Drivers\\Database\\PDO\\Collection -->
<g id="node37" class="node"><title>\\Drivers\\Database\\PDO\\Collection</title>
<polygon fill="none" stroke="black" points="306,-2242 222,-2242 222,-2206 306,-2206 306,-2242"/>
<text text-anchor="middle" x="264" y="-2221.2" font-family="Courier,monospace" font-size="11.00">Collection</text>
</g>
<!-- \\Drivers\\Database\\Collection -->
<g id="node42" class="node"><title>\\Drivers\\Database\\Collection</title>
<polygon fill="none" stroke="black" points="116,-2242 32,-2242 32,-2206 116,-2206 116,-2242"/>
<text text-anchor="middle" x="74" y="-2221.2" font-family="Courier,monospace" font-size="11.00">Collection</text>
</g>
<!-- \\Drivers\\Database\\PDO\\Collection&#45;&gt;\\Drivers\\Database\\Collection -->
<g id="edge5" class="edge"><title>\\Drivers\\Database\\PDO\\Collection&#45;&gt;\\Drivers\\Database\\Collection</title>
<path fill="none" stroke="black" stroke-dasharray="1,5" d="M221.743,-2224C193.703,-2224 156.406,-2224 126.431,-2224"/>
<polygon fill="none" stroke="black" points="126.161,-2220.5 116.161,-2224 126.161,-2227.5 126.161,-2220.5"/>
</g>
<!-- \\Drivers\\Database\\PDO\\Factory -->
<g id="node38" class="node"><title>\\Drivers\\Database\\PDO\\Factory</title>
<polygon fill="none" stroke="black" points="296,-2296 232,-2296 232,-2260 296,-2260 296,-2296"/>
<text text-anchor="middle" x="264" y="-2275.2" font-family="Courier,monospace" font-size="11.00">Factory</text>
</g>
<!-- \\Drivers\\Database\\Factory -->
<g id="node39" class="node"><title>\\Drivers\\Database\\Factory</title>
<polygon fill="none" stroke="black" points="106,-2296 42,-2296 42,-2260 106,-2260 106,-2296"/>
<text text-anchor="middle" x="74" y="-2275.2" font-family="Courier,monospace" font-size="11.00">Factory</text>
</g>
<!-- \\Drivers\\Database\\PDO\\Factory&#45;&gt;\\Drivers\\Database\\Factory -->
<g id="edge7" class="edge"><title>\\Drivers\\Database\\PDO\\Factory&#45;&gt;\\Drivers\\Database\\Factory</title>
<path fill="none" stroke="black" stroke-dasharray="1,5" d="M231.956,-2278C200.388,-2278 151.289,-2278 116.42,-2278"/>
<polygon fill="none" stroke="black" points="116.091,-2274.5 106.09,-2278 116.09,-2281.5 116.091,-2274.5"/>
</g>
<!-- \\Drivers\\Payment\\Factory -->
<g id="node44" class="node"><title>\\Drivers\\Payment\\Factory</title>
<polygon fill="none" stroke="black" points="296,-1992 232,-1992 232,-1956 296,-1956 296,-1992"/>
<text text-anchor="middle" x="264" y="-1971.2" font-family="Courier,monospace" font-size="11.00">Factory</text>
</g>
<!-- \\Drivers\\SocialLogin\\Factory -->
<g id="node45" class="node"><title>\\Drivers\\SocialLogin\\Factory</title>
<polygon fill="none" stroke="black" points="296,-1912 232,-1912 232,-1876 296,-1876 296,-1912"/>
<text text-anchor="middle" x="264" y="-1891.2" font-family="Courier,monospace" font-size="11.00">Factory</text>
</g>
<!-- \\Plugins\\Admin\\Factory -->
<g id="node46" class="node"><title>\\Plugins\\Admin\\Factory</title>
<polygon fill="none" stroke="black" points="296,-1796 232,-1796 232,-1760 296,-1760 296,-1796"/>
<text text-anchor="middle" x="264" y="-1775.2" font-family="Courier,monospace" font-size="11.00">Factory</text>
</g>
<!-- \\Plugins\\Factory -->
<g id="node47" class="node"><title>\\Plugins\\Factory</title>
<polygon fill="none" stroke="black" points="106,-1796 42,-1796 42,-1760 106,-1760 106,-1796"/>
<text text-anchor="middle" x="74" y="-1775.2" font-family="Courier,monospace" font-size="11.00">Factory</text>
</g>
<!-- \\Plugins\\Admin\\Factory&#45;&gt;\\Plugins\\Factory -->
<g id="edge6" class="edge"><title>\\Plugins\\Admin\\Factory&#45;&gt;\\Plugins\\Factory</title>
<path fill="none" stroke="black" stroke-dasharray="1,5" d="M231.956,-1778C200.388,-1778 151.289,-1778 116.42,-1778"/>
<polygon fill="none" stroke="black" points="116.091,-1774.5 106.09,-1778 116.09,-1781.5 116.091,-1774.5"/>
</g>
<!-- \\Plugins\\Widgets -->
<g id="node48" class="node"><title>\\Plugins\\Widgets</title>
<polygon fill="none" stroke="black" points="296,-1742 232,-1742 232,-1706 296,-1706 296,-1742"/>
<text text-anchor="middle" x="264" y="-1721.2" font-family="Courier,monospace" font-size="11.00">Widgets</text>
</g>
</g>
</svg>
