<?xml version="1.0" encoding="UTF-8" standalone="no"?>
<!DOCTYPE svg PUBLIC "-//W3C//DTD SVG 1.1//EN"
 "http://www.w3.org/Graphics/SVG/1.1/DTD/svg11.dtd">
<!-- Generated by graphviz version 2.36.0 (20140111.2315)
 -->
<!-- Title: G Pages: 1 -->
<svg width="366pt" height="2280pt"
 viewBox="0.00 0.00 366.00 2280.00" xmlns="http://www.w3.org/2000/svg" xmlns:xlink="http://www.w3.org/1999/xlink">
<g id="graph0" class="graph" transform="scale(1 1) rotate(0) translate(4 2276)">
<title>G</title>
<polygon fill="white" stroke="none" points="-4,4 -4,-2276 362,-2276 362,4 -4,4"/>
<g id="clust1" class="cluster"><title>cluster_Global</title>
<path fill="none" stroke="gray" d="M20,-44C20,-44 338,-44 338,-44 344,-44 350,-50 350,-56 350,-56 350,-2252 350,-2252 350,-2258 344,-2264 338,-2264 338,-2264 20,-2264 20,-2264 14,-2264 8,-2258 8,-2252 8,-2252 8,-56 8,-56 8,-50 14,-44 20,-44"/>
<text text-anchor="middle" x="179" y="-2251.2" font-family="Times,serif" font-size="11.00" fill="gray">Global</text>
</g>
<g id="clust2" class="cluster"><title>cluster_\Core</title>
<path fill="none" stroke="gray" d="M190,-52C190,-52 330,-52 330,-52 336,-52 342,-58 342,-64 342,-64 342,-1569 342,-1569 342,-1575 336,-1581 330,-1581 330,-1581 190,-1581 190,-1581 184,-1581 178,-1575 178,-1569 178,-1569 178,-64 178,-64 178,-58 184,-52 190,-52"/>
<text text-anchor="middle" x="260" y="-1568.2" font-family="Times,serif" font-size="11.00" fill="gray">Core</text>
</g>
<g id="clust3" class="cluster"><title>cluster_\Drivers</title>
<path fill="none" stroke="gray" d="M28,-1589C28,-1589 313,-1589 313,-1589 319,-1589 325,-1595 325,-1601 325,-1601 325,-2225 325,-2225 325,-2231 319,-2237 313,-2237 313,-2237 28,-2237 28,-2237 22,-2237 16,-2231 16,-2225 16,-2225 16,-1601 16,-1601 16,-1595 22,-1589 28,-1589"/>
<text text-anchor="middle" x="170.5" y="-2224.2" font-family="Times,serif" font-size="11.00" fill="gray">Drivers</text>
</g>
<g id="clust4" class="cluster"><title>cluster_\Drivers\Database</title>
<path fill="none" stroke="gray" d="M36,-1834C36,-1834 305,-1834 305,-1834 311,-1834 317,-1840 317,-1846 317,-1846 317,-2198 317,-2198 317,-2204 311,-2210 305,-2210 305,-2210 36,-2210 36,-2210 30,-2210 24,-2204 24,-2198 24,-2198 24,-1846 24,-1846 24,-1840 30,-1834 36,-1834"/>
<text text-anchor="middle" x="170.5" y="-2197.2" font-family="Times,serif" font-size="11.00" fill="gray">Database</text>
</g>
<g id="clust5" class="cluster"><title>cluster_\Drivers\Database\PDO</title>
<path fill="none" stroke="gray" d="M223,-1842C223,-1842 297,-1842 297,-1842 303,-1842 309,-1848 309,-1854 309,-1854 309,-2171 309,-2171 309,-2177 303,-2183 297,-2183 297,-2183 223,-2183 223,-2183 217,-2183 211,-2177 211,-2171 211,-2171 211,-1854 211,-1854 211,-1848 217,-1842 223,-1842"/>
<text text-anchor="middle" x="260" y="-2170.2" font-family="Times,serif" font-size="11.00" fill="gray">PDO</text>
</g>
<g id="clust6" class="cluster"><title>cluster_\Drivers\Mail</title>
<path fill="none" stroke="gray" d="M233,-1755C233,-1755 287,-1755 287,-1755 293,-1755 299,-1761 299,-1767 299,-1767 299,-1814 299,-1814 299,-1820 293,-1826 287,-1826 287,-1826 233,-1826 233,-1826 227,-1826 221,-1820 221,-1814 221,-1814 221,-1767 221,-1767 221,-1761 227,-1755 233,-1755"/>
<text text-anchor="middle" x="260" y="-1813.2" font-family="Times,serif" font-size="11.00" fill="gray">Mail</text>
</g>
<g id="clust7" class="cluster"><title>cluster_\Drivers\Payment</title>
<path fill="none" stroke="gray" d="M233,-1676C233,-1676 287,-1676 287,-1676 293,-1676 299,-1682 299,-1688 299,-1688 299,-1735 299,-1735 299,-1741 293,-1747 287,-1747 287,-1747 233,-1747 233,-1747 227,-1747 221,-1741 221,-1735 221,-1735 221,-1688 221,-1688 221,-1682 227,-1676 233,-1676"/>
<text text-anchor="middle" x="260" y="-1734.2" font-family="Times,serif" font-size="11.00" fill="gray">Payment</text>
</g>
<g id="clust8" class="cluster"><title>cluster_\Drivers\SocialLogin</title>
<path fill="none" stroke="gray" d="M233,-1597C233,-1597 287,-1597 287,-1597 293,-1597 299,-1603 299,-1609 299,-1609 299,-1656 299,-1656 299,-1662 293,-1668 287,-1668 287,-1668 233,-1668 233,-1668 227,-1668 221,-1662 221,-1656 221,-1656 221,-1609 221,-1609 221,-1603 227,-1597 233,-1597"/>
<text text-anchor="middle" x="260" y="-1655.2" font-family="Times,serif" font-size="11.00" fill="gray">SocialLogin</text>
</g>
<!-- \\Core\\Conf -->
<g id="node1" class="node"><title>\\Core\\Conf</title>
<polygon fill="none" stroke="black" points="287,-1554 233,-1554 233,-1518 287,-1518 287,-1554"/>
<text text-anchor="middle" x="260" y="-1532.7" font-family="Courier,monospace" font-size="11.00">Conf</text>
</g>
<!-- \\Core\\Http -->
<g id="node2" class="node"><title>\\Core\\Http</title>
<polygon fill="none" stroke="black" points="287,-1500 233,-1500 233,-1464 287,-1464 287,-1500"/>
<text text-anchor="middle" x="260" y="-1478.7" font-family="Courier,monospace" font-size="11.00">Http</text>
</g>
<!-- \\Core\\Dir -->
<g id="node3" class="node"><title>\\Core\\Dir</title>
<polygon fill="none" stroke="black" points="287,-1446 233,-1446 233,-1410 287,-1410 287,-1446"/>
<text text-anchor="middle" x="260" y="-1424.7" font-family="Courier,monospace" font-size="11.00">Dir</text>
</g>
<!-- \\Core\\Cli -->
<g id="node4" class="node"><title>\\Core\\Cli</title>
<polygon fill="none" stroke="black" points="287,-1392 233,-1392 233,-1356 287,-1356 287,-1392"/>
<text text-anchor="middle" x="260" y="-1370.7" font-family="Courier,monospace" font-size="11.00">Cli</text>
</g>
<!-- \\Core\\Hash -->
<g id="node5" class="node"><title>\\Core\\Hash</title>
<polygon fill="none" stroke="black" points="287,-1338 233,-1338 233,-1302 287,-1302 287,-1338"/>
<text text-anchor="middle" x="260" y="-1316.7" font-family="Courier,monospace" font-size="11.00">Hash</text>
</g>
<!-- \\Core\\Ini -->
<g id="node6" class="node"><title>\\Core\\Ini</title>
<polygon fill="none" stroke="black" points="287,-1284 233,-1284 233,-1248 287,-1248 287,-1284"/>
<text text-anchor="middle" x="260" y="-1262.7" font-family="Courier,monospace" font-size="11.00">Ini</text>
</g>
<!-- \\Core\\Phone -->
<g id="node7" class="node"><title>\\Core\\Phone</title>
<polygon fill="none" stroke="black" points="287,-1230 233,-1230 233,-1194 287,-1194 287,-1230"/>
<text text-anchor="middle" x="260" y="-1208.7" font-family="Courier,monospace" font-size="11.00">Phone</text>
</g>
<!-- \\Core\\Session -->
<g id="node8" class="node"><title>\\Core\\Session</title>
<polygon fill="none" stroke="black" points="291.208,-1176 228.792,-1176 228.792,-1140 291.208,-1140 291.208,-1176"/>
<text text-anchor="middle" x="260" y="-1154.7" font-family="Courier,monospace" font-size="11.00">Session</text>
</g>
<!-- \\Core\\Argv -->
<g id="node9" class="node"><title>\\Core\\Argv</title>
<polygon fill="none" stroke="black" points="287,-1122 233,-1122 233,-1086 287,-1086 287,-1122"/>
<text text-anchor="middle" x="260" y="-1100.7" font-family="Courier,monospace" font-size="11.00">Argv</text>
</g>
<!-- \\Core\\View -->
<g id="node10" class="node"><title>\\Core\\View</title>
<polygon fill="none" stroke="black" points="287,-1068 233,-1068 233,-1032 287,-1032 287,-1068"/>
<text text-anchor="middle" x="260" y="-1046.7" font-family="Courier,monospace" font-size="11.00">View</text>
</g>
<!-- \\Core\\Redirect -->
<g id="node11" class="node"><title>\\Core\\Redirect</title>
<polygon fill="none" stroke="black" points="294.309,-1014 225.691,-1014 225.691,-978 294.309,-978 294.309,-1014"/>
<text text-anchor="middle" x="260" y="-992.7" font-family="Courier,monospace" font-size="11.00">Redirect</text>
</g>
<!-- \\Core\\Money -->
<g id="node12" class="node"><title>\\Core\\Money</title>
<polygon fill="none" stroke="black" points="287,-960 233,-960 233,-924 287,-924 287,-960"/>
<text text-anchor="middle" x="260" y="-938.7" font-family="Courier,monospace" font-size="11.00">Money</text>
</g>
<!-- \\Core\\ArrayTools -->
<g id="node13" class="node"><title>\\Core\\ArrayTools</title>
<polygon fill="none" stroke="black" points="301.011,-906 218.989,-906 218.989,-870 301.011,-870 301.011,-906"/>
<text text-anchor="middle" x="260" y="-884.7" font-family="Courier,monospace" font-size="11.00">ArrayTools</text>
</g>
<!-- \\Core\\Text -->
<g id="node14" class="node"><title>\\Core\\Text</title>
<polygon fill="none" stroke="black" points="287,-852 233,-852 233,-816 287,-816 287,-852"/>
<text text-anchor="middle" x="260" y="-830.7" font-family="Courier,monospace" font-size="11.00">Text</text>
</g>
<!-- \\Core\\Upload -->
<g id="node15" class="node"><title>\\Core\\Upload</title>
<polygon fill="none" stroke="black" points="287.608,-798 232.392,-798 232.392,-762 287.608,-762 287.608,-798"/>
<text text-anchor="middle" x="260" y="-776.7" font-family="Courier,monospace" font-size="11.00">Upload</text>
</g>
<!-- \\Core\\Number -->
<g id="node16" class="node"><title>\\Core\\Number</title>
<polygon fill="none" stroke="black" points="287.608,-744 232.392,-744 232.392,-708 287.608,-708 287.608,-744"/>
<text text-anchor="middle" x="260" y="-722.7" font-family="Courier,monospace" font-size="11.00">Number</text>
</g>
<!-- \\Core\\IP -->
<g id="node17" class="node"><title>\\Core\\IP</title>
<polygon fill="none" stroke="black" points="287,-690 233,-690 233,-654 287,-654 287,-690"/>
<text text-anchor="middle" x="260" y="-668.7" font-family="Courier,monospace" font-size="11.00">IP</text>
</g>
<!-- \\Core\\JSON -->
<g id="node18" class="node"><title>\\Core\\JSON</title>
<polygon fill="none" stroke="black" points="287,-636 233,-636 233,-600 287,-600 287,-636"/>
<text text-anchor="middle" x="260" y="-614.7" font-family="Courier,monospace" font-size="11.00">JSON</text>
</g>
<!-- \\Core\\Date -->
<g id="node19" class="node"><title>\\Core\\Date</title>
<polygon fill="none" stroke="black" points="287,-582 233,-582 233,-546 287,-546 287,-582"/>
<text text-anchor="middle" x="260" y="-560.7" font-family="Courier,monospace" font-size="11.00">Date</text>
</g>
<!-- \\Core\\Controller -->
<g id="node20" class="node"><title>\\Core\\Controller</title>
<polygon fill="none" stroke="black" points="301.011,-528 218.989,-528 218.989,-492 301.011,-492 301.011,-528"/>
<text text-anchor="middle" x="260" y="-506.7" font-family="Courier,monospace" font-size="11.00">Controller</text>
</g>
<!-- \\Core\\i18n -->
<g id="node21" class="node"><title>\\Core\\i18n</title>
<polygon fill="none" stroke="black" points="287,-474 233,-474 233,-438 287,-438 287,-474"/>
<text text-anchor="middle" x="260" y="-452.7" font-family="Courier,monospace" font-size="11.00">i18n</text>
</g>
<!-- \\Core\\Db -->
<g id="node22" class="node"><title>\\Core\\Db</title>
<polygon fill="none" stroke="black" points="287,-420 233,-420 233,-384 287,-384 287,-420"/>
<text text-anchor="middle" x="260" y="-398.7" font-family="Courier,monospace" font-size="11.00">Db</text>
</g>
<!-- \\Core\\Auth -->
<g id="node23" class="node"><title>\\Core\\Auth</title>
<polygon fill="none" stroke="black" points="287,-366 233,-366 233,-330 287,-330 287,-366"/>
<text text-anchor="middle" x="260" y="-344.7" font-family="Courier,monospace" font-size="11.00">Auth</text>
</g>
<!-- \\Core\\Countries -->
<g id="node24" class="node"><title>\\Core\\Countries</title>
<polygon fill="none" stroke="black" points="297.911,-312 222.089,-312 222.089,-276 297.911,-276 297.911,-312"/>
<text text-anchor="middle" x="260" y="-290.7" font-family="Courier,monospace" font-size="11.00">Countries</text>
</g>
<!-- \\Core\\ModelIterator -->
<g id="node25" class="node"><title>\\Core\\ModelIterator</title>
<polygon fill="none" stroke="black" points="310.814,-258 209.186,-258 209.186,-222 310.814,-222 310.814,-258"/>
<text text-anchor="middle" x="260" y="-236.7" font-family="Courier,monospace" font-size="11.00">ModelIterator</text>
</g>
<!-- \\Iterator -->
<g id="node43" class="node"><title>\\Iterator</title>
<ellipse fill="none" stroke="black" cx="73" cy="-18" rx="38.6695" ry="18"/>
<text text-anchor="middle" x="73" y="-13.8" font-family="Times,serif" font-size="14.00" fill="gray">\Iterator</text>
</g>
<!-- \\Core\\ModelIterator&#45;&gt;\\Iterator -->
<g id="edge6" class="edge"><title>\\Core\\ModelIterator&#45;&gt;\\Iterator</title>
<path fill="none" stroke="black" stroke-dasharray="1,5" d="M208.788,-229.812C197.804,-225.881 186.834,-220.46 178,-213 124.494,-167.814 94.4165,-87.9287 81.5598,-45.7984"/>
<polygon fill="none" stroke="black" points="84.8406,-44.549 78.6584,-35.9448 78.1256,-46.5263 84.8406,-44.549"/>
</g>
<!-- \\Core\\Model -->
<g id="node26" class="node"><title>\\Core\\Model</title>
<polygon fill="none" stroke="black" points="287,-204 233,-204 233,-168 287,-168 287,-204"/>
<text text-anchor="middle" x="260" y="-182.7" font-family="Courier,monospace" font-size="11.00">Model</text>
</g>
<!-- \\Core\\ConfData -->
<g id="node27" class="node"><title>\\Core\\ConfData</title>
<polygon fill="none" stroke="black" points="294.309,-150 225.691,-150 225.691,-114 294.309,-114 294.309,-150"/>
<text text-anchor="middle" x="260" y="-128.7" font-family="Courier,monospace" font-size="11.00">ConfData</text>
</g>
<!-- \\Core\\InstantiatedConfData -->
<g id="node28" class="node"><title>\\Core\\InstantiatedConfData</title>
<polygon fill="none" stroke="black" points="334.021,-96 185.979,-96 185.979,-60 334.021,-60 334.021,-96"/>
<text text-anchor="middle" x="260" y="-74.7" font-family="Courier,monospace" font-size="11.00">InstantiatedConfData</text>
</g>
<!-- \\Drivers\\Database\\PDO\\MongoToSQL -->
<g id="node29" class="node"><title>\\Drivers\\Database\\PDO\\MongoToSQL</title>
<polygon fill="none" stroke="black" points="301.011,-2156 218.989,-2156 218.989,-2120 301.011,-2120 301.011,-2156"/>
<text text-anchor="middle" x="260" y="-2134.7" font-family="Courier,monospace" font-size="11.00">MongoToSQL</text>
</g>
<!-- \\Drivers\\Database\\PDO\\Regex -->
<g id="node30" class="node"><title>\\Drivers\\Database\\PDO\\Regex</title>
<polygon fill="none" stroke="black" points="287,-1886 233,-1886 233,-1850 287,-1850 287,-1886"/>
<text text-anchor="middle" x="260" y="-1864.7" font-family="Courier,monospace" font-size="11.00">Regex</text>
</g>
<!-- \\Drivers\\Database\\Regex -->
<g id="node37" class="node"><title>\\Drivers\\Database\\Regex</title>
<polygon fill="none" stroke="black" points="100,-1886 46,-1886 46,-1850 100,-1850 100,-1886"/>
<text text-anchor="middle" x="73" y="-1864.7" font-family="Courier,monospace" font-size="11.00">Regex</text>
</g>
<!-- \\Drivers\\Database\\PDO\\Regex&#45;&gt;\\Drivers\\Database\\Regex -->
<g id="edge1" class="edge"><title>\\Drivers\\Database\\PDO\\Regex&#45;&gt;\\Drivers\\Database\\Regex</title>
<path fill="none" stroke="black" stroke-dasharray="1,5" d="M232.886,-1868C200.886,-1868 146.482,-1868 110.393,-1868"/>
<polygon fill="none" stroke="black" points="110.28,-1864.5 100.28,-1868 110.28,-1871.5 110.28,-1864.5"/>
</g>
<!-- \\Drivers\\Database\\PDO\\Id -->
<g id="node31" class="node"><title>\\Drivers\\Database\\PDO\\Id</title>
<polygon fill="none" stroke="black" points="287,-1940 233,-1940 233,-1904 287,-1904 287,-1940"/>
<text text-anchor="middle" x="260" y="-1918.7" font-family="Courier,monospace" font-size="11.00">Id</text>
</g>
<!-- \\Drivers\\Database\\Id -->
<g id="node39" class="node"><title>\\Drivers\\Database\\Id</title>
<polygon fill="none" stroke="black" points="100,-1940 46,-1940 46,-1904 100,-1904 100,-1940"/>
<text text-anchor="middle" x="73" y="-1918.7" font-family="Courier,monospace" font-size="11.00">Id</text>
</g>
<!-- \\Drivers\\Database\\PDO\\Id&#45;&gt;\\Drivers\\Database\\Id -->
<g id="edge2" class="edge"><title>\\Drivers\\Database\\PDO\\Id&#45;&gt;\\Drivers\\Database\\Id</title>
<path fill="none" stroke="black" stroke-dasharray="1,5" d="M232.886,-1922C200.886,-1922 146.482,-1922 110.393,-1922"/>
<polygon fill="none" stroke="black" points="110.28,-1918.5 100.28,-1922 110.28,-1925.5 110.28,-1918.5"/>
</g>
<!-- \\Drivers\\Database\\PDO\\Date -->
<g id="node32" class="node"><title>\\Drivers\\Database\\PDO\\Date</title>
<polygon fill="none" stroke="black" points="287,-1994 233,-1994 233,-1958 287,-1958 287,-1994"/>
<text text-anchor="middle" x="260" y="-1972.7" font-family="Courier,monospace" font-size="11.00">Date</text>
</g>
<!-- \\Drivers\\Database\\Date -->
<g id="node36" class="node"><title>\\Drivers\\Database\\Date</title>
<polygon fill="none" stroke="black" points="100,-1994 46,-1994 46,-1958 100,-1958 100,-1994"/>
<text text-anchor="middle" x="73" y="-1972.7" font-family="Courier,monospace" font-size="11.00">Date</text>
</g>
<!-- \\Drivers\\Database\\PDO\\Date&#45;&gt;\\Drivers\\Database\\Date -->
<g id="edge3" class="edge"><title>\\Drivers\\Database\\PDO\\Date&#45;&gt;\\Drivers\\Database\\Date</title>
<path fill="none" stroke="black" stroke-dasharray="1,5" d="M232.886,-1976C200.886,-1976 146.482,-1976 110.393,-1976"/>
<polygon fill="none" stroke="black" points="110.28,-1972.5 100.28,-1976 110.28,-1979.5 110.28,-1972.5"/>
</g>
<!-- \\Drivers\\Database\\PDO\\Collection -->
<g id="node33" class="node"><title>\\Drivers\\Database\\PDO\\Collection</title>
<polygon fill="none" stroke="black" points="301.011,-2048 218.989,-2048 218.989,-2012 301.011,-2012 301.011,-2048"/>
<text text-anchor="middle" x="260" y="-2026.7" font-family="Courier,monospace" font-size="11.00">Collection</text>
</g>
<!-- \\Drivers\\Database\\Collection -->
<g id="node38" class="node"><title>\\Drivers\\Database\\Collection</title>
<polygon fill="none" stroke="black" points="114.011,-2048 31.9893,-2048 31.9893,-2012 114.011,-2012 114.011,-2048"/>
<text text-anchor="middle" x="73" y="-2026.7" font-family="Courier,monospace" font-size="11.00">Collection</text>
</g>
<!-- \\Drivers\\Database\\PDO\\Collection&#45;&gt;\\Drivers\\Database\\Collection -->
<g id="edge4" class="edge"><title>\\Drivers\\Database\\PDO\\Collection&#45;&gt;\\Drivers\\Database\\Collection</title>
<path fill="none" stroke="black" stroke-dasharray="1,5" d="M218.858,-2030C191.1,-2030 153.963,-2030 124.24,-2030"/>
<polygon fill="none" stroke="black" points="124.064,-2026.5 114.064,-2030 124.064,-2033.5 124.064,-2026.5"/>
</g>
<!-- \\Drivers\\Database\\PDO\\Factory -->
<g id="node34" class="node"><title>\\Drivers\\Database\\PDO\\Factory</title>
<polygon fill="none" stroke="black" points="291.208,-2102 228.792,-2102 228.792,-2066 291.208,-2066 291.208,-2102"/>
<text text-anchor="middle" x="260" y="-2080.7" font-family="Courier,monospace" font-size="11.00">Factory</text>
</g>
<!-- \\Drivers\\Database\\Factory -->
<g id="node35" class="node"><title>\\Drivers\\Database\\Factory</title>
<polygon fill="none" stroke="black" points="104.208,-2102 41.7921,-2102 41.7921,-2066 104.208,-2066 104.208,-2102"/>
<text text-anchor="middle" x="73" y="-2080.7" font-family="Courier,monospace" font-size="11.00">Factory</text>
</g>
<!-- \\Drivers\\Database\\PDO\\Factory&#45;&gt;\\Drivers\\Database\\Factory -->
<g id="edge5" class="edge"><title>\\Drivers\\Database\\PDO\\Factory&#45;&gt;\\Drivers\\Database\\Factory</title>
<path fill="none" stroke="black" stroke-dasharray="1,5" d="M228.865,-2084C197.688,-2084 148.819,-2084 114.329,-2084"/>
<polygon fill="none" stroke="black" points="114.122,-2080.5 104.122,-2084 114.122,-2087.5 114.122,-2080.5"/>
</g>
<!-- \\Drivers\\Mail\\Factory -->
<g id="node40" class="node"><title>\\Drivers\\Mail\\Factory</title>
<polygon fill="none" stroke="black" points="291.208,-1799 228.792,-1799 228.792,-1763 291.208,-1763 291.208,-1799"/>
<text text-anchor="middle" x="260" y="-1777.7" font-family="Courier,monospace" font-size="11.00">Factory</text>
</g>
<!-- \\Drivers\\Payment\\Factory -->
<g id="node41" class="node"><title>\\Drivers\\Payment\\Factory</title>
<polygon fill="none" stroke="black" points="291.208,-1720 228.792,-1720 228.792,-1684 291.208,-1684 291.208,-1720"/>
<text text-anchor="middle" x="260" y="-1698.7" font-family="Courier,monospace" font-size="11.00">Factory</text>
</g>
<!-- \\Drivers\\SocialLogin\\Factory -->
<g id="node42" class="node"><title>\\Drivers\\SocialLogin\\Factory</title>
<polygon fill="none" stroke="black" points="291.208,-1641 228.792,-1641 228.792,-1605 291.208,-1605 291.208,-1641"/>
<text text-anchor="middle" x="260" y="-1619.7" font-family="Courier,monospace" font-size="11.00">Factory</text>
</g>
</g>
</svg>
