<?xml version="1.0" encoding="UTF-8" standalone="no"?>
<!DOCTYPE svg PUBLIC "-//W3C//DTD SVG 1.1//EN"
 "http://www.w3.org/Graphics/SVG/1.1/DTD/svg11.dtd">
<!-- Generated by graphviz version 2.36.0 (20140111.2315)
 -->
<!-- Title: G Pages: 1 -->
<svg width="380pt" height="2378pt"
 viewBox="0.00 0.00 380.00 2378.00" xmlns="http://www.w3.org/2000/svg" xmlns:xlink="http://www.w3.org/1999/xlink">
<g id="graph0" class="graph" transform="scale(1 1) rotate(0) translate(4 2374)">
<title>G</title>
<polygon fill="white" stroke="none" points="-4,4 -4,-2374 376,-2374 376,4 -4,4"/>
<g id="clust1" class="cluster"><title>cluster_Global</title>
<path fill="none" stroke="gray" d="M20,-44C20,-44 352,-44 352,-44 358,-44 364,-50 364,-56 364,-56 364,-2350 364,-2350 364,-2356 358,-2362 352,-2362 352,-2362 20,-2362 20,-2362 14,-2362 8,-2356 8,-2350 8,-2350 8,-56 8,-56 8,-50 14,-44 20,-44"/>
<text text-anchor="middle" x="186" y="-2349.2" font-family="Times,serif" font-size="11.00" fill="gray">Global</text>
</g>
<g id="clust2" class="cluster"><title>cluster_\Core</title>
<path fill="none" stroke="gray" d="M200,-52C200,-52 344,-52 344,-52 350,-52 356,-58 356,-64 356,-64 356,-1624 356,-1624 356,-1630 350,-1636 344,-1636 344,-1636 200,-1636 200,-1636 194,-1636 188,-1630 188,-1624 188,-1624 188,-64 188,-64 188,-58 194,-52 200,-52"/>
<text text-anchor="middle" x="272" y="-1623.2" font-family="Times,serif" font-size="11.00" fill="gray">Core</text>
</g>
<g id="clust3" class="cluster"><title>cluster_\Drivers</title>
<path fill="none" stroke="gray" d="M28,-1644C28,-1644 326,-1644 326,-1644 332,-1644 338,-1650 338,-1656 338,-1656 338,-2322 338,-2322 338,-2328 332,-2334 326,-2334 326,-2334 28,-2334 28,-2334 22,-2334 16,-2328 16,-2322 16,-2322 16,-1656 16,-1656 16,-1650 22,-1644 28,-1644"/>
<text text-anchor="middle" x="177" y="-2321.2" font-family="Times,serif" font-size="11.00" fill="gray">Drivers</text>
</g>
<g id="clust4" class="cluster"><title>cluster_\Drivers\Mail</title>
<path fill="none" stroke="gray" d="M46,-2198C46,-2198 308,-2198 308,-2198 314,-2198 320,-2204 320,-2210 320,-2210 320,-2294 320,-2294 320,-2300 314,-2306 308,-2306 308,-2306 46,-2306 46,-2306 40,-2306 34,-2300 34,-2294 34,-2294 34,-2210 34,-2210 34,-2204 40,-2198 46,-2198"/>
<text text-anchor="middle" x="177" y="-2293.2" font-family="Times,serif" font-size="11.00" fill="gray">Mail</text>
</g>
<g id="clust5" class="cluster"><title>cluster_\Drivers\Mail\System</title>
<path fill="none" stroke="gray" d="M244,-2206C244,-2206 300,-2206 300,-2206 306,-2206 312,-2212 312,-2218 312,-2218 312,-2266 312,-2266 312,-2272 306,-2278 300,-2278 300,-2278 244,-2278 244,-2278 238,-2278 232,-2272 232,-2266 232,-2266 232,-2218 232,-2218 232,-2212 238,-2206 244,-2206"/>
<text text-anchor="middle" x="272" y="-2265.2" font-family="Times,serif" font-size="11.00" fill="gray">System</text>
</g>
<g id="clust6" class="cluster"><title>cluster_\Drivers\Database</title>
<path fill="none" stroke="gray" d="M36,-1812C36,-1812 318,-1812 318,-1812 324,-1812 330,-1818 330,-1824 330,-1824 330,-2178 330,-2178 330,-2184 324,-2190 318,-2190 318,-2190 36,-2190 36,-2190 30,-2190 24,-2184 24,-2178 24,-2178 24,-1824 24,-1824 24,-1818 30,-1812 36,-1812"/>
<text text-anchor="middle" x="177" y="-2177.2" font-family="Times,serif" font-size="11.00" fill="gray">Database</text>
</g>
<g id="clust7" class="cluster"><title>cluster_\Drivers\Database\PDO</title>
<path fill="none" stroke="gray" d="M234,-1820C234,-1820 310,-1820 310,-1820 316,-1820 322,-1826 322,-1832 322,-1832 322,-2150 322,-2150 322,-2156 316,-2162 310,-2162 310,-2162 234,-2162 234,-2162 228,-2162 222,-2156 222,-2150 222,-2150 222,-1832 222,-1832 222,-1826 228,-1820 234,-1820"/>
<text text-anchor="middle" x="272" y="-2149.2" font-family="Times,serif" font-size="11.00" fill="gray">PDO</text>
</g>
<g id="clust8" class="cluster"><title>cluster_\Drivers\Payment</title>
<path fill="none" stroke="gray" d="M244,-1732C244,-1732 300,-1732 300,-1732 306,-1732 312,-1738 312,-1744 312,-1744 312,-1792 312,-1792 312,-1798 306,-1804 300,-1804 300,-1804 244,-1804 244,-1804 238,-1804 232,-1798 232,-1792 232,-1792 232,-1744 232,-1744 232,-1738 238,-1732 244,-1732"/>
<text text-anchor="middle" x="272" y="-1791.2" font-family="Times,serif" font-size="11.00" fill="gray">Payment</text>
</g>
<g id="clust9" class="cluster"><title>cluster_\Drivers\SocialLogin</title>
<path fill="none" stroke="gray" d="M240,-1652C240,-1652 303,-1652 303,-1652 309,-1652 315,-1658 315,-1664 315,-1664 315,-1712 315,-1712 315,-1718 309,-1724 303,-1724 303,-1724 240,-1724 240,-1724 234,-1724 228,-1718 228,-1712 228,-1712 228,-1664 228,-1664 228,-1658 234,-1652 240,-1652"/>
<text text-anchor="middle" x="271.5" y="-1711.2" font-family="Times,serif" font-size="11.00" fill="gray">SocialLogin</text>
</g>
<!-- \\Core\\Conf -->
<g id="node1" class="node"><title>\\Core\\Conf</title>
<polygon fill="none" stroke="black" points="299,-1608 245,-1608 245,-1572 299,-1572 299,-1608"/>
<text text-anchor="middle" x="272" y="-1587.2" font-family="Courier,monospace" font-size="11.00">Conf</text>
</g>
<!-- \\Core\\Http -->
<g id="node2" class="node"><title>\\Core\\Http</title>
<polygon fill="none" stroke="black" points="299,-1554 245,-1554 245,-1518 299,-1518 299,-1554"/>
<text text-anchor="middle" x="272" y="-1533.2" font-family="Courier,monospace" font-size="11.00">Http</text>
</g>
<!-- \\Core\\Dir -->
<g id="node3" class="node"><title>\\Core\\Dir</title>
<polygon fill="none" stroke="black" points="299,-1500 245,-1500 245,-1464 299,-1464 299,-1500"/>
<text text-anchor="middle" x="272" y="-1479.2" font-family="Courier,monospace" font-size="11.00">Dir</text>
</g>
<!-- \\Core\\Cli -->
<g id="node4" class="node"><title>\\Core\\Cli</title>
<polygon fill="none" stroke="black" points="299,-1446 245,-1446 245,-1410 299,-1410 299,-1446"/>
<text text-anchor="middle" x="272" y="-1425.2" font-family="Courier,monospace" font-size="11.00">Cli</text>
</g>
<!-- \\Core\\Hash -->
<g id="node5" class="node"><title>\\Core\\Hash</title>
<polygon fill="none" stroke="black" points="299,-1392 245,-1392 245,-1356 299,-1356 299,-1392"/>
<text text-anchor="middle" x="272" y="-1371.2" font-family="Courier,monospace" font-size="11.00">Hash</text>
</g>
<!-- \\Core\\Ini -->
<g id="node6" class="node"><title>\\Core\\Ini</title>
<polygon fill="none" stroke="black" points="299,-1338 245,-1338 245,-1302 299,-1302 299,-1338"/>
<text text-anchor="middle" x="272" y="-1317.2" font-family="Courier,monospace" font-size="11.00">Ini</text>
</g>
<!-- \\Core\\Phone -->
<g id="node7" class="node"><title>\\Core\\Phone</title>
<polygon fill="none" stroke="black" points="299,-1284 245,-1284 245,-1248 299,-1248 299,-1284"/>
<text text-anchor="middle" x="272" y="-1263.2" font-family="Courier,monospace" font-size="11.00">Phone</text>
</g>
<!-- \\Core\\Session -->
<g id="node8" class="node"><title>\\Core\\Session</title>
<polygon fill="none" stroke="black" points="304,-1230 240,-1230 240,-1194 304,-1194 304,-1230"/>
<text text-anchor="middle" x="272" y="-1209.2" font-family="Courier,monospace" font-size="11.00">Session</text>
</g>
<!-- \\Core\\Argv -->
<g id="node9" class="node"><title>\\Core\\Argv</title>
<polygon fill="none" stroke="black" points="299,-1176 245,-1176 245,-1140 299,-1140 299,-1176"/>
<text text-anchor="middle" x="272" y="-1155.2" font-family="Courier,monospace" font-size="11.00">Argv</text>
</g>
<!-- \\Core\\View -->
<g id="node10" class="node"><title>\\Core\\View</title>
<polygon fill="none" stroke="black" points="299,-1122 245,-1122 245,-1086 299,-1086 299,-1122"/>
<text text-anchor="middle" x="272" y="-1101.2" font-family="Courier,monospace" font-size="11.00">View</text>
</g>
<!-- \\Core\\Redirect -->
<g id="node11" class="node"><title>\\Core\\Redirect</title>
<polygon fill="none" stroke="black" points="307.5,-1068 236.5,-1068 236.5,-1032 307.5,-1032 307.5,-1068"/>
<text text-anchor="middle" x="272" y="-1047.2" font-family="Courier,monospace" font-size="11.00">Redirect</text>
</g>
<!-- \\Core\\Money -->
<g id="node12" class="node"><title>\\Core\\Money</title>
<polygon fill="none" stroke="black" points="299,-1014 245,-1014 245,-978 299,-978 299,-1014"/>
<text text-anchor="middle" x="272" y="-993.2" font-family="Courier,monospace" font-size="11.00">Money</text>
</g>
<!-- \\Core\\ArrayTools -->
<g id="node13" class="node"><title>\\Core\\ArrayTools</title>
<polygon fill="none" stroke="black" points="314,-960 230,-960 230,-924 314,-924 314,-960"/>
<text text-anchor="middle" x="272" y="-939.2" font-family="Courier,monospace" font-size="11.00">ArrayTools</text>
</g>
<!-- \\Core\\Text -->
<g id="node14" class="node"><title>\\Core\\Text</title>
<polygon fill="none" stroke="black" points="299,-906 245,-906 245,-870 299,-870 299,-906"/>
<text text-anchor="middle" x="272" y="-885.2" font-family="Courier,monospace" font-size="11.00">Text</text>
</g>
<!-- \\Core\\Upload -->
<g id="node15" class="node"><title>\\Core\\Upload</title>
<polygon fill="none" stroke="black" points="300.5,-852 243.5,-852 243.5,-816 300.5,-816 300.5,-852"/>
<text text-anchor="middle" x="272" y="-831.2" font-family="Courier,monospace" font-size="11.00">Upload</text>
</g>
<!-- \\Core\\Number -->
<g id="node16" class="node"><title>\\Core\\Number</title>
<polygon fill="none" stroke="black" points="300.5,-798 243.5,-798 243.5,-762 300.5,-762 300.5,-798"/>
<text text-anchor="middle" x="272" y="-777.2" font-family="Courier,monospace" font-size="11.00">Number</text>
</g>
<!-- \\Core\\IP -->
<g id="node17" class="node"><title>\\Core\\IP</title>
<polygon fill="none" stroke="black" points="299,-744 245,-744 245,-708 299,-708 299,-744"/>
<text text-anchor="middle" x="272" y="-723.2" font-family="Courier,monospace" font-size="11.00">IP</text>
</g>
<!-- \\Core\\JSON -->
<g id="node18" class="node"><title>\\Core\\JSON</title>
<polygon fill="none" stroke="black" points="299,-690 245,-690 245,-654 299,-654 299,-690"/>
<text text-anchor="middle" x="272" y="-669.2" font-family="Courier,monospace" font-size="11.00">JSON</text>
</g>
<!-- \\Core\\Date -->
<g id="node19" class="node"><title>\\Core\\Date</title>
<polygon fill="none" stroke="black" points="299,-636 245,-636 245,-600 299,-600 299,-636"/>
<text text-anchor="middle" x="272" y="-615.2" font-family="Courier,monospace" font-size="11.00">Date</text>
</g>
<!-- \\Core\\Controller -->
<g id="node20" class="node"><title>\\Core\\Controller</title>
<polygon fill="none" stroke="black" points="314,-582 230,-582 230,-546 314,-546 314,-582"/>
<text text-anchor="middle" x="272" y="-561.2" font-family="Courier,monospace" font-size="11.00">Controller</text>
</g>
<!-- \\Core\\i18n -->
<g id="node21" class="node"><title>\\Core\\i18n</title>
<polygon fill="none" stroke="black" points="299,-528 245,-528 245,-492 299,-492 299,-528"/>
<text text-anchor="middle" x="272" y="-507.2" font-family="Courier,monospace" font-size="11.00">i18n</text>
</g>
<!-- \\Core\\Db -->
<g id="node22" class="node"><title>\\Core\\Db</title>
<polygon fill="none" stroke="black" points="299,-474 245,-474 245,-438 299,-438 299,-474"/>
<text text-anchor="middle" x="272" y="-453.2" font-family="Courier,monospace" font-size="11.00">Db</text>
</g>
<!-- \\Core\\Auth -->
<g id="node23" class="node"><title>\\Core\\Auth</title>
<polygon fill="none" stroke="black" points="299,-420 245,-420 245,-384 299,-384 299,-420"/>
<text text-anchor="middle" x="272" y="-399.2" font-family="Courier,monospace" font-size="11.00">Auth</text>
</g>
<!-- \\Core\\Countries -->
<g id="node24" class="node"><title>\\Core\\Countries</title>
<polygon fill="none" stroke="black" points="310.5,-366 233.5,-366 233.5,-330 310.5,-330 310.5,-366"/>
<text text-anchor="middle" x="272" y="-345.2" font-family="Courier,monospace" font-size="11.00">Countries</text>
</g>
<!-- \\Core\\ModelIterator -->
<g id="node25" class="node"><title>\\Core\\ModelIterator</title>
<polygon fill="none" stroke="black" points="324,-312 220,-312 220,-276 324,-276 324,-312"/>
<text text-anchor="middle" x="272" y="-291.2" font-family="Courier,monospace" font-size="11.00">ModelIterator</text>
</g>
<!-- \\Iterator -->
<g id="node45" class="node"><title>\\Iterator</title>
<ellipse fill="none" stroke="black" cx="74" cy="-18" rx="50.0912" ry="18"/>
<text text-anchor="middle" x="74" y="-14.3" font-family="Times,serif" font-size="14.00" fill="gray">\Iterator</text>
</g>
<!-- \\Core\\ModelIterator&#45;&gt;\\Iterator -->
<g id="edge7" class="edge"><title>\\Core\\ModelIterator&#45;&gt;\\Iterator</title>
<path fill="none" stroke="black" stroke-dasharray="1,5" d="M219.631,-284.571C208.243,-280.606 196.923,-274.98 188,-267 120.275,-206.435 90.6558,-97.2584 80.0187,-46.0049"/>
<polygon fill="none" stroke="black" points="83.41,-45.1128 78.0301,-35.9855 76.544,-46.4756 83.41,-45.1128"/>
</g>
<!-- \\Core\\Mail -->
<g id="node26" class="node"><title>\\Core\\Mail</title>
<polygon fill="none" stroke="black" points="299,-258 245,-258 245,-222 299,-222 299,-258"/>
<text text-anchor="middle" x="272" y="-237.2" font-family="Courier,monospace" font-size="11.00">Mail</text>
</g>
<!-- \\Core\\Model -->
<g id="node27" class="node"><title>\\Core\\Model</title>
<polygon fill="none" stroke="black" points="299,-204 245,-204 245,-168 299,-168 299,-204"/>
<text text-anchor="middle" x="272" y="-183.2" font-family="Courier,monospace" font-size="11.00">Model</text>
</g>
<!-- \\Core\\ConfData -->
<g id="node28" class="node"><title>\\Core\\ConfData</title>
<polygon fill="none" stroke="black" points="307.5,-150 236.5,-150 236.5,-114 307.5,-114 307.5,-150"/>
<text text-anchor="middle" x="272" y="-129.2" font-family="Courier,monospace" font-size="11.00">ConfData</text>
</g>
<!-- \\Core\\InstantiatedConfData -->
<g id="node29" class="node"><title>\\Core\\InstantiatedConfData</title>
<polygon fill="none" stroke="black" points="348,-96 196,-96 196,-60 348,-60 348,-96"/>
<text text-anchor="middle" x="272" y="-75.2" font-family="Courier,monospace" font-size="11.00">InstantiatedConfData</text>
</g>
<!-- \\Drivers\\Mail\\System\\Factory -->
<g id="node30" class="node"><title>\\Drivers\\Mail\\System\\Factory</title>
<polygon fill="none" stroke="black" points="304,-2250 240,-2250 240,-2214 304,-2214 304,-2250"/>
<text text-anchor="middle" x="272" y="-2229.2" font-family="Courier,monospace" font-size="11.00">Factory</text>
</g>
<!-- \\Drivers\\Mail\\Factory -->
<g id="node31" class="node"><title>\\Drivers\\Mail\\Factory</title>
<polygon fill="none" stroke="black" points="106,-2250 42,-2250 42,-2214 106,-2214 106,-2250"/>
<text text-anchor="middle" x="74" y="-2229.2" font-family="Courier,monospace" font-size="11.00">Factory</text>
</g>
<!-- \\Drivers\\Mail\\System\\Factory&#45;&gt;\\Drivers\\Mail\\Factory -->
<g id="edge1" class="edge"><title>\\Drivers\\Mail\\System\\Factory&#45;&gt;\\Drivers\\Mail\\Factory</title>
<path fill="none" stroke="black" stroke-dasharray="1,5" d="M239.943,-2232C206.638,-2232 153.574,-2232 116.66,-2232"/>
<polygon fill="none" stroke="black" points="116.235,-2228.5 106.235,-2232 116.235,-2235.5 116.235,-2228.5"/>
</g>
<!-- \\Drivers\\Database\\PDO\\MongoToSQL -->
<g id="node32" class="node"><title>\\Drivers\\Database\\PDO\\MongoToSQL</title>
<polygon fill="none" stroke="black" points="314,-2134 230,-2134 230,-2098 314,-2098 314,-2134"/>
<text text-anchor="middle" x="272" y="-2113.2" font-family="Courier,monospace" font-size="11.00">MongoToSQL</text>
</g>
<!-- \\Drivers\\Database\\PDO\\Regex -->
<g id="node33" class="node"><title>\\Drivers\\Database\\PDO\\Regex</title>
<polygon fill="none" stroke="black" points="299,-1864 245,-1864 245,-1828 299,-1828 299,-1864"/>
<text text-anchor="middle" x="272" y="-1843.2" font-family="Courier,monospace" font-size="11.00">Regex</text>
</g>
<!-- \\Drivers\\Database\\Regex -->
<g id="node40" class="node"><title>\\Drivers\\Database\\Regex</title>
<polygon fill="none" stroke="black" points="101,-1864 47,-1864 47,-1828 101,-1828 101,-1864"/>
<text text-anchor="middle" x="74" y="-1843.2" font-family="Courier,monospace" font-size="11.00">Regex</text>
</g>
<!-- \\Drivers\\Database\\PDO\\Regex&#45;&gt;\\Drivers\\Database\\Regex -->
<g id="edge2" class="edge"><title>\\Drivers\\Database\\PDO\\Regex&#45;&gt;\\Drivers\\Database\\Regex</title>
<path fill="none" stroke="black" stroke-dasharray="1,5" d="M244.973,-1846C210.707,-1846 150.277,-1846 111.468,-1846"/>
<polygon fill="none" stroke="black" points="111.135,-1842.5 101.135,-1846 111.135,-1849.5 111.135,-1842.5"/>
</g>
<!-- \\Drivers\\Database\\PDO\\Id -->
<g id="node34" class="node"><title>\\Drivers\\Database\\PDO\\Id</title>
<polygon fill="none" stroke="black" points="299,-1918 245,-1918 245,-1882 299,-1882 299,-1918"/>
<text text-anchor="middle" x="272" y="-1897.2" font-family="Courier,monospace" font-size="11.00">Id</text>
</g>
<!-- \\Drivers\\Database\\Id -->
<g id="node42" class="node"><title>\\Drivers\\Database\\Id</title>
<polygon fill="none" stroke="black" points="101,-1918 47,-1918 47,-1882 101,-1882 101,-1918"/>
<text text-anchor="middle" x="74" y="-1897.2" font-family="Courier,monospace" font-size="11.00">Id</text>
</g>
<!-- \\Drivers\\Database\\PDO\\Id&#45;&gt;\\Drivers\\Database\\Id -->
<g id="edge3" class="edge"><title>\\Drivers\\Database\\PDO\\Id&#45;&gt;\\Drivers\\Database\\Id</title>
<path fill="none" stroke="black" stroke-dasharray="1,5" d="M244.973,-1900C210.707,-1900 150.277,-1900 111.468,-1900"/>
<polygon fill="none" stroke="black" points="111.135,-1896.5 101.135,-1900 111.135,-1903.5 111.135,-1896.5"/>
</g>
<!-- \\Drivers\\Database\\PDO\\Date -->
<g id="node35" class="node"><title>\\Drivers\\Database\\PDO\\Date</title>
<polygon fill="none" stroke="black" points="299,-1972 245,-1972 245,-1936 299,-1936 299,-1972"/>
<text text-anchor="middle" x="272" y="-1951.2" font-family="Courier,monospace" font-size="11.00">Date</text>
</g>
<!-- \\Drivers\\Database\\Date -->
<g id="node39" class="node"><title>\\Drivers\\Database\\Date</title>
<polygon fill="none" stroke="black" points="101,-1972 47,-1972 47,-1936 101,-1936 101,-1972"/>
<text text-anchor="middle" x="74" y="-1951.2" font-family="Courier,monospace" font-size="11.00">Date</text>
</g>
<!-- \\Drivers\\Database\\PDO\\Date&#45;&gt;\\Drivers\\Database\\Date -->
<g id="edge4" class="edge"><title>\\Drivers\\Database\\PDO\\Date&#45;&gt;\\Drivers\\Database\\Date</title>
<path fill="none" stroke="black" stroke-dasharray="1,5" d="M244.973,-1954C210.707,-1954 150.277,-1954 111.468,-1954"/>
<polygon fill="none" stroke="black" points="111.135,-1950.5 101.135,-1954 111.135,-1957.5 111.135,-1950.5"/>
</g>
<!-- \\Drivers\\Database\\PDO\\Collection -->
<g id="node36" class="node"><title>\\Drivers\\Database\\PDO\\Collection</title>
<polygon fill="none" stroke="black" points="314,-2026 230,-2026 230,-1990 314,-1990 314,-2026"/>
<text text-anchor="middle" x="272" y="-2005.2" font-family="Courier,monospace" font-size="11.00">Collection</text>
</g>
<!-- \\Drivers\\Database\\Collection -->
<g id="node41" class="node"><title>\\Drivers\\Database\\Collection</title>
<polygon fill="none" stroke="black" points="116,-2026 32,-2026 32,-1990 116,-1990 116,-2026"/>
<text text-anchor="middle" x="74" y="-2005.2" font-family="Courier,monospace" font-size="11.00">Collection</text>
</g>
<!-- \\Drivers\\Database\\PDO\\Collection&#45;&gt;\\Drivers\\Database\\Collection -->
<g id="edge5" class="edge"><title>\\Drivers\\Database\\PDO\\Collection&#45;&gt;\\Drivers\\Database\\Collection</title>
<path fill="none" stroke="black" stroke-dasharray="1,5" d="M229.912,-2008C199.727,-2008 158.519,-2008 126.192,-2008"/>
<polygon fill="none" stroke="black" points="126.034,-2004.5 116.034,-2008 126.034,-2011.5 126.034,-2004.5"/>
</g>
<!-- \\Drivers\\Database\\PDO\\Factory -->
<g id="node37" class="node"><title>\\Drivers\\Database\\PDO\\Factory</title>
<polygon fill="none" stroke="black" points="304,-2080 240,-2080 240,-2044 304,-2044 304,-2080"/>
<text text-anchor="middle" x="272" y="-2059.2" font-family="Courier,monospace" font-size="11.00">Factory</text>
</g>
<!-- \\Drivers\\Database\\Factory -->
<g id="node38" class="node"><title>\\Drivers\\Database\\Factory</title>
<polygon fill="none" stroke="black" points="106,-2080 42,-2080 42,-2044 106,-2044 106,-2080"/>
<text text-anchor="middle" x="74" y="-2059.2" font-family="Courier,monospace" font-size="11.00">Factory</text>
</g>
<!-- \\Drivers\\Database\\PDO\\Factory&#45;&gt;\\Drivers\\Database\\Factory -->
<g id="edge6" class="edge"><title>\\Drivers\\Database\\PDO\\Factory&#45;&gt;\\Drivers\\Database\\Factory</title>
<path fill="none" stroke="black" stroke-dasharray="1,5" d="M239.943,-2062C206.638,-2062 153.574,-2062 116.66,-2062"/>
<polygon fill="none" stroke="black" points="116.235,-2058.5 106.235,-2062 116.235,-2065.5 116.235,-2058.5"/>
</g>
<!-- \\Drivers\\Payment\\Factory -->
<g id="node43" class="node"><title>\\Drivers\\Payment\\Factory</title>
<polygon fill="none" stroke="black" points="304,-1776 240,-1776 240,-1740 304,-1740 304,-1776"/>
<text text-anchor="middle" x="272" y="-1755.2" font-family="Courier,monospace" font-size="11.00">Factory</text>
</g>
<!-- \\Drivers\\SocialLogin\\Factory -->
<g id="node44" class="node"><title>\\Drivers\\SocialLogin\\Factory</title>
<polygon fill="none" stroke="black" points="304,-1696 240,-1696 240,-1660 304,-1660 304,-1696"/>
<text text-anchor="middle" x="272" y="-1675.2" font-family="Courier,monospace" font-size="11.00">Factory</text>
</g>
</g>
</svg>
