<?xml version="1.0" encoding="UTF-8" standalone="no"?>
<!DOCTYPE svg PUBLIC "-//W3C//DTD SVG 1.1//EN"
 "http://www.w3.org/Graphics/SVG/1.1/DTD/svg11.dtd">
<!-- Generated by graphviz version 2.36.0 (20140111.2315)
 -->
<!-- Title: G Pages: 1 -->
<svg width="372pt" height="1904pt"
 viewBox="0.00 0.00 372.00 1904.00" xmlns="http://www.w3.org/2000/svg" xmlns:xlink="http://www.w3.org/1999/xlink">
<g id="graph0" class="graph" transform="scale(1 1) rotate(0) translate(4 1900)">
<title>G</title>
<polygon fill="white" stroke="none" points="-4,4 -4,-1900 368,-1900 368,4 -4,4"/>
<g id="clust1" class="cluster"><title>cluster_Global</title>
<path fill="none" stroke="gray" d="M20,-8C20,-8 344,-8 344,-8 350,-8 356,-14 356,-20 356,-20 356,-1876 356,-1876 356,-1882 350,-1888 344,-1888 344,-1888 20,-1888 20,-1888 14,-1888 8,-1882 8,-1876 8,-1876 8,-20 8,-20 8,-14 14,-8 20,-8"/>
<text text-anchor="middle" x="182" y="-1875.2" font-family="Times,serif" font-size="11.00" fill="gray">Global</text>
</g>
<g id="clust2" class="cluster"><title>cluster_\Core</title>
<path fill="none" stroke="gray" d="M192,-438C192,-438 336,-438 336,-438 342,-438 348,-444 348,-450 348,-450 348,-1848 348,-1848 348,-1854 342,-1860 336,-1860 336,-1860 192,-1860 192,-1860 186,-1860 180,-1854 180,-1848 180,-1848 180,-450 180,-450 180,-444 186,-438 192,-438"/>
<text text-anchor="middle" x="264" y="-1847.2" font-family="Times,serif" font-size="11.00" fill="gray">Core</text>
</g>
<g id="clust3" class="cluster"><title>cluster_\Drivers</title>
<path fill="none" stroke="gray" d="M28,-16C28,-16 318,-16 318,-16 324,-16 330,-22 330,-28 330,-28 330,-418 330,-418 330,-424 324,-430 318,-430 318,-430 28,-430 28,-430 22,-430 16,-424 16,-418 16,-418 16,-28 16,-28 16,-22 22,-16 28,-16"/>
<text text-anchor="middle" x="173" y="-417.2" font-family="Times,serif" font-size="11.00" fill="gray">Drivers</text>
</g>
<g id="clust4" class="cluster"><title>cluster_\Drivers\Database</title>
<path fill="none" stroke="gray" d="M36,-24C36,-24 310,-24 310,-24 316,-24 322,-30 322,-36 322,-36 322,-390 322,-390 322,-396 316,-402 310,-402 310,-402 36,-402 36,-402 30,-402 24,-396 24,-390 24,-390 24,-36 24,-36 24,-30 30,-24 36,-24"/>
<text text-anchor="middle" x="173" y="-389.2" font-family="Times,serif" font-size="11.00" fill="gray">Database</text>
</g>
<g id="clust5" class="cluster"><title>cluster_\Drivers\Database\PDO</title>
<path fill="none" stroke="gray" d="M226,-32C226,-32 302,-32 302,-32 308,-32 314,-38 314,-44 314,-44 314,-362 314,-362 314,-368 308,-374 302,-374 302,-374 226,-374 226,-374 220,-374 214,-368 214,-362 214,-362 214,-44 214,-44 214,-38 220,-32 226,-32"/>
<text text-anchor="middle" x="264" y="-361.2" font-family="Times,serif" font-size="11.00" fill="gray">PDO</text>
</g>
<!-- \\Core\\Conf -->
<g id="node1" class="node"><title>\\Core\\Conf</title>
<polygon fill="none" stroke="black" points="291,-1832 237,-1832 237,-1796 291,-1796 291,-1832"/>
<text text-anchor="middle" x="264" y="-1811.2" font-family="Courier,monospace" font-size="11.00">Conf</text>
</g>
<!-- \\Core\\Http -->
<g id="node2" class="node"><title>\\Core\\Http</title>
<polygon fill="none" stroke="black" points="291,-1778 237,-1778 237,-1742 291,-1742 291,-1778"/>
<text text-anchor="middle" x="264" y="-1757.2" font-family="Courier,monospace" font-size="11.00">Http</text>
</g>
<!-- \\Core\\Dir -->
<g id="node3" class="node"><title>\\Core\\Dir</title>
<polygon fill="none" stroke="black" points="291,-1724 237,-1724 237,-1688 291,-1688 291,-1724"/>
<text text-anchor="middle" x="264" y="-1703.2" font-family="Courier,monospace" font-size="11.00">Dir</text>
</g>
<!-- \\Core\\Cli -->
<g id="node4" class="node"><title>\\Core\\Cli</title>
<polygon fill="none" stroke="black" points="291,-1670 237,-1670 237,-1634 291,-1634 291,-1670"/>
<text text-anchor="middle" x="264" y="-1649.2" font-family="Courier,monospace" font-size="11.00">Cli</text>
</g>
<!-- \\Core\\Hash -->
<g id="node5" class="node"><title>\\Core\\Hash</title>
<polygon fill="none" stroke="black" points="291,-1616 237,-1616 237,-1580 291,-1580 291,-1616"/>
<text text-anchor="middle" x="264" y="-1595.2" font-family="Courier,monospace" font-size="11.00">Hash</text>
</g>
<!-- \\Core\\Ini -->
<g id="node6" class="node"><title>\\Core\\Ini</title>
<polygon fill="none" stroke="black" points="291,-1562 237,-1562 237,-1526 291,-1526 291,-1562"/>
<text text-anchor="middle" x="264" y="-1541.2" font-family="Courier,monospace" font-size="11.00">Ini</text>
</g>
<!-- \\Core\\Phone -->
<g id="node7" class="node"><title>\\Core\\Phone</title>
<polygon fill="none" stroke="black" points="291,-1508 237,-1508 237,-1472 291,-1472 291,-1508"/>
<text text-anchor="middle" x="264" y="-1487.2" font-family="Courier,monospace" font-size="11.00">Phone</text>
</g>
<!-- \\Core\\Session -->
<g id="node8" class="node"><title>\\Core\\Session</title>
<polygon fill="none" stroke="black" points="296,-1454 232,-1454 232,-1418 296,-1418 296,-1454"/>
<text text-anchor="middle" x="264" y="-1433.2" font-family="Courier,monospace" font-size="11.00">Session</text>
</g>
<!-- \\Core\\Argv -->
<g id="node9" class="node"><title>\\Core\\Argv</title>
<polygon fill="none" stroke="black" points="291,-1400 237,-1400 237,-1364 291,-1364 291,-1400"/>
<text text-anchor="middle" x="264" y="-1379.2" font-family="Courier,monospace" font-size="11.00">Argv</text>
</g>
<!-- \\Core\\View -->
<g id="node10" class="node"><title>\\Core\\View</title>
<polygon fill="none" stroke="black" points="291,-1346 237,-1346 237,-1310 291,-1310 291,-1346"/>
<text text-anchor="middle" x="264" y="-1325.2" font-family="Courier,monospace" font-size="11.00">View</text>
</g>
<!-- \\Core\\Redirect -->
<g id="node11" class="node"><title>\\Core\\Redirect</title>
<polygon fill="none" stroke="black" points="299.5,-1292 228.5,-1292 228.5,-1256 299.5,-1256 299.5,-1292"/>
<text text-anchor="middle" x="264" y="-1271.2" font-family="Courier,monospace" font-size="11.00">Redirect</text>
</g>
<!-- \\Core\\Money -->
<g id="node12" class="node"><title>\\Core\\Money</title>
<polygon fill="none" stroke="black" points="291,-1238 237,-1238 237,-1202 291,-1202 291,-1238"/>
<text text-anchor="middle" x="264" y="-1217.2" font-family="Courier,monospace" font-size="11.00">Money</text>
</g>
<!-- \\Core\\ArrayTools -->
<g id="node13" class="node"><title>\\Core\\ArrayTools</title>
<polygon fill="none" stroke="black" points="306,-1184 222,-1184 222,-1148 306,-1148 306,-1184"/>
<text text-anchor="middle" x="264" y="-1163.2" font-family="Courier,monospace" font-size="11.00">ArrayTools</text>
</g>
<!-- \\Core\\Text -->
<g id="node14" class="node"><title>\\Core\\Text</title>
<polygon fill="none" stroke="black" points="291,-1130 237,-1130 237,-1094 291,-1094 291,-1130"/>
<text text-anchor="middle" x="264" y="-1109.2" font-family="Courier,monospace" font-size="11.00">Text</text>
</g>
<!-- \\Core\\Upload -->
<g id="node15" class="node"><title>\\Core\\Upload</title>
<polygon fill="none" stroke="black" points="292.5,-1076 235.5,-1076 235.5,-1040 292.5,-1040 292.5,-1076"/>
<text text-anchor="middle" x="264" y="-1055.2" font-family="Courier,monospace" font-size="11.00">Upload</text>
</g>
<!-- \\Core\\Number -->
<g id="node16" class="node"><title>\\Core\\Number</title>
<polygon fill="none" stroke="black" points="292.5,-1022 235.5,-1022 235.5,-986 292.5,-986 292.5,-1022"/>
<text text-anchor="middle" x="264" y="-1001.2" font-family="Courier,monospace" font-size="11.00">Number</text>
</g>
<!-- \\Core\\IP -->
<g id="node17" class="node"><title>\\Core\\IP</title>
<polygon fill="none" stroke="black" points="291,-968 237,-968 237,-932 291,-932 291,-968"/>
<text text-anchor="middle" x="264" y="-947.2" font-family="Courier,monospace" font-size="11.00">IP</text>
</g>
<!-- \\Core\\JSON -->
<g id="node18" class="node"><title>\\Core\\JSON</title>
<polygon fill="none" stroke="black" points="291,-914 237,-914 237,-878 291,-878 291,-914"/>
<text text-anchor="middle" x="264" y="-893.2" font-family="Courier,monospace" font-size="11.00">JSON</text>
</g>
<!-- \\Core\\Date -->
<g id="node19" class="node"><title>\\Core\\Date</title>
<polygon fill="none" stroke="black" points="291,-860 237,-860 237,-824 291,-824 291,-860"/>
<text text-anchor="middle" x="264" y="-839.2" font-family="Courier,monospace" font-size="11.00">Date</text>
</g>
<!-- \\Core\\Controller -->
<g id="node20" class="node"><title>\\Core\\Controller</title>
<polygon fill="none" stroke="black" points="306,-806 222,-806 222,-770 306,-770 306,-806"/>
<text text-anchor="middle" x="264" y="-785.2" font-family="Courier,monospace" font-size="11.00">Controller</text>
</g>
<!-- \\Core\\i18n -->
<g id="node21" class="node"><title>\\Core\\i18n</title>
<polygon fill="none" stroke="black" points="291,-752 237,-752 237,-716 291,-716 291,-752"/>
<text text-anchor="middle" x="264" y="-731.2" font-family="Courier,monospace" font-size="11.00">i18n</text>
</g>
<!-- \\Core\\Db -->
<g id="node22" class="node"><title>\\Core\\Db</title>
<polygon fill="none" stroke="black" points="291,-698 237,-698 237,-662 291,-662 291,-698"/>
<text text-anchor="middle" x="264" y="-677.2" font-family="Courier,monospace" font-size="11.00">Db</text>
</g>
<!-- \\Core\\Auth -->
<g id="node23" class="node"><title>\\Core\\Auth</title>
<polygon fill="none" stroke="black" points="291,-644 237,-644 237,-608 291,-608 291,-644"/>
<text text-anchor="middle" x="264" y="-623.2" font-family="Courier,monospace" font-size="11.00">Auth</text>
</g>
<!-- \\Core\\Countries -->
<g id="node24" class="node"><title>\\Core\\Countries</title>
<polygon fill="none" stroke="black" points="302.5,-590 225.5,-590 225.5,-554 302.5,-554 302.5,-590"/>
<text text-anchor="middle" x="264" y="-569.2" font-family="Courier,monospace" font-size="11.00">Countries</text>
</g>
<!-- \\Core\\ConfData -->
<g id="node25" class="node"><title>\\Core\\ConfData</title>
<polygon fill="none" stroke="black" points="299.5,-536 228.5,-536 228.5,-500 299.5,-500 299.5,-536"/>
<text text-anchor="middle" x="264" y="-515.2" font-family="Courier,monospace" font-size="11.00">ConfData</text>
</g>
<!-- \\Core\\InstantiatedConfData -->
<g id="node26" class="node"><title>\\Core\\InstantiatedConfData</title>
<polygon fill="none" stroke="black" points="340,-482 188,-482 188,-446 340,-446 340,-482"/>
<text text-anchor="middle" x="264" y="-461.2" font-family="Courier,monospace" font-size="11.00">InstantiatedConfData</text>
</g>
<!-- \\Drivers\\Database\\PDO\\MongoToSQL -->
<g id="node27" class="node"><title>\\Drivers\\Database\\PDO\\MongoToSQL</title>
<polygon fill="none" stroke="black" points="306,-346 222,-346 222,-310 306,-310 306,-346"/>
<text text-anchor="middle" x="264" y="-325.2" font-family="Courier,monospace" font-size="11.00">MongoToSQL</text>
</g>
<!-- \\Drivers\\Database\\PDO\\Regex -->
<g id="node28" class="node"><title>\\Drivers\\Database\\PDO\\Regex</title>
<polygon fill="none" stroke="black" points="291,-76 237,-76 237,-40 291,-40 291,-76"/>
<text text-anchor="middle" x="264" y="-55.2" font-family="Courier,monospace" font-size="11.00">Regex</text>
</g>
<!-- \\Drivers\\Database\\Regex -->
<g id="node35" class="node"><title>\\Drivers\\Database\\Regex</title>
<polygon fill="none" stroke="black" points="101,-76 47,-76 47,-40 101,-40 101,-76"/>
<text text-anchor="middle" x="74" y="-55.2" font-family="Courier,monospace" font-size="11.00">Regex</text>
</g>
<!-- \\Drivers\\Database\\PDO\\Regex&#45;&gt;\\Drivers\\Database\\Regex -->
<g id="edge1" class="edge"><title>\\Drivers\\Database\\PDO\\Regex&#45;&gt;\\Drivers\\Database\\Regex</title>
<path fill="none" stroke="black" stroke-dasharray="1,5" d="M236.859,-58C204.26,-58 148.346,-58 111.526,-58"/>
<polygon fill="none" stroke="black" points="111.221,-54.5001 101.221,-58 111.221,-61.5001 111.221,-54.5001"/>
</g>
<!-- \\Drivers\\Database\\PDO\\Id -->
<g id="node29" class="node"><title>\\Drivers\\Database\\PDO\\Id</title>
<polygon fill="none" stroke="black" points="291,-130 237,-130 237,-94 291,-94 291,-130"/>
<text text-anchor="middle" x="264" y="-109.2" font-family="Courier,monospace" font-size="11.00">Id</text>
</g>
<!-- \\Drivers\\Database\\Id -->
<g id="node37" class="node"><title>\\Drivers\\Database\\Id</title>
<polygon fill="none" stroke="black" points="101,-130 47,-130 47,-94 101,-94 101,-130"/>
<text text-anchor="middle" x="74" y="-109.2" font-family="Courier,monospace" font-size="11.00">Id</text>
</g>
<!-- \\Drivers\\Database\\PDO\\Id&#45;&gt;\\Drivers\\Database\\Id -->
<g id="edge2" class="edge"><title>\\Drivers\\Database\\PDO\\Id&#45;&gt;\\Drivers\\Database\\Id</title>
<path fill="none" stroke="black" stroke-dasharray="1,5" d="M236.859,-112C204.26,-112 148.346,-112 111.526,-112"/>
<polygon fill="none" stroke="black" points="111.221,-108.5 101.221,-112 111.221,-115.5 111.221,-108.5"/>
</g>
<!-- \\Drivers\\Database\\PDO\\Date -->
<g id="node30" class="node"><title>\\Drivers\\Database\\PDO\\Date</title>
<polygon fill="none" stroke="black" points="291,-184 237,-184 237,-148 291,-148 291,-184"/>
<text text-anchor="middle" x="264" y="-163.2" font-family="Courier,monospace" font-size="11.00">Date</text>
</g>
<!-- \\Drivers\\Database\\Date -->
<g id="node34" class="node"><title>\\Drivers\\Database\\Date</title>
<polygon fill="none" stroke="black" points="101,-184 47,-184 47,-148 101,-148 101,-184"/>
<text text-anchor="middle" x="74" y="-163.2" font-family="Courier,monospace" font-size="11.00">Date</text>
</g>
<!-- \\Drivers\\Database\\PDO\\Date&#45;&gt;\\Drivers\\Database\\Date -->
<g id="edge3" class="edge"><title>\\Drivers\\Database\\PDO\\Date&#45;&gt;\\Drivers\\Database\\Date</title>
<path fill="none" stroke="black" stroke-dasharray="1,5" d="M236.859,-166C204.26,-166 148.346,-166 111.526,-166"/>
<polygon fill="none" stroke="black" points="111.221,-162.5 101.221,-166 111.221,-169.5 111.221,-162.5"/>
</g>
<!-- \\Drivers\\Database\\PDO\\Collection -->
<g id="node31" class="node"><title>\\Drivers\\Database\\PDO\\Collection</title>
<polygon fill="none" stroke="black" points="306,-238 222,-238 222,-202 306,-202 306,-238"/>
<text text-anchor="middle" x="264" y="-217.2" font-family="Courier,monospace" font-size="11.00">Collection</text>
</g>
<!-- \\Drivers\\Database\\Collection -->
<g id="node36" class="node"><title>\\Drivers\\Database\\Collection</title>
<polygon fill="none" stroke="black" points="116,-238 32,-238 32,-202 116,-202 116,-238"/>
<text text-anchor="middle" x="74" y="-217.2" font-family="Courier,monospace" font-size="11.00">Collection</text>
</g>
<!-- \\Drivers\\Database\\PDO\\Collection&#45;&gt;\\Drivers\\Database\\Collection -->
<g id="edge4" class="edge"><title>\\Drivers\\Database\\PDO\\Collection&#45;&gt;\\Drivers\\Database\\Collection</title>
<path fill="none" stroke="black" stroke-dasharray="1,5" d="M221.743,-220C193.703,-220 156.406,-220 126.431,-220"/>
<polygon fill="none" stroke="black" points="126.161,-216.5 116.161,-220 126.161,-223.5 126.161,-216.5"/>
</g>
<!-- \\Drivers\\Database\\PDO\\Factory -->
<g id="node32" class="node"><title>\\Drivers\\Database\\PDO\\Factory</title>
<polygon fill="none" stroke="black" points="296,-292 232,-292 232,-256 296,-256 296,-292"/>
<text text-anchor="middle" x="264" y="-271.2" font-family="Courier,monospace" font-size="11.00">Factory</text>
</g>
<!-- \\Drivers\\Database\\Factory -->
<g id="node33" class="node"><title>\\Drivers\\Database\\Factory</title>
<polygon fill="none" stroke="black" points="106,-292 42,-292 42,-256 106,-256 106,-292"/>
<text text-anchor="middle" x="74" y="-271.2" font-family="Courier,monospace" font-size="11.00">Factory</text>
</g>
<!-- \\Drivers\\Database\\PDO\\Factory&#45;&gt;\\Drivers\\Database\\Factory -->
<g id="edge5" class="edge"><title>\\Drivers\\Database\\PDO\\Factory&#45;&gt;\\Drivers\\Database\\Factory</title>
<path fill="none" stroke="black" stroke-dasharray="1,5" d="M231.956,-274C200.388,-274 151.289,-274 116.42,-274"/>
<polygon fill="none" stroke="black" points="116.091,-270.5 106.09,-274 116.09,-277.5 116.091,-270.5"/>
</g>
</g>
</svg>
