<?xml version="1.0" encoding="UTF-8" standalone="no"?>
<!DOCTYPE svg PUBLIC "-//W3C//DTD SVG 1.1//EN"
 "http://www.w3.org/Graphics/SVG/1.1/DTD/svg11.dtd">
<!-- Generated by graphviz version 2.36.0 (20140111.2315)
 -->
<!-- Title: G Pages: 1 -->
<svg width="380pt" height="2432pt"
 viewBox="0.00 0.00 380.00 2432.00" xmlns="http://www.w3.org/2000/svg" xmlns:xlink="http://www.w3.org/1999/xlink">
<g id="graph0" class="graph" transform="scale(1 1) rotate(0) translate(4 2428)">
<title>G</title>
<polygon fill="white" stroke="none" points="-4,4 -4,-2428 376,-2428 376,4 -4,4"/>
<g id="clust1" class="cluster"><title>cluster_Global</title>
<path fill="none" stroke="gray" d="M20,-44C20,-44 352,-44 352,-44 358,-44 364,-50 364,-56 364,-56 364,-2404 364,-2404 364,-2410 358,-2416 352,-2416 352,-2416 20,-2416 20,-2416 14,-2416 8,-2410 8,-2404 8,-2404 8,-56 8,-56 8,-50 14,-44 20,-44"/>
<text text-anchor="middle" x="186" y="-2403.2" font-family="Times,serif" font-size="11.00" fill="gray">Global</text>
</g>
<g id="clust2" class="cluster"><title>cluster_\Core</title>
<path fill="none" stroke="gray" d="M200,-52C200,-52 344,-52 344,-52 350,-52 356,-58 356,-64 356,-64 356,-1678 356,-1678 356,-1684 350,-1690 344,-1690 344,-1690 200,-1690 200,-1690 194,-1690 188,-1684 188,-1678 188,-1678 188,-64 188,-64 188,-58 194,-52 200,-52"/>
<text text-anchor="middle" x="272" y="-1677.2" font-family="Times,serif" font-size="11.00" fill="gray">Core</text>
</g>
<g id="clust3" class="cluster"><title>cluster_\Drivers</title>
<path fill="none" stroke="gray" d="M28,-1698C28,-1698 326,-1698 326,-1698 332,-1698 338,-1704 338,-1710 338,-1710 338,-2376 338,-2376 338,-2382 332,-2388 326,-2388 326,-2388 28,-2388 28,-2388 22,-2388 16,-2382 16,-2376 16,-2376 16,-1710 16,-1710 16,-1704 22,-1698 28,-1698"/>
<text text-anchor="middle" x="177" y="-2375.2" font-family="Times,serif" font-size="11.00" fill="gray">Drivers</text>
</g>
<g id="clust4" class="cluster"><title>cluster_\Drivers\Mail</title>
<path fill="none" stroke="gray" d="M46,-2252C46,-2252 308,-2252 308,-2252 314,-2252 320,-2258 320,-2264 320,-2264 320,-2348 320,-2348 320,-2354 314,-2360 308,-2360 308,-2360 46,-2360 46,-2360 40,-2360 34,-2354 34,-2348 34,-2348 34,-2264 34,-2264 34,-2258 40,-2252 46,-2252"/>
<text text-anchor="middle" x="177" y="-2347.2" font-family="Times,serif" font-size="11.00" fill="gray">Mail</text>
</g>
<g id="clust5" class="cluster"><title>cluster_\Drivers\Mail\System</title>
<path fill="none" stroke="gray" d="M244,-2260C244,-2260 300,-2260 300,-2260 306,-2260 312,-2266 312,-2272 312,-2272 312,-2320 312,-2320 312,-2326 306,-2332 300,-2332 300,-2332 244,-2332 244,-2332 238,-2332 232,-2326 232,-2320 232,-2320 232,-2272 232,-2272 232,-2266 238,-2260 244,-2260"/>
<text text-anchor="middle" x="272" y="-2319.2" font-family="Times,serif" font-size="11.00" fill="gray">System</text>
</g>
<g id="clust6" class="cluster"><title>cluster_\Drivers\Database</title>
<path fill="none" stroke="gray" d="M36,-1866C36,-1866 318,-1866 318,-1866 324,-1866 330,-1872 330,-1878 330,-1878 330,-2232 330,-2232 330,-2238 324,-2244 318,-2244 318,-2244 36,-2244 36,-2244 30,-2244 24,-2238 24,-2232 24,-2232 24,-1878 24,-1878 24,-1872 30,-1866 36,-1866"/>
<text text-anchor="middle" x="177" y="-2231.2" font-family="Times,serif" font-size="11.00" fill="gray">Database</text>
</g>
<g id="clust7" class="cluster"><title>cluster_\Drivers\Database\PDO</title>
<path fill="none" stroke="gray" d="M234,-1874C234,-1874 310,-1874 310,-1874 316,-1874 322,-1880 322,-1886 322,-1886 322,-2204 322,-2204 322,-2210 316,-2216 310,-2216 310,-2216 234,-2216 234,-2216 228,-2216 222,-2210 222,-2204 222,-2204 222,-1886 222,-1886 222,-1880 228,-1874 234,-1874"/>
<text text-anchor="middle" x="272" y="-2203.2" font-family="Times,serif" font-size="11.00" fill="gray">PDO</text>
</g>
<g id="clust8" class="cluster"><title>cluster_\Drivers\Payment</title>
<path fill="none" stroke="gray" d="M244,-1786C244,-1786 300,-1786 300,-1786 306,-1786 312,-1792 312,-1798 312,-1798 312,-1846 312,-1846 312,-1852 306,-1858 300,-1858 300,-1858 244,-1858 244,-1858 238,-1858 232,-1852 232,-1846 232,-1846 232,-1798 232,-1798 232,-1792 238,-1786 244,-1786"/>
<text text-anchor="middle" x="272" y="-1845.2" font-family="Times,serif" font-size="11.00" fill="gray">Payment</text>
</g>
<g id="clust9" class="cluster"><title>cluster_\Drivers\SocialLogin</title>
<path fill="none" stroke="gray" d="M240,-1706C240,-1706 303,-1706 303,-1706 309,-1706 315,-1712 315,-1718 315,-1718 315,-1766 315,-1766 315,-1772 309,-1778 303,-1778 303,-1778 240,-1778 240,-1778 234,-1778 228,-1772 228,-1766 228,-1766 228,-1718 228,-1718 228,-1712 234,-1706 240,-1706"/>
<text text-anchor="middle" x="271.5" y="-1765.2" font-family="Times,serif" font-size="11.00" fill="gray">SocialLogin</text>
</g>
<!-- \\Core\\Conf -->
<g id="node1" class="node"><title>\\Core\\Conf</title>
<polygon fill="none" stroke="black" points="299,-1662 245,-1662 245,-1626 299,-1626 299,-1662"/>
<text text-anchor="middle" x="272" y="-1641.2" font-family="Courier,monospace" font-size="11.00">Conf</text>
</g>
<!-- \\Core\\Http -->
<g id="node2" class="node"><title>\\Core\\Http</title>
<polygon fill="none" stroke="black" points="299,-1608 245,-1608 245,-1572 299,-1572 299,-1608"/>
<text text-anchor="middle" x="272" y="-1587.2" font-family="Courier,monospace" font-size="11.00">Http</text>
</g>
<!-- \\Core\\Dir -->
<g id="node3" class="node"><title>\\Core\\Dir</title>
<polygon fill="none" stroke="black" points="299,-1554 245,-1554 245,-1518 299,-1518 299,-1554"/>
<text text-anchor="middle" x="272" y="-1533.2" font-family="Courier,monospace" font-size="11.00">Dir</text>
</g>
<!-- \\Core\\Cli -->
<g id="node4" class="node"><title>\\Core\\Cli</title>
<polygon fill="none" stroke="black" points="299,-1500 245,-1500 245,-1464 299,-1464 299,-1500"/>
<text text-anchor="middle" x="272" y="-1479.2" font-family="Courier,monospace" font-size="11.00">Cli</text>
</g>
<!-- \\Core\\Hash -->
<g id="node5" class="node"><title>\\Core\\Hash</title>
<polygon fill="none" stroke="black" points="299,-1446 245,-1446 245,-1410 299,-1410 299,-1446"/>
<text text-anchor="middle" x="272" y="-1425.2" font-family="Courier,monospace" font-size="11.00">Hash</text>
</g>
<!-- \\Core\\Ini -->
<g id="node6" class="node"><title>\\Core\\Ini</title>
<polygon fill="none" stroke="black" points="299,-1392 245,-1392 245,-1356 299,-1356 299,-1392"/>
<text text-anchor="middle" x="272" y="-1371.2" font-family="Courier,monospace" font-size="11.00">Ini</text>
</g>
<!-- \\Core\\Phone -->
<g id="node7" class="node"><title>\\Core\\Phone</title>
<polygon fill="none" stroke="black" points="299,-1338 245,-1338 245,-1302 299,-1302 299,-1338"/>
<text text-anchor="middle" x="272" y="-1317.2" font-family="Courier,monospace" font-size="11.00">Phone</text>
</g>
<!-- \\Core\\Session -->
<g id="node8" class="node"><title>\\Core\\Session</title>
<polygon fill="none" stroke="black" points="304,-1284 240,-1284 240,-1248 304,-1248 304,-1284"/>
<text text-anchor="middle" x="272" y="-1263.2" font-family="Courier,monospace" font-size="11.00">Session</text>
</g>
<!-- \\Core\\Argv -->
<g id="node9" class="node"><title>\\Core\\Argv</title>
<polygon fill="none" stroke="black" points="299,-1230 245,-1230 245,-1194 299,-1194 299,-1230"/>
<text text-anchor="middle" x="272" y="-1209.2" font-family="Courier,monospace" font-size="11.00">Argv</text>
</g>
<!-- \\Core\\View -->
<g id="node10" class="node"><title>\\Core\\View</title>
<polygon fill="none" stroke="black" points="299,-1176 245,-1176 245,-1140 299,-1140 299,-1176"/>
<text text-anchor="middle" x="272" y="-1155.2" font-family="Courier,monospace" font-size="11.00">View</text>
</g>
<!-- \\Core\\Redirect -->
<g id="node11" class="node"><title>\\Core\\Redirect</title>
<polygon fill="none" stroke="black" points="307.5,-1122 236.5,-1122 236.5,-1086 307.5,-1086 307.5,-1122"/>
<text text-anchor="middle" x="272" y="-1101.2" font-family="Courier,monospace" font-size="11.00">Redirect</text>
</g>
<!-- \\Core\\Debug -->
<g id="node12" class="node"><title>\\Core\\Debug</title>
<polygon fill="none" stroke="black" points="299,-1068 245,-1068 245,-1032 299,-1032 299,-1068"/>
<text text-anchor="middle" x="272" y="-1047.2" font-family="Courier,monospace" font-size="11.00">Debug</text>
</g>
<!-- \\Core\\Money -->
<g id="node13" class="node"><title>\\Core\\Money</title>
<polygon fill="none" stroke="black" points="299,-1014 245,-1014 245,-978 299,-978 299,-1014"/>
<text text-anchor="middle" x="272" y="-993.2" font-family="Courier,monospace" font-size="11.00">Money</text>
</g>
<!-- \\Core\\ArrayTools -->
<g id="node14" class="node"><title>\\Core\\ArrayTools</title>
<polygon fill="none" stroke="black" points="314,-960 230,-960 230,-924 314,-924 314,-960"/>
<text text-anchor="middle" x="272" y="-939.2" font-family="Courier,monospace" font-size="11.00">ArrayTools</text>
</g>
<!-- \\Core\\Mail -->
<g id="node15" class="node"><title>\\Core\\Mail</title>
<polygon fill="none" stroke="black" points="299,-906 245,-906 245,-870 299,-870 299,-906"/>
<text text-anchor="middle" x="272" y="-885.2" font-family="Courier,monospace" font-size="11.00">Mail</text>
</g>
<!-- \\Core\\Text -->
<g id="node16" class="node"><title>\\Core\\Text</title>
<polygon fill="none" stroke="black" points="299,-852 245,-852 245,-816 299,-816 299,-852"/>
<text text-anchor="middle" x="272" y="-831.2" font-family="Courier,monospace" font-size="11.00">Text</text>
</g>
<!-- \\Core\\Upload -->
<g id="node17" class="node"><title>\\Core\\Upload</title>
<polygon fill="none" stroke="black" points="300.5,-798 243.5,-798 243.5,-762 300.5,-762 300.5,-798"/>
<text text-anchor="middle" x="272" y="-777.2" font-family="Courier,monospace" font-size="11.00">Upload</text>
</g>
<!-- \\Core\\Number -->
<g id="node18" class="node"><title>\\Core\\Number</title>
<polygon fill="none" stroke="black" points="300.5,-744 243.5,-744 243.5,-708 300.5,-708 300.5,-744"/>
<text text-anchor="middle" x="272" y="-723.2" font-family="Courier,monospace" font-size="11.00">Number</text>
</g>
<!-- \\Core\\IP -->
<g id="node19" class="node"><title>\\Core\\IP</title>
<polygon fill="none" stroke="black" points="299,-690 245,-690 245,-654 299,-654 299,-690"/>
<text text-anchor="middle" x="272" y="-669.2" font-family="Courier,monospace" font-size="11.00">IP</text>
</g>
<!-- \\Core\\JSON -->
<g id="node20" class="node"><title>\\Core\\JSON</title>
<polygon fill="none" stroke="black" points="299,-636 245,-636 245,-600 299,-600 299,-636"/>
<text text-anchor="middle" x="272" y="-615.2" font-family="Courier,monospace" font-size="11.00">JSON</text>
</g>
<!-- \\Core\\Date -->
<g id="node21" class="node"><title>\\Core\\Date</title>
<polygon fill="none" stroke="black" points="299,-582 245,-582 245,-546 299,-546 299,-582"/>
<text text-anchor="middle" x="272" y="-561.2" font-family="Courier,monospace" font-size="11.00">Date</text>
</g>
<!-- \\Core\\Controller -->
<g id="node22" class="node"><title>\\Core\\Controller</title>
<polygon fill="none" stroke="black" points="314,-528 230,-528 230,-492 314,-492 314,-528"/>
<text text-anchor="middle" x="272" y="-507.2" font-family="Courier,monospace" font-size="11.00">Controller</text>
</g>
<!-- \\Core\\i18n -->
<g id="node23" class="node"><title>\\Core\\i18n</title>
<polygon fill="none" stroke="black" points="299,-474 245,-474 245,-438 299,-438 299,-474"/>
<text text-anchor="middle" x="272" y="-453.2" font-family="Courier,monospace" font-size="11.00">i18n</text>
</g>
<!-- \\Core\\Db -->
<g id="node24" class="node"><title>\\Core\\Db</title>
<polygon fill="none" stroke="black" points="299,-420 245,-420 245,-384 299,-384 299,-420"/>
<text text-anchor="middle" x="272" y="-399.2" font-family="Courier,monospace" font-size="11.00">Db</text>
</g>
<!-- \\Core\\Auth -->
<g id="node25" class="node"><title>\\Core\\Auth</title>
<polygon fill="none" stroke="black" points="299,-366 245,-366 245,-330 299,-330 299,-366"/>
<text text-anchor="middle" x="272" y="-345.2" font-family="Courier,monospace" font-size="11.00">Auth</text>
</g>
<!-- \\Core\\Countries -->
<g id="node26" class="node"><title>\\Core\\Countries</title>
<polygon fill="none" stroke="black" points="310.5,-312 233.5,-312 233.5,-276 310.5,-276 310.5,-312"/>
<text text-anchor="middle" x="272" y="-291.2" font-family="Courier,monospace" font-size="11.00">Countries</text>
</g>
<!-- \\Core\\ModelIterator -->
<g id="node27" class="node"><title>\\Core\\ModelIterator</title>
<polygon fill="none" stroke="black" points="324,-258 220,-258 220,-222 324,-222 324,-258"/>
<text text-anchor="middle" x="272" y="-237.2" font-family="Courier,monospace" font-size="11.00">ModelIterator</text>
</g>
<!-- \\Iterator -->
<g id="node46" class="node"><title>\\Iterator</title>
<ellipse fill="none" stroke="black" cx="74" cy="-18" rx="50.0912" ry="18"/>
<text text-anchor="middle" x="74" y="-14.3" font-family="Times,serif" font-size="14.00" fill="gray">\Iterator</text>
</g>
<!-- \\Core\\ModelIterator&#45;&gt;\\Iterator -->
<g id="edge7" class="edge"><title>\\Core\\ModelIterator&#45;&gt;\\Iterator</title>
<path fill="none" stroke="black" stroke-dasharray="1,5" d="M219.749,-229.772C208.485,-225.842 197.19,-220.432 188,-213 132.35,-167.994 98.5351,-87.7474 83.7636,-45.5985"/>
<polygon fill="none" stroke="black" points="87.0297,-44.3316 80.4966,-35.9908 80.4024,-46.5852 87.0297,-44.3316"/>
</g>
<!-- \\Core\\Model -->
<g id="node28" class="node"><title>\\Core\\Model</title>
<polygon fill="none" stroke="black" points="299,-204 245,-204 245,-168 299,-168 299,-204"/>
<text text-anchor="middle" x="272" y="-183.2" font-family="Courier,monospace" font-size="11.00">Model</text>
</g>
<!-- \\Core\\ConfData -->
<g id="node29" class="node"><title>\\Core\\ConfData</title>
<polygon fill="none" stroke="black" points="307.5,-150 236.5,-150 236.5,-114 307.5,-114 307.5,-150"/>
<text text-anchor="middle" x="272" y="-129.2" font-family="Courier,monospace" font-size="11.00">ConfData</text>
</g>
<!-- \\Core\\InstantiatedConfData -->
<g id="node30" class="node"><title>\\Core\\InstantiatedConfData</title>
<polygon fill="none" stroke="black" points="348,-96 196,-96 196,-60 348,-60 348,-96"/>
<text text-anchor="middle" x="272" y="-75.2" font-family="Courier,monospace" font-size="11.00">InstantiatedConfData</text>
</g>
<!-- \\Drivers\\Mail\\System\\Factory -->
<g id="node31" class="node"><title>\\Drivers\\Mail\\System\\Factory</title>
<polygon fill="none" stroke="black" points="304,-2304 240,-2304 240,-2268 304,-2268 304,-2304"/>
<text text-anchor="middle" x="272" y="-2283.2" font-family="Courier,monospace" font-size="11.00">Factory</text>
</g>
<!-- \\Drivers\\Mail\\Factory -->
<g id="node32" class="node"><title>\\Drivers\\Mail\\Factory</title>
<polygon fill="none" stroke="black" points="106,-2304 42,-2304 42,-2268 106,-2268 106,-2304"/>
<text text-anchor="middle" x="74" y="-2283.2" font-family="Courier,monospace" font-size="11.00">Factory</text>
</g>
<!-- \\Drivers\\Mail\\System\\Factory&#45;&gt;\\Drivers\\Mail\\Factory -->
<g id="edge1" class="edge"><title>\\Drivers\\Mail\\System\\Factory&#45;&gt;\\Drivers\\Mail\\Factory</title>
<path fill="none" stroke="black" stroke-dasharray="1,5" d="M239.943,-2286C206.638,-2286 153.574,-2286 116.66,-2286"/>
<polygon fill="none" stroke="black" points="116.235,-2282.5 106.235,-2286 116.235,-2289.5 116.235,-2282.5"/>
</g>
<!-- \\Drivers\\Database\\PDO\\MongoToSQL -->
<g id="node33" class="node"><title>\\Drivers\\Database\\PDO\\MongoToSQL</title>
<polygon fill="none" stroke="black" points="314,-2188 230,-2188 230,-2152 314,-2152 314,-2188"/>
<text text-anchor="middle" x="272" y="-2167.2" font-family="Courier,monospace" font-size="11.00">MongoToSQL</text>
</g>
<!-- \\Drivers\\Database\\PDO\\Regex -->
<g id="node34" class="node"><title>\\Drivers\\Database\\PDO\\Regex</title>
<polygon fill="none" stroke="black" points="299,-1918 245,-1918 245,-1882 299,-1882 299,-1918"/>
<text text-anchor="middle" x="272" y="-1897.2" font-family="Courier,monospace" font-size="11.00">Regex</text>
</g>
<!-- \\Drivers\\Database\\Regex -->
<g id="node41" class="node"><title>\\Drivers\\Database\\Regex</title>
<polygon fill="none" stroke="black" points="101,-1918 47,-1918 47,-1882 101,-1882 101,-1918"/>
<text text-anchor="middle" x="74" y="-1897.2" font-family="Courier,monospace" font-size="11.00">Regex</text>
</g>
<!-- \\Drivers\\Database\\PDO\\Regex&#45;&gt;\\Drivers\\Database\\Regex -->
<g id="edge2" class="edge"><title>\\Drivers\\Database\\PDO\\Regex&#45;&gt;\\Drivers\\Database\\Regex</title>
<path fill="none" stroke="black" stroke-dasharray="1,5" d="M244.973,-1900C210.707,-1900 150.277,-1900 111.468,-1900"/>
<polygon fill="none" stroke="black" points="111.135,-1896.5 101.135,-1900 111.135,-1903.5 111.135,-1896.5"/>
</g>
<!-- \\Drivers\\Database\\PDO\\Id -->
<g id="node35" class="node"><title>\\Drivers\\Database\\PDO\\Id</title>
<polygon fill="none" stroke="black" points="299,-1972 245,-1972 245,-1936 299,-1936 299,-1972"/>
<text text-anchor="middle" x="272" y="-1951.2" font-family="Courier,monospace" font-size="11.00">Id</text>
</g>
<!-- \\Drivers\\Database\\Id -->
<g id="node43" class="node"><title>\\Drivers\\Database\\Id</title>
<polygon fill="none" stroke="black" points="101,-1972 47,-1972 47,-1936 101,-1936 101,-1972"/>
<text text-anchor="middle" x="74" y="-1951.2" font-family="Courier,monospace" font-size="11.00">Id</text>
</g>
<!-- \\Drivers\\Database\\PDO\\Id&#45;&gt;\\Drivers\\Database\\Id -->
<g id="edge3" class="edge"><title>\\Drivers\\Database\\PDO\\Id&#45;&gt;\\Drivers\\Database\\Id</title>
<path fill="none" stroke="black" stroke-dasharray="1,5" d="M244.973,-1954C210.707,-1954 150.277,-1954 111.468,-1954"/>
<polygon fill="none" stroke="black" points="111.135,-1950.5 101.135,-1954 111.135,-1957.5 111.135,-1950.5"/>
</g>
<!-- \\Drivers\\Database\\PDO\\Date -->
<g id="node36" class="node"><title>\\Drivers\\Database\\PDO\\Date</title>
<polygon fill="none" stroke="black" points="299,-2026 245,-2026 245,-1990 299,-1990 299,-2026"/>
<text text-anchor="middle" x="272" y="-2005.2" font-family="Courier,monospace" font-size="11.00">Date</text>
</g>
<!-- \\Drivers\\Database\\Date -->
<g id="node40" class="node"><title>\\Drivers\\Database\\Date</title>
<polygon fill="none" stroke="black" points="101,-2026 47,-2026 47,-1990 101,-1990 101,-2026"/>
<text text-anchor="middle" x="74" y="-2005.2" font-family="Courier,monospace" font-size="11.00">Date</text>
</g>
<!-- \\Drivers\\Database\\PDO\\Date&#45;&gt;\\Drivers\\Database\\Date -->
<g id="edge4" class="edge"><title>\\Drivers\\Database\\PDO\\Date&#45;&gt;\\Drivers\\Database\\Date</title>
<path fill="none" stroke="black" stroke-dasharray="1,5" d="M244.973,-2008C210.707,-2008 150.277,-2008 111.468,-2008"/>
<polygon fill="none" stroke="black" points="111.135,-2004.5 101.135,-2008 111.135,-2011.5 111.135,-2004.5"/>
</g>
<!-- \\Drivers\\Database\\PDO\\Collection -->
<g id="node37" class="node"><title>\\Drivers\\Database\\PDO\\Collection</title>
<polygon fill="none" stroke="black" points="314,-2080 230,-2080 230,-2044 314,-2044 314,-2080"/>
<text text-anchor="middle" x="272" y="-2059.2" font-family="Courier,monospace" font-size="11.00">Collection</text>
</g>
<!-- \\Drivers\\Database\\Collection -->
<g id="node42" class="node"><title>\\Drivers\\Database\\Collection</title>
<polygon fill="none" stroke="black" points="116,-2080 32,-2080 32,-2044 116,-2044 116,-2080"/>
<text text-anchor="middle" x="74" y="-2059.2" font-family="Courier,monospace" font-size="11.00">Collection</text>
</g>
<!-- \\Drivers\\Database\\PDO\\Collection&#45;&gt;\\Drivers\\Database\\Collection -->
<g id="edge5" class="edge"><title>\\Drivers\\Database\\PDO\\Collection&#45;&gt;\\Drivers\\Database\\Collection</title>
<path fill="none" stroke="black" stroke-dasharray="1,5" d="M229.912,-2062C199.727,-2062 158.519,-2062 126.192,-2062"/>
<polygon fill="none" stroke="black" points="126.034,-2058.5 116.034,-2062 126.034,-2065.5 126.034,-2058.5"/>
</g>
<!-- \\Drivers\\Database\\PDO\\Factory -->
<g id="node38" class="node"><title>\\Drivers\\Database\\PDO\\Factory</title>
<polygon fill="none" stroke="black" points="304,-2134 240,-2134 240,-2098 304,-2098 304,-2134"/>
<text text-anchor="middle" x="272" y="-2113.2" font-family="Courier,monospace" font-size="11.00">Factory</text>
</g>
<!-- \\Drivers\\Database\\Factory -->
<g id="node39" class="node"><title>\\Drivers\\Database\\Factory</title>
<polygon fill="none" stroke="black" points="106,-2134 42,-2134 42,-2098 106,-2098 106,-2134"/>
<text text-anchor="middle" x="74" y="-2113.2" font-family="Courier,monospace" font-size="11.00">Factory</text>
</g>
<!-- \\Drivers\\Database\\PDO\\Factory&#45;&gt;\\Drivers\\Database\\Factory -->
<g id="edge6" class="edge"><title>\\Drivers\\Database\\PDO\\Factory&#45;&gt;\\Drivers\\Database\\Factory</title>
<path fill="none" stroke="black" stroke-dasharray="1,5" d="M239.943,-2116C206.638,-2116 153.574,-2116 116.66,-2116"/>
<polygon fill="none" stroke="black" points="116.235,-2112.5 106.235,-2116 116.235,-2119.5 116.235,-2112.5"/>
</g>
<!-- \\Drivers\\Payment\\Factory -->
<g id="node44" class="node"><title>\\Drivers\\Payment\\Factory</title>
<polygon fill="none" stroke="black" points="304,-1830 240,-1830 240,-1794 304,-1794 304,-1830"/>
<text text-anchor="middle" x="272" y="-1809.2" font-family="Courier,monospace" font-size="11.00">Factory</text>
</g>
<!-- \\Drivers\\SocialLogin\\Factory -->
<g id="node45" class="node"><title>\\Drivers\\SocialLogin\\Factory</title>
<polygon fill="none" stroke="black" points="304,-1750 240,-1750 240,-1714 304,-1714 304,-1750"/>
<text text-anchor="middle" x="272" y="-1729.2" font-family="Courier,monospace" font-size="11.00">Factory</text>
</g>
</g>
</svg>
