<?xml version="1.0" encoding="UTF-8" standalone="no"?>
<!DOCTYPE svg PUBLIC "-//W3C//DTD SVG 1.1//EN"
 "http://www.w3.org/Graphics/SVG/1.1/DTD/svg11.dtd">
<!-- Generated by graphviz version 2.38.0 (20140413.2041)
 -->
<!-- Title: G Pages: 1 -->
<svg width="379pt" height="3186pt"
 viewBox="0.00 0.00 378.75 3186.00" xmlns="http://www.w3.org/2000/svg" xmlns:xlink="http://www.w3.org/1999/xlink">
<g id="graph0" class="graph" transform="scale(1 1) rotate(0) translate(4 3182)">
<title>G</title>
<polygon fill="white" stroke="none" points="-4,4 -4,-3182 374.746,-3182 374.746,4 -4,4"/>
<g id="clust1" class="cluster"><title>cluster_Global</title>
<path fill="none" stroke="gray" d="M20,-98C20,-98 350.746,-98 350.746,-98 356.746,-98 362.746,-104 362.746,-110 362.746,-110 362.746,-3158 362.746,-3158 362.746,-3164 356.746,-3170 350.746,-3170 350.746,-3170 20,-3170 20,-3170 14,-3170 8,-3164 8,-3158 8,-3158 8,-110 8,-110 8,-104 14,-98 20,-98"/>
<text text-anchor="middle" x="185.373" y="-3157.2" font-family="Times,serif" font-size="11.00" fill="gray">Global</text>
</g>
<g id="clust2" class="cluster"><title>cluster_\Core</title>
<path fill="none" stroke="gray" d="M198.746,-106C198.746,-106 342.746,-106 342.746,-106 348.746,-106 354.746,-112 354.746,-118 354.746,-118 354.746,-1948 354.746,-1948 354.746,-1954 348.746,-1960 342.746,-1960 342.746,-1960 198.746,-1960 198.746,-1960 192.746,-1960 186.746,-1954 186.746,-1948 186.746,-1948 186.746,-118 186.746,-118 186.746,-112 192.746,-106 198.746,-106"/>
<text text-anchor="middle" x="270.746" y="-1947.2" font-family="Times,serif" font-size="11.00" fill="gray">Core</text>
</g>
<g id="clust3" class="cluster"><title>cluster_\Drivers</title>
<path fill="none" stroke="gray" d="M28,-2452C28,-2452 324.746,-2452 324.746,-2452 330.746,-2452 336.746,-2458 336.746,-2464 336.746,-2464 336.746,-3130 336.746,-3130 336.746,-3136 330.746,-3142 324.746,-3142 324.746,-3142 28,-3142 28,-3142 22,-3142 16,-3136 16,-3130 16,-3130 16,-2464 16,-2464 16,-2458 22,-2452 28,-2452"/>
<text text-anchor="middle" x="176.373" y="-3129.2" font-family="Times,serif" font-size="11.00" fill="gray">Drivers</text>
</g>
<g id="clust4" class="cluster"><title>cluster_\Drivers\Mail</title>
<path fill="none" stroke="gray" d="M46,-3006C46,-3006 306.746,-3006 306.746,-3006 312.746,-3006 318.746,-3012 318.746,-3018 318.746,-3018 318.746,-3102 318.746,-3102 318.746,-3108 312.746,-3114 306.746,-3114 306.746,-3114 46,-3114 46,-3114 40,-3114 34,-3108 34,-3102 34,-3102 34,-3018 34,-3018 34,-3012 40,-3006 46,-3006"/>
<text text-anchor="middle" x="176.373" y="-3101.2" font-family="Times,serif" font-size="11.00" fill="gray">Mail</text>
</g>
<g id="clust5" class="cluster"><title>cluster_\Drivers\Mail\System</title>
<path fill="none" stroke="gray" d="M242.746,-3014C242.746,-3014 298.746,-3014 298.746,-3014 304.746,-3014 310.746,-3020 310.746,-3026 310.746,-3026 310.746,-3074 310.746,-3074 310.746,-3080 304.746,-3086 298.746,-3086 298.746,-3086 242.746,-3086 242.746,-3086 236.746,-3086 230.746,-3080 230.746,-3074 230.746,-3074 230.746,-3026 230.746,-3026 230.746,-3020 236.746,-3014 242.746,-3014"/>
<text text-anchor="middle" x="270.746" y="-3073.2" font-family="Times,serif" font-size="11.00" fill="gray">System</text>
</g>
<g id="clust6" class="cluster"><title>cluster_\Drivers\Database</title>
<path fill="none" stroke="gray" d="M36,-2620C36,-2620 316.746,-2620 316.746,-2620 322.746,-2620 328.746,-2626 328.746,-2632 328.746,-2632 328.746,-2986 328.746,-2986 328.746,-2992 322.746,-2998 316.746,-2998 316.746,-2998 36,-2998 36,-2998 30,-2998 24,-2992 24,-2986 24,-2986 24,-2632 24,-2632 24,-2626 30,-2620 36,-2620"/>
<text text-anchor="middle" x="176.373" y="-2985.2" font-family="Times,serif" font-size="11.00" fill="gray">Database</text>
</g>
<g id="clust7" class="cluster"><title>cluster_\Drivers\Database\PDO</title>
<path fill="none" stroke="gray" d="M232.746,-2628C232.746,-2628 308.746,-2628 308.746,-2628 314.746,-2628 320.746,-2634 320.746,-2640 320.746,-2640 320.746,-2958 320.746,-2958 320.746,-2964 314.746,-2970 308.746,-2970 308.746,-2970 232.746,-2970 232.746,-2970 226.746,-2970 220.746,-2964 220.746,-2958 220.746,-2958 220.746,-2640 220.746,-2640 220.746,-2634 226.746,-2628 232.746,-2628"/>
<text text-anchor="middle" x="270.746" y="-2957.2" font-family="Times,serif" font-size="11.00" fill="gray">PDO</text>
</g>
<g id="clust8" class="cluster"><title>cluster_\Drivers\Payment</title>
<path fill="none" stroke="gray" d="M242.746,-2540C242.746,-2540 298.746,-2540 298.746,-2540 304.746,-2540 310.746,-2546 310.746,-2552 310.746,-2552 310.746,-2600 310.746,-2600 310.746,-2606 304.746,-2612 298.746,-2612 298.746,-2612 242.746,-2612 242.746,-2612 236.746,-2612 230.746,-2606 230.746,-2600 230.746,-2600 230.746,-2552 230.746,-2552 230.746,-2546 236.746,-2540 242.746,-2540"/>
<text text-anchor="middle" x="270.746" y="-2599.2" font-family="Times,serif" font-size="11.00" fill="gray">Payment</text>
</g>
<g id="clust9" class="cluster"><title>cluster_\Drivers\SocialLogin</title>
<path fill="none" stroke="gray" d="M242.746,-2460C242.746,-2460 298.746,-2460 298.746,-2460 304.746,-2460 310.746,-2466 310.746,-2472 310.746,-2472 310.746,-2520 310.746,-2520 310.746,-2526 304.746,-2532 298.746,-2532 298.746,-2532 242.746,-2532 242.746,-2532 236.746,-2532 230.746,-2526 230.746,-2520 230.746,-2520 230.746,-2472 230.746,-2472 230.746,-2466 236.746,-2460 242.746,-2460"/>
<text text-anchor="middle" x="270.746" y="-2519.2" font-family="Times,serif" font-size="11.00" fill="gray">SocialLogin</text>
</g>
<g id="clust10" class="cluster"><title>cluster_\Plugins</title>
<path fill="none" stroke="gray" d="M46,-1968C46,-1968 306.746,-1968 306.746,-1968 312.746,-1968 318.746,-1974 318.746,-1980 318.746,-1980 318.746,-2432 318.746,-2432 318.746,-2438 312.746,-2444 306.746,-2444 306.746,-2444 46,-2444 46,-2444 40,-2444 34,-2438 34,-2432 34,-2432 34,-1980 34,-1980 34,-1974 40,-1968 46,-1968"/>
<text text-anchor="middle" x="176.373" y="-2431.2" font-family="Times,serif" font-size="11.00" fill="gray">Plugins</text>
</g>
<g id="clust11" class="cluster"><title>cluster_\Plugins\Gallery</title>
<path fill="none" stroke="gray" d="M242.746,-2236C242.746,-2236 298.746,-2236 298.746,-2236 304.746,-2236 310.746,-2242 310.746,-2248 310.746,-2248 310.746,-2404 310.746,-2404 310.746,-2410 304.746,-2416 298.746,-2416 298.746,-2416 242.746,-2416 242.746,-2416 236.746,-2416 230.746,-2410 230.746,-2404 230.746,-2404 230.746,-2248 230.746,-2248 230.746,-2242 236.746,-2236 242.746,-2236"/>
<text text-anchor="middle" x="270.746" y="-2403.2" font-family="Times,serif" font-size="11.00" fill="gray">Gallery</text>
</g>
<g id="clust12" class="cluster"><title>cluster_\Plugins\Admin</title>
<path fill="none" stroke="gray" d="M242.746,-2102C242.746,-2102 298.746,-2102 298.746,-2102 304.746,-2102 310.746,-2108 310.746,-2114 310.746,-2114 310.746,-2216 310.746,-2216 310.746,-2222 304.746,-2228 298.746,-2228 298.746,-2228 242.746,-2228 242.746,-2228 236.746,-2228 230.746,-2222 230.746,-2216 230.746,-2216 230.746,-2114 230.746,-2114 230.746,-2108 236.746,-2102 242.746,-2102"/>
<text text-anchor="middle" x="270.746" y="-2215.2" font-family="Times,serif" font-size="11.00" fill="gray">Admin</text>
</g>
<g id="clust13" class="cluster"><title>cluster_\Plugins\MaterialAuth</title>
<path fill="none" stroke="gray" d="M242.746,-2022C242.746,-2022 298.746,-2022 298.746,-2022 304.746,-2022 310.746,-2028 310.746,-2034 310.746,-2034 310.746,-2082 310.746,-2082 310.746,-2088 304.746,-2094 298.746,-2094 298.746,-2094 242.746,-2094 242.746,-2094 236.746,-2094 230.746,-2088 230.746,-2082 230.746,-2082 230.746,-2034 230.746,-2034 230.746,-2028 236.746,-2022 242.746,-2022"/>
<text text-anchor="middle" x="270.746" y="-2081.2" font-family="Times,serif" font-size="11.00" fill="gray">MaterialAuth</text>
</g>
<!-- \\Core\\Conf -->
<g id="node1" class="node"><title>\\Core\\Conf</title>
<polygon fill="none" stroke="black" points="297.746,-1932 243.746,-1932 243.746,-1896 297.746,-1896 297.746,-1932"/>
<text text-anchor="middle" x="270.746" y="-1911.2" font-family="Courier,monospace" font-size="11.00">Conf</text>
</g>
<!-- \\Core\\Http -->
<g id="node2" class="node"><title>\\Core\\Http</title>
<polygon fill="none" stroke="black" points="297.746,-1878 243.746,-1878 243.746,-1842 297.746,-1842 297.746,-1878"/>
<text text-anchor="middle" x="270.746" y="-1857.2" font-family="Courier,monospace" font-size="11.00">Http</text>
</g>
<!-- \\Core\\Dir -->
<g id="node3" class="node"><title>\\Core\\Dir</title>
<polygon fill="none" stroke="black" points="297.746,-1824 243.746,-1824 243.746,-1788 297.746,-1788 297.746,-1824"/>
<text text-anchor="middle" x="270.746" y="-1803.2" font-family="Courier,monospace" font-size="11.00">Dir</text>
</g>
<!-- \\Core\\Cli -->
<g id="node4" class="node"><title>\\Core\\Cli</title>
<polygon fill="none" stroke="black" points="297.746,-1770 243.746,-1770 243.746,-1734 297.746,-1734 297.746,-1770"/>
<text text-anchor="middle" x="270.746" y="-1749.2" font-family="Courier,monospace" font-size="11.00">Cli</text>
</g>
<!-- \\Core\\Plugin -->
<g id="node5" class="node"><title>\\Core\\Plugin</title>
<polygon fill="none" stroke="black" points="299.246,-1716 242.246,-1716 242.246,-1680 299.246,-1680 299.246,-1716"/>
<text text-anchor="middle" x="270.746" y="-1695.2" font-family="Courier,monospace" font-size="11.00">Plugin</text>
</g>
<!-- \\Core\\Hash -->
<g id="node6" class="node"><title>\\Core\\Hash</title>
<polygon fill="none" stroke="black" points="297.746,-1662 243.746,-1662 243.746,-1626 297.746,-1626 297.746,-1662"/>
<text text-anchor="middle" x="270.746" y="-1641.2" font-family="Courier,monospace" font-size="11.00">Hash</text>
</g>
<!-- \\Core\\Ini -->
<g id="node7" class="node"><title>\\Core\\Ini</title>
<polygon fill="none" stroke="black" points="297.746,-1608 243.746,-1608 243.746,-1572 297.746,-1572 297.746,-1608"/>
<text text-anchor="middle" x="270.746" y="-1587.2" font-family="Courier,monospace" font-size="11.00">Ini</text>
</g>
<!-- \\Core\\Phone -->
<g id="node8" class="node"><title>\\Core\\Phone</title>
<polygon fill="none" stroke="black" points="297.746,-1554 243.746,-1554 243.746,-1518 297.746,-1518 297.746,-1554"/>
<text text-anchor="middle" x="270.746" y="-1533.2" font-family="Courier,monospace" font-size="11.00">Phone</text>
</g>
<!-- \\Core\\Session -->
<g id="node9" class="node"><title>\\Core\\Session</title>
<polygon fill="none" stroke="black" points="302.746,-1500 238.746,-1500 238.746,-1464 302.746,-1464 302.746,-1500"/>
<text text-anchor="middle" x="270.746" y="-1479.2" font-family="Courier,monospace" font-size="11.00">Session</text>
</g>
<!-- \\Core\\Argv -->
<g id="node10" class="node"><title>\\Core\\Argv</title>
<polygon fill="none" stroke="black" points="297.746,-1446 243.746,-1446 243.746,-1410 297.746,-1410 297.746,-1446"/>
<text text-anchor="middle" x="270.746" y="-1425.2" font-family="Courier,monospace" font-size="11.00">Argv</text>
</g>
<!-- \\Core\\View -->
<g id="node11" class="node"><title>\\Core\\View</title>
<polygon fill="none" stroke="black" points="297.746,-1392 243.746,-1392 243.746,-1356 297.746,-1356 297.746,-1392"/>
<text text-anchor="middle" x="270.746" y="-1371.2" font-family="Courier,monospace" font-size="11.00">View</text>
</g>
<!-- \\Core\\ApiException -->
<g id="node12" class="node"><title>\\Core\\ApiException</title>
<polygon fill="none" stroke="black" points="319.746,-1338 221.746,-1338 221.746,-1302 319.746,-1302 319.746,-1338"/>
<text text-anchor="middle" x="270.746" y="-1317.2" font-family="Courier,monospace" font-size="11.00">ApiException</text>
</g>
<!-- \\Exception -->
<g id="node60" class="node"><title>\\Exception</title>
<ellipse fill="none" stroke="black" cx="74" cy="-72" rx="48.9926" ry="18"/>
<text text-anchor="middle" x="74" y="-68.3" font-family="Times,serif" font-size="14.00" fill="gray">\Exception</text>
</g>
<!-- \\Core\\ApiException&#45;&gt;\\Exception -->
<g id="edge5" class="edge"><title>\\Core\\ApiException&#45;&gt;\\Exception</title>
<path fill="none" stroke="black" d="M221.475,-1314.24C208.324,-1310.3 195.349,-1303.78 186.746,-1293 109.786,-1196.61 80.5821,-273.875 75.7449,-100.133"/>
<polygon fill="none" stroke="black" points="79.24,-99.9037 75.4671,-90.0034 72.2426,-100.096 79.24,-99.9037"/>
</g>
<!-- \\Core\\Redirect -->
<g id="node13" class="node"><title>\\Core\\Redirect</title>
<polygon fill="none" stroke="black" points="306.246,-1284 235.246,-1284 235.246,-1248 306.246,-1248 306.246,-1284"/>
<text text-anchor="middle" x="270.746" y="-1263.2" font-family="Courier,monospace" font-size="11.00">Redirect</text>
</g>
<!-- \\Core\\Debug -->
<g id="node14" class="node"><title>\\Core\\Debug</title>
<polygon fill="none" stroke="black" points="297.746,-1230 243.746,-1230 243.746,-1194 297.746,-1194 297.746,-1230"/>
<text text-anchor="middle" x="270.746" y="-1209.2" font-family="Courier,monospace" font-size="11.00">Debug</text>
</g>
<!-- \\Core\\Money -->
<g id="node15" class="node"><title>\\Core\\Money</title>
<polygon fill="none" stroke="black" points="297.746,-1176 243.746,-1176 243.746,-1140 297.746,-1140 297.746,-1176"/>
<text text-anchor="middle" x="270.746" y="-1155.2" font-family="Courier,monospace" font-size="11.00">Money</text>
</g>
<!-- \\Core\\ArrayTools -->
<g id="node16" class="node"><title>\\Core\\ArrayTools</title>
<polygon fill="none" stroke="black" points="312.746,-1122 228.746,-1122 228.746,-1086 312.746,-1086 312.746,-1122"/>
<text text-anchor="middle" x="270.746" y="-1101.2" font-family="Courier,monospace" font-size="11.00">ArrayTools</text>
</g>
<!-- \\Core\\Mail -->
<g id="node17" class="node"><title>\\Core\\Mail</title>
<polygon fill="none" stroke="black" points="297.746,-1068 243.746,-1068 243.746,-1032 297.746,-1032 297.746,-1068"/>
<text text-anchor="middle" x="270.746" y="-1047.2" font-family="Courier,monospace" font-size="11.00">Mail</text>
</g>
<!-- \\Core\\Text -->
<g id="node18" class="node"><title>\\Core\\Text</title>
<polygon fill="none" stroke="black" points="297.746,-1014 243.746,-1014 243.746,-978 297.746,-978 297.746,-1014"/>
<text text-anchor="middle" x="270.746" y="-993.2" font-family="Courier,monospace" font-size="11.00">Text</text>
</g>
<!-- \\Core\\Upload -->
<g id="node19" class="node"><title>\\Core\\Upload</title>
<polygon fill="none" stroke="black" points="299.246,-960 242.246,-960 242.246,-924 299.246,-924 299.246,-960"/>
<text text-anchor="middle" x="270.746" y="-939.2" font-family="Courier,monospace" font-size="11.00">Upload</text>
</g>
<!-- \\Core\\Number -->
<g id="node20" class="node"><title>\\Core\\Number</title>
<polygon fill="none" stroke="black" points="299.246,-906 242.246,-906 242.246,-870 299.246,-870 299.246,-906"/>
<text text-anchor="middle" x="270.746" y="-885.2" font-family="Courier,monospace" font-size="11.00">Number</text>
</g>
<!-- \\Core\\IP -->
<g id="node21" class="node"><title>\\Core\\IP</title>
<polygon fill="none" stroke="black" points="297.746,-852 243.746,-852 243.746,-816 297.746,-816 297.746,-852"/>
<text text-anchor="middle" x="270.746" y="-831.2" font-family="Courier,monospace" font-size="11.00">IP</text>
</g>
<!-- \\Core\\JSON -->
<g id="node22" class="node"><title>\\Core\\JSON</title>
<polygon fill="none" stroke="black" points="297.746,-798 243.746,-798 243.746,-762 297.746,-762 297.746,-798"/>
<text text-anchor="middle" x="270.746" y="-777.2" font-family="Courier,monospace" font-size="11.00">JSON</text>
</g>
<!-- \\Core\\Date -->
<g id="node23" class="node"><title>\\Core\\Date</title>
<polygon fill="none" stroke="black" points="297.746,-744 243.746,-744 243.746,-708 297.746,-708 297.746,-744"/>
<text text-anchor="middle" x="270.746" y="-723.2" font-family="Courier,monospace" font-size="11.00">Date</text>
</g>
<!-- \\Core\\Api -->
<g id="node24" class="node"><title>\\Core\\Api</title>
<polygon fill="none" stroke="black" points="297.746,-690 243.746,-690 243.746,-654 297.746,-654 297.746,-690"/>
<text text-anchor="middle" x="270.746" y="-669.2" font-family="Courier,monospace" font-size="11.00">Api</text>
</g>
<!-- \\Core\\Controller -->
<g id="node25" class="node"><title>\\Core\\Controller</title>
<polygon fill="none" stroke="black" points="312.746,-636 228.746,-636 228.746,-600 312.746,-600 312.746,-636"/>
<text text-anchor="middle" x="270.746" y="-615.2" font-family="Courier,monospace" font-size="11.00">Controller</text>
</g>
<!-- \\Core\\i18n -->
<g id="node26" class="node"><title>\\Core\\i18n</title>
<polygon fill="none" stroke="black" points="297.746,-582 243.746,-582 243.746,-546 297.746,-546 297.746,-582"/>
<text text-anchor="middle" x="270.746" y="-561.2" font-family="Courier,monospace" font-size="11.00">i18n</text>
</g>
<!-- \\Core\\Db -->
<g id="node27" class="node"><title>\\Core\\Db</title>
<polygon fill="none" stroke="black" points="297.746,-528 243.746,-528 243.746,-492 297.746,-492 297.746,-528"/>
<text text-anchor="middle" x="270.746" y="-507.2" font-family="Courier,monospace" font-size="11.00">Db</text>
</g>
<!-- \\Core\\Auth -->
<g id="node28" class="node"><title>\\Core\\Auth</title>
<polygon fill="none" stroke="black" points="297.746,-474 243.746,-474 243.746,-438 297.746,-438 297.746,-474"/>
<text text-anchor="middle" x="270.746" y="-453.2" font-family="Courier,monospace" font-size="11.00">Auth</text>
</g>
<!-- \\Core\\Countries -->
<g id="node29" class="node"><title>\\Core\\Countries</title>
<polygon fill="none" stroke="black" points="309.246,-420 232.246,-420 232.246,-384 309.246,-384 309.246,-420"/>
<text text-anchor="middle" x="270.746" y="-399.2" font-family="Courier,monospace" font-size="11.00">Countries</text>
</g>
<!-- \\Core\\Bundle -->
<g id="node30" class="node"><title>\\Core\\Bundle</title>
<polygon fill="none" stroke="black" points="299.246,-366 242.246,-366 242.246,-330 299.246,-330 299.246,-366"/>
<text text-anchor="middle" x="270.746" y="-345.2" font-family="Courier,monospace" font-size="11.00">Bundle</text>
</g>
<!-- \\Core\\ModelIterator -->
<g id="node31" class="node"><title>\\Core\\ModelIterator</title>
<polygon fill="none" stroke="black" points="322.746,-312 218.746,-312 218.746,-276 322.746,-276 322.746,-312"/>
<text text-anchor="middle" x="270.746" y="-291.2" font-family="Courier,monospace" font-size="11.00">ModelIterator</text>
</g>
<!-- \\Iterator -->
<g id="node61" class="node"><title>\\Iterator</title>
<ellipse fill="none" stroke="black" cx="74" cy="-18" rx="38.9931" ry="18"/>
<text text-anchor="middle" x="74" y="-14.3" font-family="Times,serif" font-size="14.00" fill="gray">\Iterator</text>
</g>
<!-- \\Core\\ModelIterator&#45;&gt;\\Iterator -->
<g id="edge14" class="edge"><title>\\Core\\ModelIterator&#45;&gt;\\Iterator</title>
<path fill="none" stroke="black" stroke-dasharray="1,5" d="M218.375,-285.77C206.718,-281.768 195.277,-275.825 186.746,-267 115.375,-193.173 186.383,-125.588 122.746,-45 119.88,-41.3706 116.383,-38.1467 112.598,-35.3048"/>
<polygon fill="none" stroke="black" points="114.272,-32.2178 103.984,-29.6851 110.447,-38.0805 114.272,-32.2178"/>
</g>
<!-- \\Core\\Model -->
<g id="node32" class="node"><title>\\Core\\Model</title>
<polygon fill="none" stroke="black" points="297.746,-258 243.746,-258 243.746,-222 297.746,-222 297.746,-258"/>
<text text-anchor="middle" x="270.746" y="-237.2" font-family="Courier,monospace" font-size="11.00">Model</text>
</g>
<!-- \\Core\\ConfData -->
<g id="node33" class="node"><title>\\Core\\ConfData</title>
<polygon fill="none" stroke="black" points="306.246,-204 235.246,-204 235.246,-168 306.246,-168 306.246,-204"/>
<text text-anchor="middle" x="270.746" y="-183.2" font-family="Courier,monospace" font-size="11.00">ConfData</text>
</g>
<!-- \\Core\\InstantiatedConfData -->
<g id="node34" class="node"><title>\\Core\\InstantiatedConfData</title>
<polygon fill="none" stroke="black" points="346.746,-150 194.746,-150 194.746,-114 346.746,-114 346.746,-150"/>
<text text-anchor="middle" x="270.746" y="-129.2" font-family="Courier,monospace" font-size="11.00">InstantiatedConfData</text>
</g>
<!-- \\Drivers\\Mail\\System\\Factory -->
<g id="node35" class="node"><title>\\Drivers\\Mail\\System\\Factory</title>
<polygon fill="none" stroke="black" points="302.746,-3058 238.746,-3058 238.746,-3022 302.746,-3022 302.746,-3058"/>
<text text-anchor="middle" x="270.746" y="-3037.2" font-family="Courier,monospace" font-size="11.00">Factory</text>
</g>
<!-- \\Drivers\\Mail\\Factory -->
<g id="node36" class="node"><title>\\Drivers\\Mail\\Factory</title>
<polygon fill="none" stroke="black" points="106,-3058 42,-3058 42,-3022 106,-3022 106,-3058"/>
<text text-anchor="middle" x="74" y="-3037.2" font-family="Courier,monospace" font-size="11.00">Factory</text>
</g>
<!-- \\Drivers\\Mail\\System\\Factory&#45;&gt;\\Drivers\\Mail\\Factory -->
<g id="edge1" class="edge"><title>\\Drivers\\Mail\\System\\Factory&#45;&gt;\\Drivers\\Mail\\Factory</title>
<path fill="none" stroke="black" stroke-dasharray="1,5" d="M238.456,-3040C205.38,-3040 153.041,-3040 116.528,-3040"/>
<polygon fill="none" stroke="black" points="116.212,-3036.5 106.212,-3040 116.212,-3043.5 116.212,-3036.5"/>
</g>
<!-- \\Drivers\\Database\\PDO\\MongoToSQL -->
<g id="node37" class="node"><title>\\Drivers\\Database\\PDO\\MongoToSQL</title>
<polygon fill="none" stroke="black" points="312.746,-2942 228.746,-2942 228.746,-2906 312.746,-2906 312.746,-2942"/>
<text text-anchor="middle" x="270.746" y="-2921.2" font-family="Courier,monospace" font-size="11.00">MongoToSQL</text>
</g>
<!-- \\Drivers\\Database\\PDO\\Regex -->
<g id="node38" class="node"><title>\\Drivers\\Database\\PDO\\Regex</title>
<polygon fill="none" stroke="black" points="297.746,-2672 243.746,-2672 243.746,-2636 297.746,-2636 297.746,-2672"/>
<text text-anchor="middle" x="270.746" y="-2651.2" font-family="Courier,monospace" font-size="11.00">Regex</text>
</g>
<!-- \\Drivers\\Database\\Regex -->
<g id="node45" class="node"><title>\\Drivers\\Database\\Regex</title>
<polygon fill="none" stroke="black" points="101,-2672 47,-2672 47,-2636 101,-2636 101,-2672"/>
<text text-anchor="middle" x="74" y="-2651.2" font-family="Courier,monospace" font-size="11.00">Regex</text>
</g>
<!-- \\Drivers\\Database\\PDO\\Regex&#45;&gt;\\Drivers\\Database\\Regex -->
<g id="edge3" class="edge"><title>\\Drivers\\Database\\PDO\\Regex&#45;&gt;\\Drivers\\Database\\Regex</title>
<path fill="none" stroke="black" stroke-dasharray="1,5" d="M243.481,-2654C209.412,-2654 149.806,-2654 111.392,-2654"/>
<polygon fill="none" stroke="black" points="111.158,-2650.5 101.158,-2654 111.158,-2657.5 111.158,-2650.5"/>
</g>
<!-- \\Drivers\\Database\\PDO\\Id -->
<g id="node39" class="node"><title>\\Drivers\\Database\\PDO\\Id</title>
<polygon fill="none" stroke="black" points="297.746,-2726 243.746,-2726 243.746,-2690 297.746,-2690 297.746,-2726"/>
<text text-anchor="middle" x="270.746" y="-2705.2" font-family="Courier,monospace" font-size="11.00">Id</text>
</g>
<!-- \\Drivers\\Database\\Id -->
<g id="node47" class="node"><title>\\Drivers\\Database\\Id</title>
<polygon fill="none" stroke="black" points="101,-2726 47,-2726 47,-2690 101,-2690 101,-2726"/>
<text text-anchor="middle" x="74" y="-2705.2" font-family="Courier,monospace" font-size="11.00">Id</text>
</g>
<!-- \\Drivers\\Database\\PDO\\Id&#45;&gt;\\Drivers\\Database\\Id -->
<g id="edge4" class="edge"><title>\\Drivers\\Database\\PDO\\Id&#45;&gt;\\Drivers\\Database\\Id</title>
<path fill="none" stroke="black" stroke-dasharray="1,5" d="M243.481,-2708C209.412,-2708 149.806,-2708 111.392,-2708"/>
<polygon fill="none" stroke="black" points="111.158,-2704.5 101.158,-2708 111.158,-2711.5 111.158,-2704.5"/>
</g>
<!-- \\Drivers\\Database\\PDO\\Date -->
<g id="node40" class="node"><title>\\Drivers\\Database\\PDO\\Date</title>
<polygon fill="none" stroke="black" points="297.746,-2780 243.746,-2780 243.746,-2744 297.746,-2744 297.746,-2780"/>
<text text-anchor="middle" x="270.746" y="-2759.2" font-family="Courier,monospace" font-size="11.00">Date</text>
</g>
<!-- \\Drivers\\Database\\Date -->
<g id="node44" class="node"><title>\\Drivers\\Database\\Date</title>
<polygon fill="none" stroke="black" points="101,-2780 47,-2780 47,-2744 101,-2744 101,-2780"/>
<text text-anchor="middle" x="74" y="-2759.2" font-family="Courier,monospace" font-size="11.00">Date</text>
</g>
<!-- \\Drivers\\Database\\PDO\\Date&#45;&gt;\\Drivers\\Database\\Date -->
<g id="edge6" class="edge"><title>\\Drivers\\Database\\PDO\\Date&#45;&gt;\\Drivers\\Database\\Date</title>
<path fill="none" stroke="black" stroke-dasharray="1,5" d="M243.481,-2762C209.412,-2762 149.806,-2762 111.392,-2762"/>
<polygon fill="none" stroke="black" points="111.158,-2758.5 101.158,-2762 111.158,-2765.5 111.158,-2758.5"/>
</g>
<!-- \\Drivers\\Database\\PDO\\Collection -->
<g id="node41" class="node"><title>\\Drivers\\Database\\PDO\\Collection</title>
<polygon fill="none" stroke="black" points="312.746,-2834 228.746,-2834 228.746,-2798 312.746,-2798 312.746,-2834"/>
<text text-anchor="middle" x="270.746" y="-2813.2" font-family="Courier,monospace" font-size="11.00">Collection</text>
</g>
<!-- \\Drivers\\Database\\Collection -->
<g id="node46" class="node"><title>\\Drivers\\Database\\Collection</title>
<polygon fill="none" stroke="black" points="116,-2834 32,-2834 32,-2798 116,-2798 116,-2834"/>
<text text-anchor="middle" x="74" y="-2813.2" font-family="Courier,monospace" font-size="11.00">Collection</text>
</g>
<!-- \\Drivers\\Database\\PDO\\Collection&#45;&gt;\\Drivers\\Database\\Collection -->
<g id="edge7" class="edge"><title>\\Drivers\\Database\\PDO\\Collection&#45;&gt;\\Drivers\\Database\\Collection</title>
<path fill="none" stroke="black" stroke-dasharray="1,5" d="M228.445,-2816C198.624,-2816 158.158,-2816 126.269,-2816"/>
<polygon fill="none" stroke="black" points="126.241,-2812.5 116.241,-2816 126.241,-2819.5 126.241,-2812.5"/>
</g>
<!-- \\Drivers\\Database\\PDO\\Factory -->
<g id="node42" class="node"><title>\\Drivers\\Database\\PDO\\Factory</title>
<polygon fill="none" stroke="black" points="302.746,-2888 238.746,-2888 238.746,-2852 302.746,-2852 302.746,-2888"/>
<text text-anchor="middle" x="270.746" y="-2867.2" font-family="Courier,monospace" font-size="11.00">Factory</text>
</g>
<!-- \\Drivers\\Database\\Factory -->
<g id="node43" class="node"><title>\\Drivers\\Database\\Factory</title>
<polygon fill="none" stroke="black" points="106,-2888 42,-2888 42,-2852 106,-2852 106,-2888"/>
<text text-anchor="middle" x="74" y="-2867.2" font-family="Courier,monospace" font-size="11.00">Factory</text>
</g>
<!-- \\Drivers\\Database\\PDO\\Factory&#45;&gt;\\Drivers\\Database\\Factory -->
<g id="edge11" class="edge"><title>\\Drivers\\Database\\PDO\\Factory&#45;&gt;\\Drivers\\Database\\Factory</title>
<path fill="none" stroke="black" stroke-dasharray="1,5" d="M238.456,-2870C205.38,-2870 153.041,-2870 116.528,-2870"/>
<polygon fill="none" stroke="black" points="116.212,-2866.5 106.212,-2870 116.212,-2873.5 116.212,-2866.5"/>
</g>
<!-- \\Drivers\\Payment\\Factory -->
<g id="node48" class="node"><title>\\Drivers\\Payment\\Factory</title>
<polygon fill="none" stroke="black" points="302.746,-2584 238.746,-2584 238.746,-2548 302.746,-2548 302.746,-2584"/>
<text text-anchor="middle" x="270.746" y="-2563.2" font-family="Courier,monospace" font-size="11.00">Factory</text>
</g>
<!-- \\Drivers\\SocialLogin\\Factory -->
<g id="node49" class="node"><title>\\Drivers\\SocialLogin\\Factory</title>
<polygon fill="none" stroke="black" points="302.746,-2504 238.746,-2504 238.746,-2468 302.746,-2468 302.746,-2504"/>
<text text-anchor="middle" x="270.746" y="-2483.2" font-family="Courier,monospace" font-size="11.00">Factory</text>
</g>
<!-- \\Plugins\\Gallery\\Admin -->
<g id="node50" class="node"><title>\\Plugins\\Gallery\\Admin</title>
<polygon fill="none" stroke="black" points="297.746,-2334 243.746,-2334 243.746,-2298 297.746,-2298 297.746,-2334"/>
<text text-anchor="middle" x="270.746" y="-2313.2" font-family="Courier,monospace" font-size="11.00">Admin</text>
</g>
<!-- \\Plugins\\Admin -->
<g id="node56" class="node"><title>\\Plugins\\Admin</title>
<polygon fill="none" stroke="black" points="101,-2267 47,-2267 47,-2231 101,-2231 101,-2267"/>
<text text-anchor="middle" x="74" y="-2246.2" font-family="Courier,monospace" font-size="11.00">Admin</text>
</g>
<!-- \\Plugins\\Gallery\\Admin&#45;&gt;\\Plugins\\Admin -->
<g id="edge2" class="edge"><title>\\Plugins\\Gallery\\Admin&#45;&gt;\\Plugins\\Admin</title>
<path fill="none" stroke="black" stroke-dasharray="1,5" d="M243.513,-2307.68C227.15,-2302.44 205.674,-2295.46 186.746,-2289 161.212,-2280.28 132.562,-2270.01 110.665,-2262.07"/>
<polygon fill="none" stroke="black" points="111.709,-2258.72 101.115,-2258.59 109.316,-2265.3 111.709,-2258.72"/>
</g>
<!-- \\Plugins\\Gallery\\Api -->
<g id="node51" class="node"><title>\\Plugins\\Gallery\\Api</title>
<polygon fill="none" stroke="black" points="297.746,-2388 243.746,-2388 243.746,-2352 297.746,-2352 297.746,-2388"/>
<text text-anchor="middle" x="270.746" y="-2367.2" font-family="Courier,monospace" font-size="11.00">Api</text>
</g>
<!-- \\Plugins\\Api -->
<g id="node57" class="node"><title>\\Plugins\\Api</title>
<polygon fill="none" stroke="black" points="101,-2388 47,-2388 47,-2352 101,-2352 101,-2388"/>
<text text-anchor="middle" x="74" y="-2367.2" font-family="Courier,monospace" font-size="11.00">Api</text>
</g>
<!-- \\Plugins\\Gallery\\Api&#45;&gt;\\Plugins\\Api -->
<g id="edge9" class="edge"><title>\\Plugins\\Gallery\\Api&#45;&gt;\\Plugins\\Api</title>
<path fill="none" stroke="black" stroke-dasharray="1,5" d="M243.481,-2370C209.412,-2370 149.806,-2370 111.392,-2370"/>
<polygon fill="none" stroke="black" points="111.158,-2366.5 101.158,-2370 111.158,-2373.5 111.158,-2366.5"/>
</g>
<!-- \\Plugins\\Gallery\\Factory -->
<g id="node52" class="node"><title>\\Plugins\\Gallery\\Factory</title>
<polygon fill="none" stroke="black" points="302.746,-2280 238.746,-2280 238.746,-2244 302.746,-2244 302.746,-2280"/>
<text text-anchor="middle" x="270.746" y="-2259.2" font-family="Courier,monospace" font-size="11.00">Factory</text>
</g>
<!-- \\Plugins\\Factory -->
<g id="node58" class="node"><title>\\Plugins\\Factory</title>
<polygon fill="none" stroke="black" points="106,-2146 42,-2146 42,-2110 106,-2110 106,-2146"/>
<text text-anchor="middle" x="74" y="-2125.2" font-family="Courier,monospace" font-size="11.00">Factory</text>
</g>
<!-- \\Plugins\\Gallery\\Factory&#45;&gt;\\Plugins\\Factory -->
<g id="edge13" class="edge"><title>\\Plugins\\Gallery\\Factory&#45;&gt;\\Plugins\\Factory</title>
<path fill="none" stroke="black" stroke-dasharray="1,5" d="M238.443,-2253.95C222.298,-2249.01 202.7,-2241.74 186.746,-2232 151.742,-2210.63 118.223,-2177.09 97.1851,-2153.9"/>
<polygon fill="none" stroke="black" points="99.5531,-2151.3 90.2824,-2146.17 94.3313,-2155.96 99.5531,-2151.3"/>
</g>
<!-- \\Plugins\\Admin\\Factory -->
<g id="node53" class="node"><title>\\Plugins\\Admin\\Factory</title>
<polygon fill="none" stroke="black" points="302.746,-2146 238.746,-2146 238.746,-2110 302.746,-2110 302.746,-2146"/>
<text text-anchor="middle" x="270.746" y="-2125.2" font-family="Courier,monospace" font-size="11.00">Factory</text>
</g>
<!-- \\Plugins\\Admin\\Factory&#45;&gt;\\Plugins\\Factory -->
<g id="edge8" class="edge"><title>\\Plugins\\Admin\\Factory&#45;&gt;\\Plugins\\Factory</title>
<path fill="none" stroke="black" stroke-dasharray="1,5" d="M238.456,-2128C205.38,-2128 153.041,-2128 116.528,-2128"/>
<polygon fill="none" stroke="black" points="116.212,-2124.5 106.212,-2128 116.212,-2131.5 116.212,-2124.5"/>
</g>
<!-- \\Plugins\\Admin\\Admin -->
<g id="node54" class="node"><title>\\Plugins\\Admin\\Admin</title>
<polygon fill="none" stroke="black" points="297.746,-2200 243.746,-2200 243.746,-2164 297.746,-2164 297.746,-2200"/>
<text text-anchor="middle" x="270.746" y="-2179.2" font-family="Courier,monospace" font-size="11.00">Admin</text>
</g>
<!-- \\Plugins\\Admin\\Admin&#45;&gt;\\Plugins\\Admin -->
<g id="edge12" class="edge"><title>\\Plugins\\Admin\\Admin&#45;&gt;\\Plugins\\Admin</title>
<path fill="none" stroke="black" stroke-dasharray="1,5" d="M243.481,-2191.04C209.267,-2202.81 149.297,-2223.44 110.901,-2236.65"/>
<polygon fill="none" stroke="black" points="109.476,-2233.44 101.158,-2240 111.753,-2240.06 109.476,-2233.44"/>
</g>
<!-- \\Plugins\\MaterialAuth\\Factory -->
<g id="node55" class="node"><title>\\Plugins\\MaterialAuth\\Factory</title>
<polygon fill="none" stroke="black" points="302.746,-2066 238.746,-2066 238.746,-2030 302.746,-2030 302.746,-2066"/>
<text text-anchor="middle" x="270.746" y="-2045.2" font-family="Courier,monospace" font-size="11.00">Factory</text>
</g>
<!-- \\Plugins\\MaterialAuth\\Factory&#45;&gt;\\Plugins\\Factory -->
<g id="edge10" class="edge"><title>\\Plugins\\MaterialAuth\\Factory&#45;&gt;\\Plugins\\Factory</title>
<path fill="none" stroke="black" stroke-dasharray="1,5" d="M238.456,-2060.85C205.096,-2074.56 152.141,-2096.31 115.591,-2111.33"/>
<polygon fill="none" stroke="black" points="114.132,-2108.14 106.212,-2115.18 116.792,-2114.62 114.132,-2108.14"/>
</g>
<!-- \\Plugins\\Widgets -->
<g id="node59" class="node"><title>\\Plugins\\Widgets</title>
<polygon fill="none" stroke="black" points="302.746,-2012 238.746,-2012 238.746,-1976 302.746,-1976 302.746,-2012"/>
<text text-anchor="middle" x="270.746" y="-1991.2" font-family="Courier,monospace" font-size="11.00">Widgets</text>
</g>
</g>
</svg>
