<?xml version="1.0" encoding="UTF-8" standalone="no"?>
<!DOCTYPE svg PUBLIC "-//W3C//DTD SVG 1.1//EN"
 "http://www.w3.org/Graphics/SVG/1.1/DTD/svg11.dtd">
<!-- Generated by graphviz version 2.36.0 (20140111.2315)
 -->
<!-- Title: G Pages: 1 -->
<svg width="372pt" height="1850pt"
 viewBox="0.00 0.00 372.00 1850.00" xmlns="http://www.w3.org/2000/svg" xmlns:xlink="http://www.w3.org/1999/xlink">
<g id="graph0" class="graph" transform="scale(1 1) rotate(0) translate(4 1846)">
<title>G</title>
<polygon fill="white" stroke="none" points="-4,4 -4,-1846 368,-1846 368,4 -4,4"/>
<g id="clust1" class="cluster"><title>cluster_Global</title>
<path fill="none" stroke="gray" d="M20,-8C20,-8 344,-8 344,-8 350,-8 356,-14 356,-20 356,-20 356,-1822 356,-1822 356,-1828 350,-1834 344,-1834 344,-1834 20,-1834 20,-1834 14,-1834 8,-1828 8,-1822 8,-1822 8,-20 8,-20 8,-14 14,-8 20,-8"/>
<text text-anchor="middle" x="182" y="-1821.2" font-family="Times,serif" font-size="11.00" fill="gray">Global</text>
</g>
<g id="clust2" class="cluster"><title>cluster_\Core</title>
<path fill="none" stroke="gray" d="M192,-384C192,-384 336,-384 336,-384 342,-384 348,-390 348,-396 348,-396 348,-1794 348,-1794 348,-1800 342,-1806 336,-1806 336,-1806 192,-1806 192,-1806 186,-1806 180,-1800 180,-1794 180,-1794 180,-396 180,-396 180,-390 186,-384 192,-384"/>
<text text-anchor="middle" x="264" y="-1793.2" font-family="Times,serif" font-size="11.00" fill="gray">Core</text>
</g>
<g id="clust3" class="cluster"><title>cluster_\Drivers</title>
<path fill="none" stroke="gray" d="M28,-16C28,-16 318,-16 318,-16 324,-16 330,-22 330,-28 330,-28 330,-364 330,-364 330,-370 324,-376 318,-376 318,-376 28,-376 28,-376 22,-376 16,-370 16,-364 16,-364 16,-28 16,-28 16,-22 22,-16 28,-16"/>
<text text-anchor="middle" x="173" y="-363.2" font-family="Times,serif" font-size="11.00" fill="gray">Drivers</text>
</g>
<g id="clust4" class="cluster"><title>cluster_\Drivers\Database</title>
<path fill="none" stroke="gray" d="M36,-24C36,-24 310,-24 310,-24 316,-24 322,-30 322,-36 322,-36 322,-336 322,-336 322,-342 316,-348 310,-348 310,-348 36,-348 36,-348 30,-348 24,-342 24,-336 24,-336 24,-36 24,-36 24,-30 30,-24 36,-24"/>
<text text-anchor="middle" x="173" y="-335.2" font-family="Times,serif" font-size="11.00" fill="gray">Database</text>
</g>
<g id="clust5" class="cluster"><title>cluster_\Drivers\Database\PDO</title>
<path fill="none" stroke="gray" d="M226,-32C226,-32 302,-32 302,-32 308,-32 314,-38 314,-44 314,-44 314,-308 314,-308 314,-314 308,-320 302,-320 302,-320 226,-320 226,-320 220,-320 214,-314 214,-308 214,-308 214,-44 214,-44 214,-38 220,-32 226,-32"/>
<text text-anchor="middle" x="264" y="-307.2" font-family="Times,serif" font-size="11.00" fill="gray">PDO</text>
</g>
<!-- \\Core\\Conf -->
<g id="node1" class="node"><title>\\Core\\Conf</title>
<polygon fill="none" stroke="black" points="291,-1778 237,-1778 237,-1742 291,-1742 291,-1778"/>
<text text-anchor="middle" x="264" y="-1757.2" font-family="Courier,monospace" font-size="11.00">Conf</text>
</g>
<!-- \\Core\\Http -->
<g id="node2" class="node"><title>\\Core\\Http</title>
<polygon fill="none" stroke="black" points="291,-1724 237,-1724 237,-1688 291,-1688 291,-1724"/>
<text text-anchor="middle" x="264" y="-1703.2" font-family="Courier,monospace" font-size="11.00">Http</text>
</g>
<!-- \\Core\\Dir -->
<g id="node3" class="node"><title>\\Core\\Dir</title>
<polygon fill="none" stroke="black" points="291,-1670 237,-1670 237,-1634 291,-1634 291,-1670"/>
<text text-anchor="middle" x="264" y="-1649.2" font-family="Courier,monospace" font-size="11.00">Dir</text>
</g>
<!-- \\Core\\Cli -->
<g id="node4" class="node"><title>\\Core\\Cli</title>
<polygon fill="none" stroke="black" points="291,-1616 237,-1616 237,-1580 291,-1580 291,-1616"/>
<text text-anchor="middle" x="264" y="-1595.2" font-family="Courier,monospace" font-size="11.00">Cli</text>
</g>
<!-- \\Core\\Hash -->
<g id="node5" class="node"><title>\\Core\\Hash</title>
<polygon fill="none" stroke="black" points="291,-1562 237,-1562 237,-1526 291,-1526 291,-1562"/>
<text text-anchor="middle" x="264" y="-1541.2" font-family="Courier,monospace" font-size="11.00">Hash</text>
</g>
<!-- \\Core\\Ini -->
<g id="node6" class="node"><title>\\Core\\Ini</title>
<polygon fill="none" stroke="black" points="291,-1508 237,-1508 237,-1472 291,-1472 291,-1508"/>
<text text-anchor="middle" x="264" y="-1487.2" font-family="Courier,monospace" font-size="11.00">Ini</text>
</g>
<!-- \\Core\\Phone -->
<g id="node7" class="node"><title>\\Core\\Phone</title>
<polygon fill="none" stroke="black" points="291,-1454 237,-1454 237,-1418 291,-1418 291,-1454"/>
<text text-anchor="middle" x="264" y="-1433.2" font-family="Courier,monospace" font-size="11.00">Phone</text>
</g>
<!-- \\Core\\Session -->
<g id="node8" class="node"><title>\\Core\\Session</title>
<polygon fill="none" stroke="black" points="296,-1400 232,-1400 232,-1364 296,-1364 296,-1400"/>
<text text-anchor="middle" x="264" y="-1379.2" font-family="Courier,monospace" font-size="11.00">Session</text>
</g>
<!-- \\Core\\Argv -->
<g id="node9" class="node"><title>\\Core\\Argv</title>
<polygon fill="none" stroke="black" points="291,-1346 237,-1346 237,-1310 291,-1310 291,-1346"/>
<text text-anchor="middle" x="264" y="-1325.2" font-family="Courier,monospace" font-size="11.00">Argv</text>
</g>
<!-- \\Core\\View -->
<g id="node10" class="node"><title>\\Core\\View</title>
<polygon fill="none" stroke="black" points="291,-1292 237,-1292 237,-1256 291,-1256 291,-1292"/>
<text text-anchor="middle" x="264" y="-1271.2" font-family="Courier,monospace" font-size="11.00">View</text>
</g>
<!-- \\Core\\Redirect -->
<g id="node11" class="node"><title>\\Core\\Redirect</title>
<polygon fill="none" stroke="black" points="299.5,-1238 228.5,-1238 228.5,-1202 299.5,-1202 299.5,-1238"/>
<text text-anchor="middle" x="264" y="-1217.2" font-family="Courier,monospace" font-size="11.00">Redirect</text>
</g>
<!-- \\Core\\Money -->
<g id="node12" class="node"><title>\\Core\\Money</title>
<polygon fill="none" stroke="black" points="291,-1184 237,-1184 237,-1148 291,-1148 291,-1184"/>
<text text-anchor="middle" x="264" y="-1163.2" font-family="Courier,monospace" font-size="11.00">Money</text>
</g>
<!-- \\Core\\ArrayTools -->
<g id="node13" class="node"><title>\\Core\\ArrayTools</title>
<polygon fill="none" stroke="black" points="306,-1130 222,-1130 222,-1094 306,-1094 306,-1130"/>
<text text-anchor="middle" x="264" y="-1109.2" font-family="Courier,monospace" font-size="11.00">ArrayTools</text>
</g>
<!-- \\Core\\Text -->
<g id="node14" class="node"><title>\\Core\\Text</title>
<polygon fill="none" stroke="black" points="291,-1076 237,-1076 237,-1040 291,-1040 291,-1076"/>
<text text-anchor="middle" x="264" y="-1055.2" font-family="Courier,monospace" font-size="11.00">Text</text>
</g>
<!-- \\Core\\Upload -->
<g id="node15" class="node"><title>\\Core\\Upload</title>
<polygon fill="none" stroke="black" points="292.5,-1022 235.5,-1022 235.5,-986 292.5,-986 292.5,-1022"/>
<text text-anchor="middle" x="264" y="-1001.2" font-family="Courier,monospace" font-size="11.00">Upload</text>
</g>
<!-- \\Core\\Number -->
<g id="node16" class="node"><title>\\Core\\Number</title>
<polygon fill="none" stroke="black" points="292.5,-968 235.5,-968 235.5,-932 292.5,-932 292.5,-968"/>
<text text-anchor="middle" x="264" y="-947.2" font-family="Courier,monospace" font-size="11.00">Number</text>
</g>
<!-- \\Core\\IP -->
<g id="node17" class="node"><title>\\Core\\IP</title>
<polygon fill="none" stroke="black" points="291,-914 237,-914 237,-878 291,-878 291,-914"/>
<text text-anchor="middle" x="264" y="-893.2" font-family="Courier,monospace" font-size="11.00">IP</text>
</g>
<!-- \\Core\\JSON -->
<g id="node18" class="node"><title>\\Core\\JSON</title>
<polygon fill="none" stroke="black" points="291,-860 237,-860 237,-824 291,-824 291,-860"/>
<text text-anchor="middle" x="264" y="-839.2" font-family="Courier,monospace" font-size="11.00">JSON</text>
</g>
<!-- \\Core\\Date -->
<g id="node19" class="node"><title>\\Core\\Date</title>
<polygon fill="none" stroke="black" points="291,-806 237,-806 237,-770 291,-770 291,-806"/>
<text text-anchor="middle" x="264" y="-785.2" font-family="Courier,monospace" font-size="11.00">Date</text>
</g>
<!-- \\Core\\Controller -->
<g id="node20" class="node"><title>\\Core\\Controller</title>
<polygon fill="none" stroke="black" points="306,-752 222,-752 222,-716 306,-716 306,-752"/>
<text text-anchor="middle" x="264" y="-731.2" font-family="Courier,monospace" font-size="11.00">Controller</text>
</g>
<!-- \\Core\\i18n -->
<g id="node21" class="node"><title>\\Core\\i18n</title>
<polygon fill="none" stroke="black" points="291,-698 237,-698 237,-662 291,-662 291,-698"/>
<text text-anchor="middle" x="264" y="-677.2" font-family="Courier,monospace" font-size="11.00">i18n</text>
</g>
<!-- \\Core\\Db -->
<g id="node22" class="node"><title>\\Core\\Db</title>
<polygon fill="none" stroke="black" points="291,-644 237,-644 237,-608 291,-608 291,-644"/>
<text text-anchor="middle" x="264" y="-623.2" font-family="Courier,monospace" font-size="11.00">Db</text>
</g>
<!-- \\Core\\Auth -->
<g id="node23" class="node"><title>\\Core\\Auth</title>
<polygon fill="none" stroke="black" points="291,-590 237,-590 237,-554 291,-554 291,-590"/>
<text text-anchor="middle" x="264" y="-569.2" font-family="Courier,monospace" font-size="11.00">Auth</text>
</g>
<!-- \\Core\\Countries -->
<g id="node24" class="node"><title>\\Core\\Countries</title>
<polygon fill="none" stroke="black" points="302.5,-536 225.5,-536 225.5,-500 302.5,-500 302.5,-536"/>
<text text-anchor="middle" x="264" y="-515.2" font-family="Courier,monospace" font-size="11.00">Countries</text>
</g>
<!-- \\Core\\ConfData -->
<g id="node25" class="node"><title>\\Core\\ConfData</title>
<polygon fill="none" stroke="black" points="299.5,-482 228.5,-482 228.5,-446 299.5,-446 299.5,-482"/>
<text text-anchor="middle" x="264" y="-461.2" font-family="Courier,monospace" font-size="11.00">ConfData</text>
</g>
<!-- \\Core\\InstantiatedConfData -->
<g id="node26" class="node"><title>\\Core\\InstantiatedConfData</title>
<polygon fill="none" stroke="black" points="340,-428 188,-428 188,-392 340,-392 340,-428"/>
<text text-anchor="middle" x="264" y="-407.2" font-family="Courier,monospace" font-size="11.00">InstantiatedConfData</text>
</g>
<!-- \\Drivers\\Database\\PDO\\Id -->
<g id="node27" class="node"><title>\\Drivers\\Database\\PDO\\Id</title>
<polygon fill="none" stroke="black" points="291,-76 237,-76 237,-40 291,-40 291,-76"/>
<text text-anchor="middle" x="264" y="-55.2" font-family="Courier,monospace" font-size="11.00">Id</text>
</g>
<!-- \\Drivers\\Database\\Id -->
<g id="node35" class="node"><title>\\Drivers\\Database\\Id</title>
<polygon fill="none" stroke="black" points="101,-76 47,-76 47,-40 101,-40 101,-76"/>
<text text-anchor="middle" x="74" y="-55.2" font-family="Courier,monospace" font-size="11.00">Id</text>
</g>
<!-- \\Drivers\\Database\\PDO\\Id&#45;&gt;\\Drivers\\Database\\Id -->
<g id="edge1" class="edge"><title>\\Drivers\\Database\\PDO\\Id&#45;&gt;\\Drivers\\Database\\Id</title>
<path fill="none" stroke="black" stroke-dasharray="1,5" d="M236.859,-58C204.26,-58 148.346,-58 111.526,-58"/>
<polygon fill="none" stroke="black" points="111.221,-54.5001 101.221,-58 111.221,-61.5001 111.221,-54.5001"/>
</g>
<!-- \\Drivers\\Database\\PDO\\Date -->
<g id="node28" class="node"><title>\\Drivers\\Database\\PDO\\Date</title>
<polygon fill="none" stroke="black" points="291,-130 237,-130 237,-94 291,-94 291,-130"/>
<text text-anchor="middle" x="264" y="-109.2" font-family="Courier,monospace" font-size="11.00">Date</text>
</g>
<!-- \\Drivers\\Database\\Date -->
<g id="node33" class="node"><title>\\Drivers\\Database\\Date</title>
<polygon fill="none" stroke="black" points="101,-130 47,-130 47,-94 101,-94 101,-130"/>
<text text-anchor="middle" x="74" y="-109.2" font-family="Courier,monospace" font-size="11.00">Date</text>
</g>
<!-- \\Drivers\\Database\\PDO\\Date&#45;&gt;\\Drivers\\Database\\Date -->
<g id="edge2" class="edge"><title>\\Drivers\\Database\\PDO\\Date&#45;&gt;\\Drivers\\Database\\Date</title>
<path fill="none" stroke="black" stroke-dasharray="1,5" d="M236.859,-112C204.26,-112 148.346,-112 111.526,-112"/>
<polygon fill="none" stroke="black" points="111.221,-108.5 101.221,-112 111.221,-115.5 111.221,-108.5"/>
</g>
<!-- \\Drivers\\Database\\PDO\\Collection -->
<g id="node29" class="node"><title>\\Drivers\\Database\\PDO\\Collection</title>
<polygon fill="none" stroke="black" points="306,-184 222,-184 222,-148 306,-148 306,-184"/>
<text text-anchor="middle" x="264" y="-163.2" font-family="Courier,monospace" font-size="11.00">Collection</text>
</g>
<!-- \\Drivers\\Database\\Collection -->
<g id="node34" class="node"><title>\\Drivers\\Database\\Collection</title>
<polygon fill="none" stroke="black" points="116,-184 32,-184 32,-148 116,-148 116,-184"/>
<text text-anchor="middle" x="74" y="-163.2" font-family="Courier,monospace" font-size="11.00">Collection</text>
</g>
<!-- \\Drivers\\Database\\PDO\\Collection&#45;&gt;\\Drivers\\Database\\Collection -->
<g id="edge3" class="edge"><title>\\Drivers\\Database\\PDO\\Collection&#45;&gt;\\Drivers\\Database\\Collection</title>
<path fill="none" stroke="black" stroke-dasharray="1,5" d="M221.743,-166C193.703,-166 156.406,-166 126.431,-166"/>
<polygon fill="none" stroke="black" points="126.161,-162.5 116.161,-166 126.161,-169.5 126.161,-162.5"/>
</g>
<!-- \\Drivers\\Database\\PDO\\Factory -->
<g id="node30" class="node"><title>\\Drivers\\Database\\PDO\\Factory</title>
<polygon fill="none" stroke="black" points="296,-238 232,-238 232,-202 296,-202 296,-238"/>
<text text-anchor="middle" x="264" y="-217.2" font-family="Courier,monospace" font-size="11.00">Factory</text>
</g>
<!-- \\Drivers\\Database\\Factory -->
<g id="node32" class="node"><title>\\Drivers\\Database\\Factory</title>
<polygon fill="none" stroke="black" points="106,-238 42,-238 42,-202 106,-202 106,-238"/>
<text text-anchor="middle" x="74" y="-217.2" font-family="Courier,monospace" font-size="11.00">Factory</text>
</g>
<!-- \\Drivers\\Database\\PDO\\Factory&#45;&gt;\\Drivers\\Database\\Factory -->
<g id="edge4" class="edge"><title>\\Drivers\\Database\\PDO\\Factory&#45;&gt;\\Drivers\\Database\\Factory</title>
<path fill="none" stroke="black" stroke-dasharray="1,5" d="M231.956,-220C200.388,-220 151.289,-220 116.42,-220"/>
<polygon fill="none" stroke="black" points="116.091,-216.5 106.09,-220 116.09,-223.5 116.091,-216.5"/>
</g>
<!-- \\Drivers\\Database\\PDO\\Regex -->
<g id="node31" class="node"><title>\\Drivers\\Database\\PDO\\Regex</title>
<polygon fill="none" stroke="black" points="291,-292 237,-292 237,-256 291,-256 291,-292"/>
<text text-anchor="middle" x="264" y="-271.2" font-family="Courier,monospace" font-size="11.00">Regex</text>
</g>
<!-- \\Drivers\\Database\\Regex -->
<g id="node36" class="node"><title>\\Drivers\\Database\\Regex</title>
<polygon fill="none" stroke="black" points="101,-292 47,-292 47,-256 101,-256 101,-292"/>
<text text-anchor="middle" x="74" y="-271.2" font-family="Courier,monospace" font-size="11.00">Regex</text>
</g>
<!-- \\Drivers\\Database\\PDO\\Regex&#45;&gt;\\Drivers\\Database\\Regex -->
<g id="edge5" class="edge"><title>\\Drivers\\Database\\PDO\\Regex&#45;&gt;\\Drivers\\Database\\Regex</title>
<path fill="none" stroke="black" stroke-dasharray="1,5" d="M236.859,-274C204.26,-274 148.346,-274 111.526,-274"/>
<polygon fill="none" stroke="black" points="111.221,-270.5 101.221,-274 111.221,-277.5 111.221,-270.5"/>
</g>
</g>
</svg>
